<svg xmlns="http://www.w3.org/2000/svg" xmlns:xlink="http://www.w3.org/1999/xlink" width="500" zoomAndPan="magnify" viewBox="0 0 375 374.999991" height="500" preserveAspectRatio="xMidYMid meet" version="1.0"><defs><clipPath id="a2507b8604"><path d="M 22.917969 37.5 L 352 37.5 L 352 343 L 22.917969 343 Z M 22.917969 37.5 " clip-rule="nonzero"/></clipPath></defs><g clip-path="url(#a2507b8604)"><path fill="#ff2e63" d="M 200.382812 342.074219 C 199.996094 341.785156 199.71875 341.425781 199.769531 341.277344 C 199.816406 341.125 199.644531 340.9375 199.378906 340.851562 C 199.117188 340.769531 198.898438 340.621094 198.898438 340.523438 C 198.898438 340.425781 198.597656 340.390625 198.226562 340.441406 C 197.617188 340.53125 197.5625 340.488281 197.664062 339.957031 C 197.75 339.515625 197.660156 339.335938 197.289062 339.21875 C 196.664062 339.023438 196.328125 339.234375 196.328125 339.824219 C 196.328125 340.082031 196.234375 340.234375 196.121094 340.164062 C 195.839844 339.988281 195.660156 338.636719 195.898438 338.488281 C 196.175781 338.316406 196.140625 337.046875 195.859375 336.871094 C 195.613281 336.722656 194.605469 334.910156 194.585938 334.585938 C 194.582031 334.488281 194.464844 334.328125 194.324219 334.238281 C 193.558594 333.726562 193.867188 332.40625 194.691406 332.667969 C 195.246094 332.84375 195.539062 332.394531 195.707031 331.105469 C 195.90625 329.558594 195.46875 328.332031 193.652344 325.363281 C 192.570312 323.585938 191.777344 321.90625 191.070312 319.882812 C 189.847656 316.371094 188.6875 314.199219 187.726562 313.613281 C 185.957031 312.539062 182.695312 306.65625 183.074219 305.21875 C 183.144531 304.949219 183.007812 304.507812 182.757812 304.191406 C 182.414062 303.753906 182.277344 302.992188 182.113281 300.625 C 181.929688 297.964844 181.820312 297.449219 181.191406 296.203125 C 180.554688 294.941406 180.480469 294.5625 180.46875 292.644531 C 180.464844 291.460938 180.386719 290.109375 180.300781 289.636719 C 180.183594 289.023438 180.214844 288.828125 180.402344 288.945312 C 180.585938 289.058594 180.667969 288.828125 180.667969 288.21875 C 180.664062 287.296875 180.5625 287.097656 178.261719 283.46875 C 177.511719 282.289062 175.976562 279.417969 174.847656 277.082031 C 173.71875 274.75 172.246094 272.105469 171.582031 271.203125 C 169.871094 268.890625 169.675781 268.035156 169.761719 263.324219 C 169.828125 259.949219 169.894531 259.351562 170.257812 258.949219 C 170.488281 258.691406 170.820312 257.925781 170.992188 257.25 C 171.164062 256.570312 171.46875 255.4375 171.664062 254.734375 C 171.863281 254.03125 172.023438 253.230469 172.023438 252.949219 C 172.023438 252.671875 172.179688 252.144531 172.371094 251.773438 C 172.5625 251.40625 172.722656 250.824219 172.722656 250.480469 C 172.722656 250.136719 172.96875 249.558594 173.269531 249.195312 C 173.570312 248.832031 174.058594 248.089844 174.359375 247.546875 C 174.71875 246.898438 175.15625 246.472656 175.628906 246.308594 C 177.082031 245.808594 177.960938 243.605469 177.832031 240.800781 C 177.753906 239.089844 177.667969 238.8125 176.640625 237.066406 C 176.03125 236.03125 175.472656 234.820312 175.394531 234.378906 C 175.316406 233.9375 175.082031 233.230469 174.867188 232.8125 L 174.480469 232.042969 L 175.355469 231.21875 C 175.835938 230.765625 176.230469 230.269531 176.230469 230.117188 C 176.226562 229.964844 175.753906 228.839844 175.179688 227.617188 C 174.601562 226.398438 174.058594 225.035156 173.976562 224.597656 C 173.894531 224.15625 173.472656 223.332031 173.039062 222.765625 C 172.164062 221.617188 171.796875 220.566406 172.222656 220.421875 C 172.402344 220.363281 172.34375 220.121094 172.03125 219.6875 C 171.78125 219.328125 171.5 218.597656 171.414062 218.054688 C 171.328125 217.515625 170.996094 216.6875 170.679688 216.222656 C 170.363281 215.753906 170.027344 215.167969 169.9375 214.917969 C 169.734375 214.371094 166.761719 211.148438 163.226562 207.644531 C 160.761719 205.199219 160.550781 204.914062 159.195312 202.171875 C 158.410156 200.582031 157.769531 199.109375 157.773438 198.902344 C 157.78125 198.578125 157.816406 198.582031 158.027344 198.945312 C 158.222656 199.277344 158.34375 199.308594 158.605469 199.089844 C 158.785156 198.9375 158.941406 198.90625 158.945312 199.019531 C 158.953125 199.132812 159.210938 198.75 159.519531 198.171875 C 159.878906 197.496094 160.09375 196.699219 160.109375 195.949219 C 160.128906 195.089844 160.183594 194.90625 160.328125 195.257812 C 160.46875 195.613281 160.753906 195.742188 161.421875 195.769531 L 162.324219 195.804688 L 161.59375 195.585938 C 160.398438 195.230469 159.609375 193.484375 160.78125 193.792969 C 161.101562 193.875 161.152344 193.75 161.074219 193.054688 C 161.023438 192.589844 160.835938 192.128906 160.660156 192.023438 C 160.195312 191.757812 160.253906 191.484375 161.003906 190.382812 C 161.558594 189.574219 161.742188 188.917969 162.078125 186.523438 C 162.480469 183.691406 162.476562 183.632812 162.023438 183.136719 C 161.246094 182.277344 160.972656 181.589844 161.269531 181.234375 C 161.460938 181 161.453125 180.871094 161.238281 180.738281 C 161.078125 180.640625 160.910156 180.683594 160.859375 180.835938 C 160.746094 181.167969 160.105469 181.203125 160.105469 180.875 C 160.105469 180.75 160.023438 180.65625 159.929688 180.671875 C 159.125 180.796875 158.46875 180.136719 158.46875 179.207031 C 158.46875 178.546875 158.425781 178.511719 157.765625 178.65625 C 157.1875 178.785156 157.066406 178.738281 157.066406 178.378906 C 157.066406 178.144531 156.855469 177.820312 156.601562 177.660156 C 156.1875 177.402344 156.144531 177.425781 156.191406 177.890625 C 156.242188 178.355469 156.109375 178.425781 154.867188 178.585938 C 154.105469 178.6875 153.367188 178.675781 153.230469 178.566406 C 153.089844 178.453125 152.765625 178.449219 152.507812 178.550781 C 152.082031 178.722656 152.089844 178.742188 152.625 178.78125 C 153.113281 178.8125 153.074219 178.851562 152.394531 179.011719 C 151.910156 179.125 151.46875 179.113281 151.308594 178.976562 C 151.128906 178.832031 151.003906 178.84375 150.949219 179.011719 C 150.898438 179.15625 150.210938 179.300781 149.402344 179.339844 C 148.601562 179.375 147.878906 179.46875 147.800781 179.546875 C 147.613281 179.734375 146.0625 178.933594 145.574219 178.386719 C 145.113281 177.882812 144.679688 176.84375 144.519531 175.859375 C 144.453125 175.480469 144.269531 175.058594 144.105469 174.925781 C 143.945312 174.792969 143.476562 174.1875 143.070312 173.578125 C 141.972656 171.941406 140.714844 171.292969 138.640625 171.292969 C 137.121094 171.292969 136.507812 171.050781 137.257812 170.746094 C 137.433594 170.675781 137.386719 170.621094 137.144531 170.613281 C 136.917969 170.601562 136.734375 170.734375 136.734375 170.910156 C 136.734375 171.148438 136.085938 171.257812 134.105469 171.367188 C 131.292969 171.519531 127.808594 172.242188 127.65625 172.707031 C 127.394531 173.492188 126.664062 173.863281 125.394531 173.863281 C 124.363281 173.863281 123.738281 174.046875 122.296875 174.765625 C 121.304688 175.261719 120.152344 175.730469 119.738281 175.808594 C 119.324219 175.890625 118.140625 176.339844 117.109375 176.8125 L 115.238281 177.667969 L 113.375 177.050781 C 112.347656 176.710938 111.253906 176.433594 110.941406 176.433594 C 110.527344 176.433594 110.386719 176.320312 110.429688 176.027344 C 110.464844 175.800781 110.445312 175.761719 110.386719 175.941406 C 110.304688 176.1875 110.003906 176.222656 109.074219 176.089844 C 107.515625 175.871094 107.652344 175.871094 104.25 176.160156 C 101.230469 176.417969 99.328125 176.933594 95.335938 178.570312 C 93.179688 179.457031 92.777344 179.410156 89.777344 177.949219 C 87.519531 176.851562 86.664062 176.234375 84.382812 174.058594 C 83.617188 173.332031 82.410156 172.460938 81.703125 172.125 C 80.992188 171.789062 80.410156 171.429688 80.410156 171.324219 C 80.410156 171.21875 79.984375 170.9375 79.460938 170.703125 C 78.9375 170.464844 78.277344 169.984375 78 169.628906 C 77.617188 169.148438 74.796875 167.574219 73.632812 167.195312 C 73.570312 167.175781 73.160156 167.019531 72.726562 166.855469 C 71.945312 166.554688 71.941406 166.550781 72.464844 166.269531 C 72.972656 165.996094 72.976562 165.976562 72.554688 165.660156 C 72.3125 165.480469 72.113281 165.070312 72.113281 164.75 C 72.113281 164.332031 71.972656 164.144531 71.621094 164.097656 C 71.347656 164.058594 71.007812 163.769531 70.867188 163.453125 C 70.636719 162.949219 70.660156 162.882812 71.066406 162.882812 C 71.359375 162.882812 71.523438 162.730469 71.511719 162.472656 C 71.5 162.226562 71.445312 162.179688 71.375 162.355469 C 71.140625 162.9375 70.777344 162.632812 70.878906 161.9375 C 70.9375 161.542969 70.898438 161.171875 70.789062 161.105469 C 70.683594 161.039062 70.59375 160.726562 70.59375 160.414062 C 70.59375 160.097656 70.492188 159.84375 70.363281 159.84375 C 70.234375 159.84375 70.128906 159.730469 70.128906 159.59375 C 70.128906 159.203125 69.457031 158.628906 69.195312 158.789062 C 69.039062 158.886719 69.039062 158.730469 69.195312 158.324219 C 69.347656 157.917969 69.347656 157.761719 69.191406 157.855469 C 69.066406 157.9375 68.960938 157.890625 68.960938 157.753906 C 68.960938 157.617188 68.808594 157.503906 68.621094 157.503906 C 68.4375 157.503906 68.148438 157.320312 67.976562 157.097656 C 67.601562 156.597656 66.753906 156.101562 66.277344 156.101562 C 66.082031 156.101562 65.921875 155.953125 65.921875 155.769531 C 65.921875 155.585938 65.75 155.265625 65.542969 155.058594 C 65.335938 154.847656 65.222656 154.621094 65.289062 154.554688 C 65.359375 154.484375 65.207031 154.21875 64.949219 153.960938 C 64.691406 153.707031 64.539062 153.347656 64.609375 153.164062 C 64.679688 152.980469 64.625 152.832031 64.492188 152.832031 C 64.355469 152.832031 64.1875 153.042969 64.121094 153.300781 C 63.96875 153.878906 63.585938 153.914062 63.585938 153.347656 C 63.585938 153.121094 63.261719 152.742188 62.867188 152.507812 C 62.453125 152.265625 62.199219 151.953125 62.269531 151.773438 C 62.335938 151.601562 62.265625 151.417969 62.109375 151.367188 C 61.910156 151.296875 61.925781 151.15625 62.179688 150.847656 C 62.5 150.460938 62.488281 150.441406 62.035156 150.582031 C 61.605469 150.71875 61.558594 150.664062 61.660156 150.128906 C 61.726562 149.796875 62 149.433594 62.273438 149.320312 C 62.601562 149.191406 62.644531 149.117188 62.402344 149.105469 C 62.203125 149.097656 61.835938 149.246094 61.585938 149.433594 C 61.335938 149.625 60.882812 149.78125 60.582031 149.785156 C 60.15625 149.792969 60.0625 149.699219 60.171875 149.382812 C 60.296875 149.023438 60.273438 149.027344 59.976562 149.410156 C 59.652344 149.828125 59.613281 149.820312 59.039062 149.203125 C 58.601562 148.726562 58.507812 148.476562 58.691406 148.257812 C 58.878906 148.03125 58.832031 147.988281 58.492188 148.078125 C 58.21875 148.148438 57.777344 147.960938 57.367188 147.605469 C 56.707031 147.035156 56.703125 147.011719 57.148438 146.679688 C 57.398438 146.492188 57.769531 146.390625 57.964844 146.453125 C 58.253906 146.542969 58.261719 146.519531 58.007812 146.339844 C 57.832031 146.214844 57.503906 146.160156 57.28125 146.21875 C 56.929688 146.308594 56.851562 146.121094 56.75 144.964844 C 56.621094 143.488281 56.878906 142.671875 57.410156 142.875 C 57.898438 143.0625 57.832031 142.1875 57.316406 141.679688 C 57.082031 141.453125 56.710938 140.78125 56.496094 140.191406 C 56.035156 138.949219 54.898438 137.75 54.375 137.949219 C 54.179688 138.027344 53.960938 137.996094 53.894531 137.886719 C 53.824219 137.777344 54.070312 137.582031 54.441406 137.453125 C 55.253906 137.167969 56.65625 135.804688 57.195312 134.773438 C 57.410156 134.359375 57.726562 133.050781 57.890625 131.871094 C 58.058594 130.683594 58.472656 129.066406 58.820312 128.25 C 60.03125 125.421875 59.75 120.898438 58.273438 119.355469 C 57.933594 119 57.78125 118.710938 57.941406 118.710938 C 58.117188 118.710938 58.203125 118.417969 58.171875 117.941406 C 58.113281 117.058594 58.402344 116.398438 58.667969 116.824219 C 58.757812 116.972656 58.851562 116.644531 58.875 116.089844 C 58.929688 114.859375 58.273438 113.226562 57.859375 113.566406 C 57.65625 113.734375 57.402344 113.472656 56.933594 112.605469 C 56.28125 111.410156 55.894531 111.375 55.867188 112.515625 C 55.859375 112.953125 55.84375 112.957031 55.613281 112.566406 C 55.296875 112.019531 55.726562 109.171875 56.335938 107.800781 C 56.589844 107.222656 57.03125 106.679688 57.371094 106.523438 C 57.730469 106.359375 58.066406 105.925781 58.234375 105.414062 C 58.523438 104.507812 58.632812 104.273438 59.929688 101.738281 C 60.808594 100.019531 61.027344 99.355469 60.449219 100.144531 C 60.265625 100.394531 60.054688 100.535156 59.980469 100.460938 C 59.90625 100.386719 60.839844 99.367188 62.054688 98.191406 C 63.902344 96.40625 64.28125 95.914062 64.390625 95.175781 C 64.648438 93.410156 65.246094 91.226562 65.753906 90.199219 C 66.136719 89.417969 66.5625 88.988281 67.402344 88.539062 C 69.078125 87.632812 69.558594 87.035156 70.539062 84.609375 C 71.554688 82.101562 72.042969 81.617188 73.75 81.417969 C 75.414062 81.21875 77.203125 80.46875 77.988281 79.640625 C 78.355469 79.25 79.402344 78.375 80.308594 77.703125 C 81.214844 77.027344 82.503906 75.785156 83.171875 74.945312 C 85.023438 72.617188 85.496094 71.171875 84.691406 70.285156 C 84.410156 69.976562 84.285156 69.371094 84.253906 68.164062 C 84.207031 66.304688 84.46875 65.453125 85.542969 63.957031 C 85.929688 63.414062 86.339844 62.472656 86.453125 61.863281 C 86.566406 61.253906 86.804688 60.570312 86.980469 60.34375 C 88.84375 57.957031 89.207031 57.652344 91.394531 56.628906 C 94.527344 55.15625 94.921875 54.933594 95.800781 54.117188 C 96.734375 53.25 97.988281 50.855469 98.515625 48.9375 C 99.28125 46.160156 99.535156 45.667969 100.40625 45.253906 C 101.644531 44.660156 102.070312 44.742188 102.367188 45.636719 C 102.6875 46.609375 103.9375 47.839844 104.875 48.109375 C 105.265625 48.222656 106.023438 48.234375 106.554688 48.136719 C 107.085938 48.039062 108.199219 48.003906 109.027344 48.058594 C 110.300781 48.136719 110.613281 48.078125 111 47.691406 C 111.457031 47.234375 111.460938 47.234375 111.683594 47.871094 C 111.882812 48.445312 112.039062 48.523438 113.160156 48.601562 C 113.851562 48.648438 114.730469 48.683594 115.117188 48.679688 C 116.175781 48.667969 118.007812 47.703125 118.398438 46.949219 C 118.835938 46.097656 119.617188 45.5625 120.414062 45.5625 C 120.769531 45.5625 121.152344 45.386719 121.269531 45.171875 C 121.464844 44.824219 121.578125 44.816406 122.257812 45.101562 C 122.953125 45.386719 123.050781 45.375 123.277344 44.992188 C 124.515625 42.882812 126.027344 42.167969 130.320312 41.660156 C 132.417969 41.410156 133.789062 41.132812 134.164062 40.882812 C 134.539062 40.632812 135.238281 40.492188 136.109375 40.484375 C 136.855469 40.480469 137.589844 40.359375 137.734375 40.214844 C 138.355469 39.59375 143.511719 40.109375 143.511719 40.789062 C 143.511719 41.257812 144.300781 41.199219 145.320312 40.652344 C 145.800781 40.394531 146.480469 40.1875 146.832031 40.1875 C 147.257812 40.1875 147.601562 39.988281 147.855469 39.601562 C 148.289062 38.941406 148.792969 38.871094 149.457031 39.375 C 149.707031 39.5625 150.375 39.71875 150.941406 39.71875 C 151.796875 39.71875 151.949219 39.652344 151.828125 39.339844 C 151.710938 39.035156 151.789062 38.992188 152.214844 39.125 C 152.503906 39.214844 153.007812 39.347656 153.328125 39.421875 C 153.648438 39.492188 154 39.699219 154.105469 39.878906 C 154.210938 40.0625 154.480469 40.148438 154.714844 40.074219 C 154.945312 40 155.644531 39.902344 156.273438 39.855469 C 157.066406 39.796875 157.84375 39.511719 158.800781 38.929688 C 160.5 37.898438 161.425781 37.707031 162.726562 38.117188 C 163.542969 38.375 163.714844 38.527344 163.65625 38.9375 C 163.621094 39.214844 163.699219 39.511719 163.832031 39.59375 C 163.96875 39.679688 164.078125 39.949219 164.078125 40.199219 C 164.078125 40.84375 164.578125 40.761719 165.597656 39.953125 C 166.605469 39.152344 166.71875 39.125 167.109375 39.59375 C 167.335938 39.867188 167.304688 40.066406 166.941406 40.585938 C 166.695312 40.945312 166.425781 41.421875 166.34375 41.648438 C 166.261719 41.875 165.925781 42.183594 165.597656 42.332031 C 164.367188 42.894531 164.550781 44.523438 165.964844 45.546875 C 166.484375 45.921875 166.917969 46.316406 166.933594 46.421875 C 166.945312 46.527344 167.035156 46.949219 167.125 47.359375 C 167.40625 48.601562 166.480469 50.175781 164.550781 51.734375 C 163.648438 52.464844 162.910156 53.242188 162.910156 53.464844 C 162.910156 53.914062 163.507812 54.867188 164.066406 55.316406 C 164.265625 55.472656 164.742188 55.578125 165.128906 55.550781 C 165.753906 55.5 165.820312 55.558594 165.75 56.078125 L 165.667969 56.664062 L 166.230469 56.136719 C 166.664062 55.730469 166.855469 55.675781 167.070312 55.894531 C 167.222656 56.046875 167.351562 56.355469 167.351562 56.578125 C 167.351562 56.800781 167.457031 57.050781 167.585938 57.132812 C 167.71875 57.210938 167.757812 57.386719 167.679688 57.515625 C 167.597656 57.648438 167.722656 57.726562 167.96875 57.695312 C 168.457031 57.628906 169.199219 57.914062 171.160156 58.925781 C 172.316406 59.527344 172.675781 59.605469 173.613281 59.476562 C 176.179688 59.125 177.769531 59.386719 179.871094 60.507812 C 180.695312 60.949219 181.550781 61.21875 182.105469 61.21875 C 183.269531 61.21875 183.835938 61.785156 184.039062 63.15625 C 184.214844 64.324219 184.90625 65.496094 185.8125 66.164062 C 186.171875 66.429688 187.144531 66.6875 188.34375 66.839844 C 191.949219 67.289062 195.144531 68.605469 196.886719 70.363281 C 197.675781 71.160156 198.367188 71.375 199.460938 71.171875 C 201.105469 70.863281 202.871094 69.085938 202.871094 67.738281 C 202.871094 67.375 202.65625 66.527344 202.390625 65.851562 C 201.78125 64.308594 201.921875 63.464844 202.992188 62.214844 C 203.949219 61.09375 206.097656 59.816406 207.023438 59.816406 C 207.382812 59.816406 207.933594 59.636719 208.246094 59.417969 C 208.558594 59.199219 209.34375 58.992188 209.992188 58.957031 C 210.960938 58.902344 211.480469 59.042969 212.921875 59.761719 C 214.382812 60.488281 214.6875 60.738281 214.746094 61.261719 C 214.84375 62.105469 215.140625 62.300781 216.765625 62.601562 C 217.53125 62.742188 218.261719 62.960938 218.390625 63.089844 C 218.519531 63.21875 219.378906 63.324219 220.300781 63.324219 C 222.089844 63.324219 222.355469 63.460938 222.625 64.542969 C 222.871094 65.515625 223.171875 65.644531 224.597656 65.386719 C 225.652344 65.195312 226.308594 65.242188 228.339844 65.667969 C 229.691406 65.953125 231.203125 66.386719 231.691406 66.636719 C 232.179688 66.882812 232.761719 67.066406 232.976562 67.039062 C 233.195312 67.011719 233.667969 67.109375 234.027344 67.257812 C 234.390625 67.40625 234.917969 67.53125 235.199219 67.53125 C 235.476562 67.53125 236.269531 67.796875 236.957031 68.117188 C 237.644531 68.4375 238.453125 68.699219 238.753906 68.699219 C 239.054688 68.699219 239.964844 68.195312 240.777344 67.578125 C 241.632812 66.925781 242.429688 66.496094 242.675781 66.546875 C 242.945312 66.601562 243.144531 66.472656 243.21875 66.195312 C 243.304688 65.871094 243.546875 65.753906 244.132812 65.753906 C 244.609375 65.753906 244.816406 65.828125 244.644531 65.9375 C 244.21875 66.207031 244.769531 66.179688 245.523438 65.894531 C 245.859375 65.765625 246.070312 65.554688 245.992188 65.425781 C 245.777344 65.078125 246.503906 65.144531 247.273438 65.539062 C 247.699219 65.761719 248.21875 65.832031 248.695312 65.738281 C 249.410156 65.59375 249.441406 65.621094 249.332031 66.203125 C 249.242188 66.660156 249.324219 66.851562 249.648438 66.957031 C 249.886719 67.03125 250.082031 67.191406 250.082031 67.3125 C 250.082031 67.429688 250.238281 67.53125 250.429688 67.53125 C 250.632812 67.53125 250.78125 67.320312 250.78125 67.042969 L 250.78125 66.554688 L 251.570312 67.042969 C 252.496094 67.613281 253.480469 67.671875 253.96875 67.179688 C 254.476562 66.671875 254.730469 66.746094 254.574219 67.355469 C 254.464844 67.78125 254.503906 67.832031 254.773438 67.628906 C 254.957031 67.488281 255.546875 67.363281 256.085938 67.347656 C 256.625 67.332031 257.398438 67.148438 257.800781 66.941406 C 258.207031 66.730469 258.582031 66.605469 258.636719 66.65625 C 258.804688 66.828125 260.617188 72.023438 260.988281 73.40625 L 261.34375 74.722656 L 260.386719 77.597656 C 259.859375 79.175781 259.429688 80.753906 259.429688 81.101562 C 259.429688 81.449219 259.242188 81.964844 259.011719 82.25 L 258.59375 82.765625 L 257.417969 81.835938 C 255.730469 80.5 254.59375 79.085938 254.410156 78.089844 C 254.324219 77.617188 253.851562 76.597656 253.359375 75.824219 C 252.867188 75.054688 252.390625 74.074219 252.300781 73.648438 C 252.152344 72.933594 252.117188 72.90625 251.820312 73.300781 C 251.367188 73.894531 251.40625 74.488281 251.949219 75.179688 C 252.207031 75.503906 252.417969 76.054688 252.417969 76.398438 C 252.417969 77.390625 253.429688 79.210938 254.855469 80.777344 C 255.851562 81.871094 256.160156 82.378906 256.132812 82.878906 C 256.109375 83.246094 256.46875 84.242188 256.945312 85.132812 C 257.410156 86.007812 257.792969 86.945312 257.792969 87.214844 C 257.792969 87.484375 258.550781 89.132812 259.476562 90.878906 C 260.402344 92.625 261.566406 94.894531 262.0625 95.925781 C 262.644531 97.136719 263.304688 98.101562 263.941406 98.664062 C 264.84375 99.464844 264.878906 99.535156 264.363281 99.539062 C 263.820312 99.546875 263.808594 99.582031 263.925781 101.203125 C 264.0625 103.121094 264.429688 103.753906 266.015625 104.804688 C 268.109375 106.195312 269.246094 107.265625 269.246094 107.851562 C 269.246094 108.160156 269.472656 109.019531 269.75 109.761719 C 270.03125 110.507812 270.28125 111.378906 270.3125 111.699219 C 270.34375 112.019531 270.492188 113.808594 270.648438 115.671875 C 270.992188 119.84375 271.417969 121.296875 272.371094 121.546875 C 273.140625 121.75 274.152344 122.617188 274.152344 123.074219 C 274.152344 123.246094 274.363281 123.386719 274.617188 123.386719 C 274.875 123.386719 275.335938 123.605469 275.644531 123.871094 C 276.691406 124.78125 278.359375 129.132812 278.359375 130.949219 C 278.359375 131.628906 279.3125 133.925781 279.875 134.601562 C 280.035156 134.796875 280.234375 135.242188 280.320312 135.597656 C 280.515625 136.425781 280.816406 136.425781 280.816406 135.597656 C 280.8125 134.539062 281.246094 134.648438 281.816406 135.84375 C 282.3125 136.882812 282.410156 136.960938 283.019531 136.824219 C 283.550781 136.710938 283.773438 136.800781 284.148438 137.277344 C 284.410156 137.605469 284.84375 137.875 285.117188 137.875 C 285.679688 137.875 287.617188 139.554688 287.832031 140.230469 C 287.90625 140.472656 288.535156 141.050781 289.226562 141.507812 C 290.121094 142.101562 290.5625 142.574219 290.75 143.148438 C 290.894531 143.589844 291.152344 143.949219 291.320312 143.949219 C 291.488281 143.949219 291.898438 144.308594 292.234375 144.746094 C 292.621094 145.257812 292.988281 145.511719 293.253906 145.449219 C 293.53125 145.386719 293.839844 145.628906 294.191406 146.1875 C 295.355469 148.03125 295.171875 148.917969 293.460938 149.675781 C 292.292969 150.191406 291.34375 150.960938 291.871094 150.960938 C 292.007812 150.960938 292.183594 150.855469 292.265625 150.726562 C 292.34375 150.601562 292.796875 150.5 293.273438 150.503906 C 294.28125 150.511719 295.097656 151.140625 295.738281 152.40625 C 296.21875 153.351562 297.488281 154.46875 298.777344 155.085938 C 299.496094 155.425781 299.746094 155.441406 300.589844 155.1875 C 301.125 155.027344 301.988281 154.613281 302.507812 154.273438 C 303.371094 153.703125 303.648438 153.648438 305.808594 153.648438 C 308.085938 153.648438 308.203125 153.625 309.398438 152.859375 C 310.488281 152.160156 310.75 152.085938 311.699219 152.214844 C 312.335938 152.304688 313.300781 152.230469 314.085938 152.035156 C 314.808594 151.855469 316.175781 151.636719 317.125 151.550781 C 318.074219 151.464844 319.023438 151.308594 319.230469 151.199219 C 319.4375 151.09375 320.1875 150.886719 320.894531 150.742188 C 321.835938 150.546875 322.402344 150.257812 323.023438 149.652344 C 323.773438 148.917969 323.960938 148.84375 324.707031 148.984375 C 325.167969 149.070312 325.710938 149.261719 325.910156 149.410156 C 326.246094 149.652344 326.234375 149.777344 325.792969 150.6875 C 325.484375 151.332031 325.382812 151.796875 325.519531 151.972656 C 325.636719 152.125 325.664062 152.90625 325.582031 153.707031 C 325.5 154.511719 325.515625 155.167969 325.617188 155.167969 C 325.71875 155.167969 325.800781 155.074219 325.800781 154.957031 C 325.800781 154.839844 326.011719 154.800781 326.269531 154.867188 C 327.023438 155.0625 326.804688 155.402344 325.925781 155.402344 C 324.917969 155.402344 324.730469 155.734375 324.574219 157.789062 C 324.472656 159.101562 324.332031 159.507812 323.703125 160.304688 C 323.289062 160.828125 322.6875 161.796875 322.367188 162.460938 C 322.046875 163.128906 321.542969 163.992188 321.246094 164.386719 C 320.953125 164.777344 320.375 165.730469 319.964844 166.503906 C 319.558594 167.273438 318.871094 168.527344 318.445312 169.289062 C 318.019531 170.054688 317.609375 171.035156 317.539062 171.472656 C 317.382812 172.449219 316.570312 173.734375 313.441406 177.953125 C 310.285156 182.207031 305.773438 186.757812 303.480469 188.003906 C 299.363281 190.242188 299.039062 190.5 292.992188 196.421875 C 291.023438 198.347656 289.792969 199.828125 288.816406 201.4375 C 287.667969 203.332031 287.121094 203.933594 286.390625 204.117188 C 286.074219 204.195312 285.871094 204.34375 285.933594 204.445312 C 285.996094 204.546875 285.84375 204.804688 285.59375 205.019531 C 285.339844 205.234375 285.128906 205.332031 285.121094 205.238281 C 285.113281 205.140625 285.015625 205.296875 284.898438 205.578125 C 284.769531 205.902344 284.359375 206.183594 283.773438 206.339844 C 282.632812 206.644531 282.429688 206.898438 282.261719 208.210938 C 282.1875 208.785156 281.992188 209.367188 281.820312 209.5 C 281.386719 209.847656 280.929688 210.710938 280.921875 211.195312 C 280.914062 211.738281 280.351562 212.464844 280.109375 212.246094 C 280.003906 212.152344 279.992188 212.203125 280.082031 212.359375 C 280.34375 212.816406 279.601562 214.28125 278.984375 214.515625 C 278.574219 214.671875 278.375 214.972656 278.257812 215.621094 C 278.167969 216.113281 277.839844 217.164062 277.527344 217.957031 C 277.214844 218.75 276.957031 219.882812 276.957031 220.476562 C 276.957031 221.402344 277.035156 221.582031 277.527344 221.769531 C 277.84375 221.890625 278.273438 222.25 278.484375 222.574219 C 278.695312 222.894531 279.070312 223.222656 279.316406 223.300781 C 279.882812 223.480469 279.878906 223.894531 279.292969 224.984375 C 278.730469 226.035156 278.710938 226.519531 279.191406 227.257812 C 279.523438 227.761719 279.523438 227.878906 279.191406 228.523438 C 278.726562 229.425781 278.734375 229.667969 279.257812 230.660156 C 279.496094 231.105469 279.644531 231.609375 279.585938 231.78125 C 279.527344 231.949219 279.664062 232.222656 279.890625 232.390625 C 280.15625 232.582031 280.246094 232.839844 280.144531 233.105469 C 280.058594 233.332031 280.101562 233.65625 280.238281 233.824219 C 280.378906 233.992188 280.511719 234.503906 280.535156 234.960938 C 280.558594 235.417969 280.695312 235.796875 280.835938 235.796875 C 280.980469 235.796875 281.375 236.058594 281.71875 236.375 C 282.0625 236.691406 282.394531 236.953125 282.460938 236.949219 C 282.734375 236.945312 283.222656 237.359375 283.570312 237.898438 C 283.964844 238.515625 283.925781 239.578125 283.464844 240.757812 C 283.328125 241.109375 283.285156 241.792969 283.371094 242.277344 C 283.457031 242.761719 283.566406 243.808594 283.617188 244.605469 C 283.664062 245.402344 283.816406 246.261719 283.949219 246.511719 C 284.132812 246.855469 284.105469 247.035156 283.84375 247.253906 C 283.589844 247.464844 283.5625 247.625 283.742188 247.84375 C 283.878906 248.007812 283.9375 248.59375 283.867188 249.148438 C 283.800781 249.707031 283.859375 250.539062 284 251.007812 C 284.1875 251.628906 284.183594 251.988281 283.984375 252.355469 C 283.761719 252.773438 283.78125 252.855469 284.089844 252.855469 C 284.367188 252.855469 284.425781 252.988281 284.308594 253.355469 C 284.203125 253.679688 284.238281 253.796875 284.402344 253.695312 C 284.742188 253.484375 284.992188 254.554688 284.761719 255.234375 C 284.660156 255.535156 284.597656 255.859375 284.625 255.960938 C 284.652344 256.058594 284.519531 256.199219 284.328125 256.273438 C 284.097656 256.363281 284.027344 256.609375 284.109375 257.027344 C 284.214844 257.542969 283.972656 257.949219 282.703125 259.402344 C 281.863281 260.363281 281.167969 261.257812 281.164062 261.386719 C 281.152344 261.6875 280.3125 262.472656 279.410156 263.027344 C 279.023438 263.265625 278.5 263.644531 278.242188 263.871094 C 277.984375 264.09375 277.351562 264.382812 276.839844 264.507812 C 275.714844 264.78125 274.398438 265.230469 273.917969 265.507812 C 273.726562 265.617188 272.9375 266.035156 272.164062 266.433594 C 270.6875 267.203125 269.476562 268.191406 269.476562 268.632812 C 269.476562 268.777344 269.148438 269.203125 268.75 269.582031 C 268.351562 269.960938 267.761719 270.671875 267.445312 271.167969 C 266.988281 271.882812 266.769531 272.039062 266.363281 271.929688 C 265.949219 271.820312 265.5 272.167969 263.960938 273.800781 C 262.582031 275.257812 261.898438 275.816406 261.449219 275.839844 C 260.929688 275.871094 260.828125 275.988281 260.8125 276.578125 C 260.800781 276.964844 260.742188 277.582031 260.683594 277.957031 C 260.597656 278.480469 260.730469 278.796875 261.28125 279.367188 C 261.808594 279.910156 262.023438 280.386719 262.105469 281.183594 C 262.164062 281.777344 262.429688 282.910156 262.699219 283.699219 C 263 284.601562 263.136719 285.460938 263.0625 286 C 262.949219 286.832031 262.953125 286.839844 263.21875 286.21875 C 263.367188 285.863281 263.5625 285.574219 263.648438 285.574219 C 263.734375 285.574219 263.859375 286.535156 263.925781 287.703125 C 264.035156 289.660156 263.914062 290.621094 263.304688 292.527344 C 263.171875 292.945312 263.210938 293.023438 263.503906 292.910156 C 264.148438 292.664062 263.9375 294.054688 263.171875 295.113281 C 262.265625 296.363281 262 296.519531 258.257812 297.984375 C 254.800781 299.339844 253.234375 300.253906 252.988281 301.058594 C 252.902344 301.347656 252.679688 301.753906 252.5 301.960938 C 252.214844 302.285156 252.234375 302.410156 252.640625 302.894531 C 253.042969 303.375 253.144531 303.40625 253.367188 303.101562 C 253.792969 302.523438 253.441406 306.167969 252.792969 309.0625 C 252.050781 312.371094 251.296875 314.03125 250.183594 314.789062 C 248.476562 315.949219 247.378906 317.109375 246.71875 318.449219 C 246.347656 319.199219 245.832031 320.234375 245.578125 320.75 C 244.453125 323.007812 242.5 325.613281 241 326.851562 C 240.144531 327.554688 238.945312 328.785156 238.328125 329.582031 C 237.027344 331.273438 235.023438 333.171875 232.53125 335.085938 C 229.941406 337.070312 228.796875 337.574219 226.863281 337.578125 C 225.585938 337.582031 225.199219 337.671875 224.949219 338.011719 C 224.777344 338.246094 224.699219 338.601562 224.777344 338.800781 C 224.890625 339.097656 224.789062 339.132812 224.234375 339.011719 C 222.09375 338.527344 222.058594 338.53125 221.8125 339.179688 C 221.53125 339.921875 221.15625 339.945312 219.402344 339.328125 C 217.929688 338.808594 216.050781 338.707031 215.90625 339.136719 C 215.835938 339.347656 215.496094 339.347656 214.445312 339.136719 C 212.359375 338.714844 211.921875 338.78125 210.722656 339.695312 C 209.695312 340.484375 209.515625 340.535156 207.769531 340.570312 C 206.746094 340.589844 205.910156 340.6875 205.910156 340.785156 C 205.910156 340.882812 205.5625 340.964844 205.136719 340.964844 C 204.5625 340.964844 204.164062 341.171875 203.574219 341.78125 C 202.605469 342.78125 201.476562 342.882812 200.382812 342.074219 Z M 73.820312 166.398438 C 73.664062 166.148438 73.488281 165.988281 73.433594 166.042969 C 73.332031 166.140625 73.84375 166.855469 74.015625 166.855469 C 74.0625 166.855469 73.976562 166.648438 73.820312 166.398438 Z M 60.015625 146.382812 C 59.9375 146.304688 59.738281 146.296875 59.566406 146.363281 C 59.382812 146.4375 59.4375 146.492188 59.707031 146.503906 C 59.957031 146.515625 60.09375 146.460938 60.015625 146.382812 Z M 301.070312 299.949219 C 300.6875 299.628906 300.125 299.363281 299.8125 299.363281 C 299.503906 299.363281 298.832031 299.058594 298.320312 298.679688 C 296.957031 297.679688 296.019531 295.253906 296.011719 292.703125 C 296.003906 291.066406 295.910156 290.644531 295.234375 289.304688 C 294.25 287.339844 294.070312 285.566406 294.726562 284.273438 C 294.980469 283.78125 295.183594 283.136719 295.183594 282.84375 C 295.183594 282.492188 295.421875 282.195312 295.90625 281.945312 C 296.398438 281.691406 296.800781 281.179688 297.171875 280.34375 C 297.46875 279.667969 298.03125 278.617188 298.417969 278.003906 C 299.019531 277.058594 299.117188 276.691406 299.070312 275.566406 C 299.039062 274.839844 298.835938 273.90625 298.621094 273.492188 C 298.402344 273.082031 298.222656 272.527344 298.222656 272.257812 C 298.222656 271.992188 298.015625 271.15625 297.761719 270.398438 C 297.503906 269.640625 297.269531 268.296875 297.234375 267.414062 C 297.175781 265.894531 297.222656 265.726562 298.035156 264.53125 C 298.578125 263.726562 298.953125 262.851562 299.054688 262.152344 C 299.203125 261.109375 299.253906 261.039062 300.058594 260.890625 C 300.527344 260.800781 301.207031 260.511719 301.566406 260.246094 C 302.109375 259.84375 302.253906 259.820312 302.425781 260.09375 C 302.59375 260.367188 302.691406 260.371094 303.003906 260.113281 C 303.207031 259.941406 303.441406 259.871094 303.523438 259.953125 C 303.605469 260.03125 303.820312 259.890625 304 259.632812 C 304.179688 259.378906 304.5625 259.167969 304.851562 259.167969 C 305.140625 259.167969 305.496094 259.046875 305.644531 258.898438 C 305.847656 258.695312 305.984375 258.78125 306.195312 259.25 C 306.351562 259.589844 306.578125 259.871094 306.703125 259.871094 C 306.832031 259.871094 306.820312 259.742188 306.675781 259.566406 C 306.414062 259.25 306.558594 258.234375 306.867188 258.234375 C 306.960938 258.234375 307.4375 257.917969 307.921875 257.53125 C 308.621094 256.976562 308.875 256.886719 309.136719 257.101562 C 309.316406 257.25 309.410156 257.515625 309.34375 257.6875 C 309.195312 258.074219 309.582031 258.101562 309.820312 257.722656 C 309.914062 257.566406 309.867188 257.402344 309.714844 257.351562 C 309.300781 257.210938 309.375 256.953125 310.160156 255.789062 C 310.921875 254.660156 311.324219 254.558594 311.136719 255.539062 C 311.074219 255.863281 311.085938 256.128906 311.160156 256.128906 C 311.449219 256.128906 312.09375 254.582031 312.050781 253.984375 C 312.023438 253.585938 312.175781 253.234375 312.476562 253.027344 C 312.734375 252.847656 312.875 252.628906 312.789062 252.546875 C 312.703125 252.460938 312.761719 252.390625 312.917969 252.390625 C 313.125 252.390625 313.132812 252.269531 312.941406 251.910156 C 312.800781 251.648438 312.71875 251.148438 312.757812 250.804688 C 312.847656 250.03125 313.542969 249.824219 313.761719 250.507812 C 313.953125 251.121094 314.355469 251.128906 314.515625 250.523438 C 314.582031 250.265625 314.730469 250.054688 314.84375 250.054688 C 314.957031 250.054688 315.050781 249.914062 315.050781 249.742188 C 315.050781 249.574219 315.28125 249.441406 315.5625 249.453125 C 316.59375 249.488281 317.117188 246.960938 316.277344 246.003906 C 315.882812 245.554688 315.886719 245.546875 316.394531 245.671875 C 316.714844 245.753906 316.917969 245.695312 316.917969 245.53125 C 316.917969 245.382812 317.132812 245.125 317.394531 244.960938 C 317.660156 244.796875 317.824219 244.582031 317.761719 244.484375 C 317.582031 244.191406 318.015625 243.671875 318.296875 243.84375 C 318.648438 244.0625 318.625 244.675781 318.261719 244.695312 C 318.101562 244.703125 318.214844 244.808594 318.515625 244.925781 C 318.832031 245.054688 319.210938 245.535156 319.421875 246.070312 C 319.625 246.578125 319.898438 246.972656 320.035156 246.945312 C 320.5 246.855469 321.386719 249.621094 321.730469 252.226562 C 321.941406 253.84375 322.28125 255.285156 322.628906 256.046875 C 323.074219 257.011719 323.148438 257.4375 323 258.105469 C 322.792969 259.019531 322.167969 260.105469 321.851562 260.105469 C 321.511719 260.105469 321.136719 259.511719 320.980469 258.734375 C 320.796875 257.8125 320.445312 257.570312 320.0625 258.09375 C 319.707031 258.582031 319.875 260.203125 320.378906 261.074219 C 320.671875 261.585938 320.683594 261.816406 320.449219 262.378906 C 320.292969 262.757812 320.195312 263.160156 320.234375 263.277344 C 320.269531 263.394531 320.011719 263.777344 319.660156 264.125 C 319.058594 264.722656 319.023438 264.871094 319.023438 266.929688 C 319.023438 268.910156 318.929688 269.367188 317.953125 272.140625 C 317.363281 273.808594 316.40625 276.703125 315.824219 278.566406 C 315.242188 280.429688 314.359375 283.015625 313.863281 284.3125 C 313.367188 285.613281 312.683594 287.976562 312.339844 289.574219 C 312 291.167969 311.371094 293.3125 310.945312 294.339844 C 310.519531 295.371094 310.101562 296.496094 310.015625 296.84375 C 309.875 297.425781 308.871094 298.660156 308.53125 298.667969 C 307.65625 298.695312 305.027344 299.46875 304.226562 299.9375 C 302.929688 300.699219 301.964844 300.703125 301.070312 299.949219 Z M 263.4375 283.707031 C 263.4375 283.386719 263.492188 283.253906 263.554688 283.414062 C 263.621094 283.574219 263.621094 283.839844 263.554688 284 C 263.492188 284.160156 263.4375 284.027344 263.4375 283.707031 Z M 342.652344 282.246094 C 341.402344 281.597656 341.421875 280.398438 342.683594 280.246094 C 343.457031 280.152344 344.476562 281.449219 344.101562 282.042969 C 343.789062 282.539062 343.339844 282.605469 342.652344 282.246094 Z M 350.359375 278.816406 C 350.085938 278.644531 350.082031 278.488281 350.328125 277.894531 C 350.78125 276.800781 351.25 276.496094 351.648438 277.042969 C 352.09375 277.648438 352.058594 278.015625 351.507812 278.566406 C 350.988281 279.085938 350.835938 279.121094 350.359375 278.816406 Z M 320.433594 264.296875 C 320.429688 264.09375 320.578125 263.726562 320.769531 263.476562 C 321.207031 262.898438 321.214844 263.3125 320.777344 264.074219 C 320.5625 264.449219 320.441406 264.527344 320.433594 264.296875 Z M 169.472656 262.539062 C 169.484375 262.265625 169.539062 262.210938 169.613281 262.394531 C 169.679688 262.566406 169.671875 262.765625 169.59375 262.84375 C 169.515625 262.921875 169.460938 262.785156 169.472656 262.539062 Z M 313.882812 249.234375 C 313.882812 249.042969 314.039062 248.886719 314.230469 248.886719 C 314.425781 248.886719 314.582031 249.042969 314.582031 249.234375 C 314.582031 249.429688 314.425781 249.585938 314.230469 249.585938 C 314.039062 249.585938 313.882812 249.429688 313.882812 249.234375 Z M 301.710938 247.9375 C 301.488281 246.726562 301.5 246.511719 301.777344 246.601562 C 302.179688 246.738281 302.304688 247.464844 301.984375 247.789062 C 301.84375 247.929688 301.71875 247.996094 301.710938 247.9375 Z M 295.886719 245.144531 C 295.886719 245.015625 296.039062 244.910156 296.222656 244.910156 C 296.410156 244.910156 296.625 245.015625 296.703125 245.144531 C 296.785156 245.273438 296.632812 245.378906 296.367188 245.378906 C 296.101562 245.378906 295.886719 245.273438 295.886719 245.144531 Z M 298.71875 244.9375 L 298.164062 244.515625 L 298.710938 244.371094 C 299.371094 244.199219 299.453125 244.265625 299.351562 244.882812 C 299.277344 245.347656 299.261719 245.347656 298.71875 244.9375 Z M 294.660156 243.34375 C 294.230469 242.863281 294.105469 241.757812 294.457031 241.539062 C 294.839844 241.300781 295.214844 242.066406 295.140625 242.9375 C 295.070312 243.777344 295.058594 243.785156 294.660156 243.34375 Z M 280.332031 228.105469 C 280.40625 227.988281 280.332031 227.84375 280.171875 227.789062 C 279.976562 227.722656 280.09375 227.46875 280.519531 227.035156 C 280.875 226.679688 281.164062 226.472656 281.164062 226.578125 C 281.164062 227.003906 280.585938 228.320312 280.402344 228.320312 C 280.289062 228.320312 280.261719 228.222656 280.332031 228.105469 Z M 278.867188 221.347656 C 278.433594 221.015625 278.339844 220.75 278.398438 220.027344 C 278.496094 218.859375 278.957031 218.710938 279.160156 219.777344 C 279.246094 220.234375 279.414062 220.605469 279.539062 220.605469 C 279.660156 220.605469 279.761719 220.871094 279.761719 221.191406 C 279.761719 221.878906 279.597656 221.910156 278.867188 221.347656 Z M 280.148438 216.933594 C 280.316406 215.652344 280.34375 215.597656 280.679688 215.804688 C 281.128906 216.085938 280.976562 217.527344 280.464844 217.800781 C 280.023438 218.035156 280.007812 217.992188 280.148438 216.933594 Z M 156.890625 183.761719 C 156.554688 183.625 156.488281 182.746094 156.816406 182.746094 C 156.9375 182.746094 157.097656 182.550781 157.171875 182.316406 C 157.246094 182.078125 157.574219 181.761719 157.898438 181.613281 C 158.703125 181.25 158.921875 181.84375 158.347656 182.832031 C 157.757812 183.84375 157.5 184.007812 156.890625 183.761719 Z M 59.0625 152.308594 C 58.917969 151.765625 59.136719 151.351562 59.3125 151.839844 C 59.445312 152.207031 60.3125 152.226562 60.3125 151.859375 C 60.3125 151.707031 60.367188 151.640625 60.433594 151.707031 C 60.695312 151.96875 60.171875 152.71875 59.695312 152.765625 C 59.351562 152.800781 59.152344 152.65625 59.0625 152.308594 Z M 60.78125 152.027344 C 60.78125 151.828125 60.886719 151.664062 61.015625 151.664062 C 61.140625 151.664062 61.246094 151.761719 61.246094 151.882812 C 61.246094 152.003906 61.140625 152.167969 61.015625 152.25 C 60.886719 152.328125 60.78125 152.230469 60.78125 152.027344 Z M 58.574219 150.972656 C 58.269531 150.863281 58.210938 150.753906 58.398438 150.640625 C 58.550781 150.546875 58.84375 150.566406 59.054688 150.683594 C 59.546875 150.960938 59.167969 151.1875 58.574219 150.972656 Z M 59.664062 150.917969 C 59.808594 150.484375 60.3125 150.414062 60.3125 150.828125 C 60.3125 151.03125 60.144531 151.195312 59.941406 151.195312 C 59.738281 151.195312 59.613281 151.070312 59.664062 150.917969 Z M 26.234375 137 C 26.28125 136.773438 26.46875 136.589844 26.660156 136.589844 C 26.847656 136.589844 27.039062 136.773438 27.082031 137 C 27.136719 137.285156 27.011719 137.40625 26.660156 137.40625 C 26.308594 137.40625 26.179688 137.285156 26.234375 137 Z M 29.363281 136.808594 C 28.984375 136.429688 28.875 135.734375 29.152344 135.457031 C 29.394531 135.21875 30.398438 136.261719 30.398438 136.746094 C 30.398438 137.269531 29.859375 137.300781 29.363281 136.808594 Z M 31.332031 135.773438 C 31.332031 135.515625 31.4375 135.304688 31.566406 135.304688 C 31.695312 135.304688 31.800781 135.515625 31.800781 135.773438 C 31.800781 136.027344 31.695312 136.238281 31.566406 136.238281 C 31.4375 136.238281 31.332031 136.027344 31.332031 135.773438 Z M 281.621094 134.128906 C 281.238281 133.742188 281.183594 133.558594 281.390625 133.351562 C 281.59375 133.148438 281.734375 133.183594 281.964844 133.492188 C 282.128906 133.71875 282.449219 133.902344 282.667969 133.902344 C 282.890625 133.902344 283.027344 134.035156 282.972656 134.195312 C 282.808594 134.691406 282.152344 134.65625 281.621094 134.128906 Z M 32.5 132.148438 C 32.5 131.535156 32.925781 131.378906 33.371094 131.828125 C 33.734375 132.191406 33.480469 132.734375 32.945312 132.734375 C 32.628906 132.734375 32.5 132.566406 32.5 132.148438 Z M 281.628906 132.5 C 281.628906 132.371094 281.734375 132.265625 281.863281 132.265625 C 281.992188 132.265625 282.097656 132.371094 282.097656 132.5 C 282.097656 132.628906 281.992188 132.734375 281.863281 132.734375 C 281.734375 132.734375 281.628906 132.628906 281.628906 132.5 Z M 26.78125 130.441406 C 26.714844 130.375 26.660156 130.230469 26.660156 130.125 C 26.660156 129.863281 27.765625 129.875 27.929688 130.136719 C 28.066406 130.359375 26.984375 130.644531 26.78125 130.441406 Z M 32.390625 129.859375 C 32.292969 129.628906 32.277344 129.375 32.355469 129.296875 C 32.59375 129.058594 32.785156 129.390625 32.675781 129.851562 C 32.578125 130.261719 32.566406 130.261719 32.390625 129.859375 Z M 24.132812 129.210938 C 24.179688 129.074219 24.316406 128.960938 24.4375 128.960938 C 24.5625 128.960938 24.699219 129.074219 24.746094 129.210938 C 24.789062 129.347656 24.652344 129.460938 24.4375 129.460938 C 24.226562 129.460938 24.085938 129.347656 24.132812 129.210938 Z M 22.917969 128.574219 C 22.917969 128.242188 23.46875 127.828125 23.902344 127.828125 C 24.421875 127.828125 24.457031 128.425781 23.953125 128.621094 C 23.433594 128.816406 22.917969 128.796875 22.917969 128.574219 Z M 249.84375 66.238281 C 249.390625 65.695312 249.710938 65.59375 250.195312 66.125 C 250.429688 66.382812 250.511719 66.59375 250.378906 66.59375 C 250.246094 66.59375 250.003906 66.433594 249.84375 66.238281 Z M 165.84375 55.394531 C 165.382812 54.882812 165.53125 54.441406 166.164062 54.441406 C 166.890625 54.441406 167.179688 55.011719 166.683594 55.460938 C 166.285156 55.824219 166.230469 55.820312 165.84375 55.394531 Z M 166.648438 50.941406 C 166.648438 50.839844 166.832031 50.695312 167.058594 50.613281 C 167.28125 50.535156 167.625 50.398438 167.816406 50.316406 C 168.109375 50.1875 168.117188 50.21875 167.867188 50.523438 C 167.535156 50.925781 166.648438 51.230469 166.648438 50.941406 Z M 166.648438 50.941406 " fill-opacity="1" fill-rule="nonzero"/></g></svg>