<svg xmlns="http://www.w3.org/2000/svg" xmlns:xlink="http://www.w3.org/1999/xlink" width="500" zoomAndPan="magnify" viewBox="0 0 375 374.999991" height="500" preserveAspectRatio="xMidYMid meet" version="1.0"><defs><clipPath id="5c3a076834"><path d="M 12.695312 65 L 362.195312 65 L 362.195312 337.804688 L 12.695312 337.804688 Z M 12.695312 65 " clip-rule="nonzero"/></clipPath></defs><g clip-path="url(#5c3a076834)"><path fill="#ff2e63" d="M 275.863281 306.132812 L 272.714844 302.984375 L 273.0625 300.183594 L 276.210938 299.835938 L 282.160156 299.484375 L 285.660156 300.183594 L 288.460938 299.484375 L 291.261719 295.984375 L 290.5625 295.285156 L 287.0625 297.734375 L 282.863281 297.734375 L 278.3125 297.386719 L 275.511719 296.335938 L 272.363281 298.785156 L 271.664062 300.535156 L 269.914062 305.785156 L 269.5625 308.582031 L 268.164062 311.035156 L 269.214844 313.484375 L 270.613281 313.484375 L 271.3125 316.984375 L 270.261719 320.132812 L 271.664062 321.183594 L 273.761719 320.832031 C 273.761719 317.683594 273.414062 314.53125 273.414062 311.734375 L 275.863281 310.683594 L 275.511719 314.183594 L 277.960938 316.28125 L 277.613281 317.683594 L 278.664062 318.734375 L 282.160156 317.332031 L 280.410156 320.132812 L 281.8125 321.53125 L 283.5625 320.480469 L 283.5625 318.03125 L 280.410156 313.484375 L 281.113281 312.433594 L 277.613281 307.882812 L 280.761719 306.484375 L 282.160156 304.382812 L 283.5625 304.734375 L 283.910156 302.984375 L 277.261719 304.035156 Z M 277.261719 331.332031 L 275.164062 330.28125 L 272.011719 330.980469 L 272.011719 332.382812 L 276.5625 332.730469 L 281.8125 331.679688 L 282.160156 329.582031 L 279.363281 330.980469 Z M 276.5625 218.296875 L 278.664062 211.996094 L 279.363281 209.546875 L 277.613281 208.496094 L 274.8125 211.296875 L 272.714844 215.496094 L 273.0625 218.296875 L 274.8125 221.445312 Z M 291.960938 257.839844 L 290.910156 256.441406 L 287.410156 256.441406 L 289.511719 259.238281 L 289.511719 260.640625 L 287.410156 260.289062 L 288.109375 262.390625 L 289.160156 262.738281 L 289.160156 265.1875 L 290.910156 264.488281 L 290.210938 262.390625 L 290.210938 261.339844 L 293.011719 262.390625 Z M 272.011719 245.941406 L 272.710938 247.691406 L 274.460938 249.792969 L 274.8125 248.390625 L 275.863281 249.089844 L 274.8125 250.140625 L 274.460938 251.542969 L 276.210938 252.242188 L 279.363281 251.542969 L 281.460938 253.640625 L 282.511719 252.242188 L 283.910156 253.992188 L 286.710938 255.742188 L 287.0625 253.992188 L 286.011719 253.992188 L 286.359375 251.890625 L 281.8125 249.792969 L 280.410156 250.492188 L 278.664062 249.792969 L 277.613281 246.992188 L 278.3125 244.191406 L 280.410156 243.140625 L 281.460938 239.992188 L 280.410156 237.191406 L 281.113281 235.792969 L 280.761719 234.742188 L 279.710938 235.792969 L 277.613281 234.742188 L 275.511719 234.742188 L 274.460938 238.242188 L 274.113281 243.84375 L 272.710938 242.792969 Z M 268.511719 330.28125 L 266.414062 330.632812 L 265.015625 329.582031 L 263.964844 330.980469 L 261.863281 330.980469 L 260.8125 333.082031 L 262.5625 333.082031 C 264.664062 332.730469 266.761719 332.382812 269.214844 332.03125 Z M 222.320312 316.28125 L 223.371094 311.734375 L 221.621094 309.632812 L 219.167969 309.285156 L 217.769531 307.183594 L 217.070312 304.734375 L 215.671875 304.734375 L 213.570312 303.335938 L 214.96875 300.535156 L 212.171875 298.785156 L 210.769531 295.984375 L 207.972656 293.535156 L 204.472656 293.535156 L 200.972656 289.6875 L 198.871094 288.285156 L 196.074219 285.835938 L 192.921875 282.335938 C 190.472656 281.988281 187.671875 281.636719 185.222656 281.636719 L 185.574219 283.386719 L 189.421875 287.238281 L 192.222656 289.335938 L 193.972656 292.484375 L 197.121094 294.585938 L 198.523438 297.386719 L 199.570312 300.535156 L 202.722656 303.335938 L 205.519531 308.234375 L 207.269531 311.035156 L 210.070312 313.832031 L 211.472656 315.933594 L 216.019531 318.734375 L 218.820312 321.53125 L 222.667969 321.53125 Z M 284.613281 270.4375 L 282.863281 271.488281 L 280.761719 272.539062 L 279.363281 275.6875 L 280.0625 276.738281 L 282.511719 274.636719 L 284.261719 274.636719 L 285.3125 273.238281 L 287.410156 274.988281 L 286.359375 276.738281 L 287.410156 279.1875 L 291.609375 281.289062 L 292.660156 279.539062 L 291.609375 277.089844 L 293.359375 275.339844 L 294.761719 278.835938 L 295.808594 275.6875 C 295.460938 273.238281 295.109375 270.789062 294.761719 268.339844 L 291.960938 266.589844 L 292.308594 269.390625 L 289.859375 269.390625 L 289.160156 271.140625 L 286.359375 272.1875 Z M 247.515625 327.832031 L 246.117188 325.382812 L 239.816406 323.980469 L 239.117188 325.382812 L 232.46875 325.03125 L 231.769531 323.980469 L 230.367188 323.632812 L 227.570312 322.230469 L 223.371094 321.882812 L 220.917969 325.382812 L 224.070312 325.730469 L 224.769531 327.132812 L 231.066406 328.53125 L 232.46875 328.179688 L 234.917969 328.53125 L 239.117188 329.929688 L 242.265625 330.632812 L 245.765625 330.980469 L 248.914062 330.980469 L 252.765625 332.382812 L 256.964844 330.980469 L 252.765625 328.882812 Z M 268.863281 265.539062 L 271.3125 263.441406 L 270.613281 260.640625 L 268.863281 264.140625 L 266.761719 266.589844 L 264.3125 268.6875 L 262.5625 271.488281 L 267.113281 267.988281 Z M 134.128906 268.339844 L 131.679688 266.238281 L 129.929688 272.1875 L 130.632812 277.4375 L 132.378906 280.238281 L 135.53125 279.539062 L 136.929688 278.488281 L 137.628906 274.636719 L 135.878906 270.789062 Z M 263.613281 300.886719 L 264.664062 298.433594 L 268.863281 298.085938 L 265.015625 294.9375 L 265.714844 293.1875 L 263.265625 289.6875 L 265.363281 286.535156 L 267.8125 285.488281 L 267.113281 283.738281 L 269.5625 283.386719 L 269.914062 281.988281 C 268.164062 281.289062 266.414062 280.585938 264.664062 279.886719 L 264.664062 278.488281 L 262.914062 276.738281 L 261.515625 276.738281 L 259.765625 279.539062 L 256.265625 281.988281 L 253.117188 284.085938 L 251.714844 285.488281 L 249.964844 287.585938 L 247.515625 290.386719 L 243.316406 291.085938 L 241.917969 291.785156 L 241.21875 294.9375 L 238.417969 295.636719 L 235.96875 294.585938 L 233.867188 297.035156 L 233.519531 299.484375 L 233.867188 302.632812 L 235.617188 305.785156 L 237.367188 306.835938 L 238.066406 311.734375 L 240.867188 312.082031 L 243.316406 311.734375 L 244.714844 313.484375 L 248.914062 312.082031 L 250.664062 313.132812 L 253.117188 313.484375 L 254.515625 315.582031 L 258.363281 313.832031 L 258.714844 315.234375 L 260.113281 309.984375 L 260.113281 306.484375 L 263.613281 304.035156 Z M 239.117188 231.59375 L 240.515625 229.84375 L 239.816406 228.445312 L 237.71875 228.445312 L 233.867188 229.492188 L 232.117188 231.242188 L 232.117188 234.394531 L 234.917969 235.441406 L 238.066406 233.695312 Z M 272.011719 334.128906 L 268.863281 334.832031 L 273.414062 337.28125 L 274.8125 337.28125 L 275.164062 336.230469 L 273.761719 335.179688 Z M 319.257812 176.300781 L 321.007812 175.25 L 322.40625 176.652344 L 324.507812 174.199219 L 324.15625 172.453125 L 321.707031 171.402344 L 319.957031 173.5 L 317.855469 173.152344 L 315.757812 175.601562 L 315.757812 177.699219 L 318.207031 178.75 Z M 346.554688 310.332031 L 342.703125 309.632812 C 340.953125 308.582031 338.855469 307.882812 337.105469 307.183594 L 333.957031 307.183594 L 329.753906 309.285156 L 326.957031 313.132812 L 323.457031 311.035156 L 322.40625 305.433594 L 321.707031 304.035156 L 316.105469 302.632812 L 314.359375 303.683594 L 309.457031 304.382812 L 310.859375 306.132812 L 314.007812 306.835938 L 315.40625 308.933594 L 320.65625 308.933594 L 321.007812 309.984375 L 318.558594 309.984375 L 314.707031 311.382812 L 317.507812 313.132812 L 317.507812 314.53125 L 318.207031 315.933594 L 319.605469 315.582031 L 320.65625 313.484375 L 325.90625 316.632812 L 328.707031 316.984375 L 335.703125 320.132812 L 337.453125 323.28125 L 338.503906 327.132812 L 336.40625 328.179688 L 334.65625 330.980469 L 339.203125 330.980469 L 339.90625 329.929688 L 343.402344 330.632812 L 346.554688 333.429688 C 346.554688 325.730469 346.554688 318.03125 346.554688 310.332031 Z M 305.609375 311.035156 L 301.410156 311.035156 L 300.710938 313.132812 L 303.160156 313.132812 L 305.257812 312.785156 L 308.058594 313.132812 L 311.207031 314.53125 L 309.808594 311.734375 Z M 322.757812 321.53125 L 322.054688 322.933594 L 322.40625 325.730469 L 324.15625 323.28125 L 324.15625 321.53125 L 323.804688 320.480469 Z M 344.105469 141.304688 L 342.703125 144.105469 L 343.402344 149.355469 L 341.304688 154.953125 C 338.855469 157.054688 336.40625 159.152344 333.957031 161.253906 L 331.503906 159.152344 L 327.65625 166.851562 L 324.15625 165.800781 L 317.15625 167.203125 L 314.359375 170 L 310.859375 172.101562 L 309.109375 174.902344 L 305.609375 176.300781 L 307.007812 179.101562 L 309.109375 180.148438 L 308.410156 184 L 310.15625 185.75 L 312.609375 184 L 315.058594 177 L 311.558594 173.851562 L 315.757812 173.851562 L 319.957031 171.75 L 326.257812 170.703125 L 326.257812 173.851562 L 328.707031 175.601562 L 333.605469 170.703125 L 339.90625 170.351562 L 344.453125 168.25 L 346.203125 165.101562 L 345.152344 163.003906 L 346.554688 159.503906 L 346.554688 154.953125 L 349.703125 150.402344 L 349.703125 146.554688 L 347.601562 140.253906 Z M 361.953125 125.90625 L 359.5 128.007812 L 357.050781 126.957031 L 354.253906 125.207031 L 350.054688 119.957031 L 349.003906 123.808594 L 347.953125 130.457031 L 344.105469 130.804688 L 342.355469 134.65625 L 342.703125 139.554688 L 346.554688 139.554688 L 348.304688 134.304688 L 353.902344 137.457031 L 357.050781 132.554688 L 362.300781 131.15625 Z M 302.109375 303.683594 L 300.710938 301.933594 L 301.410156 299.835938 L 303.160156 300.183594 L 303.507812 297.035156 L 303.160156 295.636719 L 301.058594 295.285156 L 300.710938 293.1875 L 299.660156 294.585938 L 298.960938 297.386719 L 300.007812 301.933594 L 301.410156 304.035156 Z M 275.511719 255.742188 L 276.914062 257.492188 L 277.960938 254.339844 L 276.5625 252.941406 L 273.414062 252.941406 Z M 294.410156 313.832031 L 296.859375 314.53125 L 298.257812 313.484375 L 297.210938 312.433594 L 293.710938 312.433594 Z M 282.863281 262.390625 L 282.511719 264.488281 L 281.460938 265.539062 L 280.761719 266.589844 L 282.863281 269.039062 L 283.910156 267.988281 L 284.960938 265.890625 L 286.359375 264.839844 L 286.710938 261.339844 L 284.261719 264.839844 L 284.960938 262.390625 Z M 279.011719 258.890625 L 279.710938 260.640625 L 279.363281 262.390625 L 279.363281 264.140625 L 281.460938 263.089844 L 283.210938 261.691406 L 283.210938 260.289062 L 281.113281 260.289062 Z M 304.558594 168.601562 L 305.957031 166.152344 L 305.957031 161.253906 L 305.257812 158.453125 L 302.109375 153.203125 L 300.007812 151.105469 L 298.609375 150.402344 L 298.960938 150.054688 L 298.960938 147.953125 L 300.359375 146.554688 L 302.808594 145.855469 L 304.207031 144.453125 L 304.910156 143.753906 L 306.660156 142.703125 L 306.660156 139.207031 L 307.707031 137.457031 L 309.109375 135.707031 L 310.507812 136.054688 L 310.15625 135.355469 C 310.15625 134.65625 310.15625 133.605469 310.15625 132.90625 L 311.90625 132.90625 L 312.257812 127.308594 L 311.207031 123.109375 L 314.359375 121.359375 L 318.558594 122.40625 L 321.007812 117.507812 L 322.054688 111.910156 L 323.457031 110.160156 L 325.207031 105.261719 L 319.257812 106.660156 L 316.105469 108.757812 L 310.859375 108.757812 L 309.808594 103.511719 L 305.609375 99.660156 L 299.308594 97.910156 L 297.910156 92.660156 L 296.511719 89.160156 L 295.109375 86.710938 L 293.011719 80.761719 L 289.859375 78.664062 L 284.613281 76.914062 L 280.0625 76.914062 L 275.511719 77.964844 L 272.710938 80.761719 L 275.164062 82.511719 L 275.164062 85.664062 L 273.0625 87.410156 L 269.914062 93.363281 L 269.914062 95.8125 L 265.015625 99.3125 L 260.8125 97.210938 L 256.613281 97.5625 L 254.863281 95.8125 L 252.765625 95.109375 L 247.515625 98.960938 L 242.617188 100.011719 L 239.46875 101.410156 L 234.917969 100.359375 L 231.769531 100.359375 L 229.667969 97.5625 L 226.167969 94.761719 L 222.667969 94.0625 L 218.121094 94.761719 L 214.621094 95.8125 L 209.722656 93.359375 L 209.019531 89.511719 L 204.820312 88.113281 L 201.671875 87.410156 L 197.824219 84.960938 L 194.324219 90.910156 L 195.722656 94.0625 L 192.222656 97.910156 L 186.972656 96.511719 L 183.472656 96.160156 L 181.023438 93.710938 L 177.175781 93.710938 L 174.027344 91.960938 L 168.777344 94.410156 L 162.128906 98.960938 C 160.378906 99.3125 158.628906 99.660156 156.878906 100.359375 L 155.128906 96.859375 L 150.578125 97.5625 L 149.179688 95.8125 L 146.730469 94.761719 L 144.980469 91.613281 L 142.878906 90.5625 L 137.628906 91.960938 L 132.730469 88.8125 L 130.980469 91.613281 L 122.933594 76.914062 L 118.382812 72.363281 L 119.78125 70.613281 L 111.035156 76.214844 L 107.535156 76.5625 L 107.882812 73.414062 L 103.683594 71.3125 L 99.835938 72.714844 L 98.785156 66.414062 L 92.484375 65.015625 L 89.335938 67.464844 L 80.585938 69.5625 L 78.835938 70.964844 L 65.539062 73.0625 L 63.789062 75.511719 L 66.238281 79.714844 L 62.738281 81.113281 L 63.441406 82.863281 L 59.941406 85.664062 L 65.539062 89.511719 L 65.1875 91.960938 L 60.289062 91.613281 L 59.238281 93.363281 L 54.691406 90.5625 L 49.089844 90.5625 L 45.242188 93.011719 C 41.390625 90.910156 37.191406 88.8125 33.34375 86.710938 L 27.742188 86.710938 L 20.394531 93.011719 L 20.046875 97.210938 L 16.546875 94.0625 L 13.746094 100.011719 L 14.796875 101.058594 L 12.695312 105.261719 L 15.84375 108.757812 L 18.296875 108.757812 L 20.394531 112.257812 L 20.046875 115.058594 L 21.792969 115.757812 L 24.945312 114.707031 L 29.144531 112.609375 L 32.292969 114.007812 L 35.792969 113.660156 L 36.492188 116.808594 L 35.792969 121.707031 L 32.644531 121.007812 L 29.492188 121.707031 L 29.492188 125.207031 L 25.996094 124.855469 L 25.996094 126.605469 L 28.09375 128.007812 L 29.84375 132.554688 L 34.042969 134.304688 L 34.742188 136.054688 L 33.695312 137.105469 L 34.042969 138.503906 L 35.09375 141.65625 L 35.441406 138.15625 L 38.242188 137.105469 L 39.292969 139.90625 L 41.742188 142.703125 L 38.59375 144.105469 L 35.09375 143.054688 L 34.394531 146.90625 L 37.191406 146.90625 L 36.144531 150.054688 L 38.941406 151.453125 L 38.59375 156.003906 L 38.941406 159.503906 L 42.09375 158.804688 L 44.542969 156.003906 L 46.992188 156.003906 L 48.390625 155.304688 L 50.839844 155.652344 L 54.691406 157.753906 L 57.492188 158.101562 L 61.691406 161.953125 L 64.488281 161.953125 L 64.839844 165.800781 C 64.140625 168.601562 63.441406 171.402344 62.390625 174.199219 L 63.789062 174.902344 L 62.390625 177.351562 L 63.441406 180.851562 L 63.789062 183.648438 L 66.589844 184.351562 L 66.9375 187.148438 L 63.789062 191 L 65.539062 193.097656 L 66.9375 195.546875 L 70.4375 197.296875 L 70.4375 200.796875 L 72.1875 201.496094 L 72.539062 203.246094 L 67.289062 204.996094 L 65.890625 209.546875 L 70.789062 208.847656 L 76.386719 208.847656 L 83.035156 208.148438 L 85.835938 210.945312 L 86.886719 213.746094 L 89.335938 214.796875 L 93.535156 217.945312 L 94.585938 219.34375 L 92.835938 220.746094 L 97.386719 225.292969 L 99.835938 225.644531 L 105.085938 223.542969 L 105.785156 227.042969 L 105.785156 231.59375 C 106.835938 235.441406 107.535156 239.644531 108.234375 243.492188 L 111.382812 248.390625 L 112.082031 250.839844 L 113.132812 255.390625 L 114.882812 258.890625 L 116.28125 260.640625 C 117.332031 263.441406 118.382812 266.238281 119.433594 269.390625 L 122.933594 272.886719 L 124.332031 271.839844 L 125.382812 269.390625 L 128.53125 268.339844 L 127.480469 267.289062 L 129.230469 264.488281 L 130.980469 264.488281 L 130.980469 258.539062 L 132.378906 255.039062 L 132.03125 251.890625 L 131.332031 246.992188 L 132.378906 244.191406 L 134.128906 243.84375 L 137.28125 242.441406 L 139.03125 241.390625 L 139.03125 239.644531 L 142.53125 237.191406 L 145.328125 234.742188 L 149.179688 230.195312 L 154.429688 227.746094 L 156.179688 225.644531 L 155.828125 222.84375 L 160.027344 222.144531 L 162.476562 222.144531 L 162.828125 220.746094 L 164.226562 221.09375 L 165.277344 221.445312 L 165.625 220.746094 L 167.027344 221.445312 L 168.078125 219.34375 L 167.726562 217.59375 L 170.875 217.59375 L 172.277344 219.695312 L 173.675781 222.496094 L 174.027344 224.59375 L 175.074219 226.695312 L 177.175781 229.492188 L 179.273438 229.84375 L 178.925781 231.242188 L 181.722656 235.441406 L 182.425781 238.941406 L 181.375 243.492188 L 183.472656 244.191406 L 185.574219 244.542969 L 189.421875 242.09375 L 191.875 240.34375 L 193.273438 243.492188 L 193.972656 248.042969 L 195.023438 252.242188 L 196.421875 253.992188 L 196.074219 257.839844 L 197.121094 259.941406 L 196.074219 262.738281 L 196.421875 265.539062 L 195.371094 269.039062 L 195.371094 271.488281 L 196.074219 273.589844 L 196.773438 271.488281 C 198.171875 272.539062 199.222656 273.9375 200.273438 275.339844 L 200.972656 277.089844 L 202.371094 278.488281 L 203.070312 279.886719 L 202.722656 282.335938 L 204.121094 284.4375 L 204.472656 287.238281 L 206.570312 289.6875 L 206.921875 291.4375 L 211.121094 294.234375 L 214.621094 296.683594 L 217.070312 296.335938 L 217.070312 295.285156 L 215.671875 292.136719 L 214.269531 291.085938 L 213.921875 288.988281 L 213.570312 287.9375 L 213.921875 286.1875 L 213.570312 283.738281 L 212.171875 281.636719 L 210.070312 279.539062 L 209.371094 279.1875 L 207.621094 277.4375 L 205.519531 277.089844 L 203.421875 274.988281 L 202.722656 271.839844 L 201.320312 268.6875 L 198.871094 268.6875 L 198.523438 266.238281 C 199.570312 263.441406 200.621094 260.640625 201.671875 257.839844 L 202.023438 253.992188 L 205.171875 253.992188 L 204.820312 256.789062 L 207.972656 256.789062 L 211.121094 258.539062 L 212.871094 262.390625 L 214.269531 264.140625 L 217.070312 264.488281 L 219.519531 266.589844 L 218.46875 269.039062 L 219.871094 271.488281 L 224.417969 267.988281 L 227.21875 264.839844 L 231.417969 262.390625 L 234.21875 259.941406 L 234.566406 253.640625 L 233.167969 246.640625 L 231.066406 243.492188 L 227.917969 241.390625 C 225.820312 238.59375 224.070312 235.441406 221.96875 232.644531 L 222.667969 230.195312 L 225.46875 226.695312 L 230.019531 223.542969 L 231.769531 222.84375 L 236.667969 223.894531 L 235.96875 225.292969 L 237.015625 228.09375 L 239.117188 227.746094 L 240.167969 223.894531 L 244.015625 223.195312 L 248.914062 221.445312 L 251.015625 219.695312 L 252.066406 221.09375 L 254.164062 219.34375 L 258.015625 218.996094 C 261.515625 216.894531 264.664062 214.445312 267.8125 212.347656 L 270.964844 207.796875 C 272.714844 204.648438 274.460938 201.496094 276.5625 198.347656 L 278.664062 197.996094 L 279.710938 194.847656 L 280.410156 191.699219 L 278.3125 190.300781 L 277.613281 188.199219 L 279.710938 187.148438 L 279.710938 184 L 277.261719 180.851562 L 275.164062 177 L 273.761719 172.800781 L 269.914062 170.351562 L 271.664062 167.203125 L 275.164062 165.101562 L 276.914062 162.652344 L 281.8125 161.253906 L 281.113281 158.804688 L 278.664062 158.804688 L 275.164062 156.351562 L 271.3125 159.503906 L 268.511719 158.101562 L 268.511719 156.003906 L 265.714844 155.304688 L 263.613281 152.503906 L 265.363281 150.402344 L 268.863281 150.054688 L 270.964844 147.253906 L 274.8125 144.105469 L 277.960938 142.355469 L 279.710938 144.804688 L 276.914062 147.953125 L 277.613281 149.703125 L 275.863281 151.804688 L 279.710938 150.402344 L 282.160156 148.304688 L 287.0625 146.90625 L 288.8125 148.304688 L 290.910156 148.652344 L 291.261719 149.355469 L 290.210938 151.804688 L 290.5625 152.503906 L 289.859375 153.203125 L 289.160156 155.304688 L 290.210938 156.003906 L 291.261719 156.351562 L 291.261719 157.054688 L 292.308594 156.703125 L 292.660156 156.003906 L 294.410156 156.703125 L 296.859375 160.554688 L 294.410156 161.253906 L 295.808594 165.800781 L 295.109375 168.953125 L 295.460938 171.402344 L 298.609375 171.050781 L 301.410156 169.300781 Z M 295.808594 330.980469 L 293.359375 330.980469 L 290.210938 331.679688 L 289.859375 332.378906 L 286.359375 333.78125 L 284.960938 335.878906 L 284.613281 336.929688 L 284.960938 337.28125 L 288.109375 336.582031 L 290.5625 333.78125 C 292.660156 333.082031 295.109375 332.03125 297.210938 331.332031 L 298.609375 330.28125 L 297.210938 329.929688 Z M 295.808594 330.980469 " fill-opacity="1" fill-rule="nonzero"/></g></svg>