<svg xmlns="http://www.w3.org/2000/svg" xmlns:xlink="http://www.w3.org/1999/xlink" width="500" zoomAndPan="magnify" viewBox="0 0 375 374.999991" height="500" preserveAspectRatio="xMidYMid meet" version="1.0"><defs><clipPath id="d82eefbc8a"><path d="M 10.234375 58.46875 L 354.585938 58.46875 L 354.585938 316.46875 L 10.234375 316.46875 Z M 10.234375 58.46875 " clip-rule="nonzero"/></clipPath></defs><path fill="#ff2e63" d="M 256.792969 246.351562 C 252.417969 250.164062 250.457031 246.417969 247.992188 246.34375 C 248.109375 245.527344 247.835938 244.707031 246.527344 243.878906 C 246.273438 244.300781 246.21875 245.121094 245.429688 245.714844 C 245.476562 245.484375 245.171875 244.253906 244.078125 244.523438 L 244.078125 243.910156 L 243.40625 243.910156 C 244.191406 247.613281 238.863281 247.082031 238.277344 250.398438 C 240.667969 248.09375 241.742188 251.925781 243.40625 250.429688 C 243.765625 252.046875 243.953125 253.425781 243.40625 255.457031 C 250.875 256.769531 246.097656 253.761719 251.027344 251.65625 C 251.03125 252.007812 250.960938 252.351562 251.839844 252.925781 C 251.636719 252.101562 254.019531 247.335938 254.9375 249.710938 C 256.800781 249.523438 259.996094 250.371094 258.214844 247.148438 L 258.828125 247.148438 C 258.90625 246.101562 258.84375 246.359375 256.792969 246.351562 " fill-opacity="1" fill-rule="nonzero"/><path fill="#ff2e63" d="M 183.996094 165.460938 C 181.757812 166.410156 184.589844 165.304688 184.601562 167.480469 C 184.703125 167.25 185.597656 167.042969 185.40625 166.113281 L 187.277344 166.113281 C 187.167969 165.613281 187.667969 164.921875 188.667969 164.136719 C 187.71875 163.296875 186.503906 163.738281 185.371094 164.765625 L 184.664062 163.453125 C 184.300781 163.664062 183.796875 164.453125 183.996094 165.460938 " fill-opacity="1" fill-rule="nonzero"/><path fill="#ff2e63" d="M 186.648438 162.269531 C 188.34375 161.527344 185.28125 159.578125 184.601562 161.632812 L 185.90625 161.632812 L 185.90625 162.957031 L 186.648438 162.269531 " fill-opacity="1" fill-rule="nonzero"/><path fill="#ff2e63" d="M 250.410156 80.011719 C 254.59375 83.136719 254.078125 77.5625 252.839844 76.25 C 248.800781 74.023438 248.421875 78.15625 250.410156 80.011719 " fill-opacity="1" fill-rule="nonzero"/><g clip-path="url(#d82eefbc8a)"><path fill="#ff2e63" d="M 244.765625 116.992188 C 244.078125 116.960938 242.800781 117.242188 241.703125 116.371094 C 243.460938 116.089844 245.25 114.992188 245.875 117.539062 Z M 131.296875 187.710938 C 131.410156 187.71875 131.332031 187.648438 131.542969 187.929688 Z M 130.492188 196.398438 C 130.261719 196.03125 130.203125 195.375 129.515625 194.871094 C 129.804688 195.097656 130.738281 195.050781 130.492188 196.398438 Z M 120.761719 197.914062 L 120.390625 197.546875 L 120.773438 197.898438 Z M 354.550781 167.992188 C 353 162.476562 347.035156 170.246094 343.5625 164.464844 C 335.835938 168.121094 334.910156 158.308594 333.589844 151.53125 C 333.425781 150.675781 332.277344 150.492188 331.851562 151.253906 C 327.765625 158.59375 319.3125 155.964844 324.113281 151.328125 C 329.125 151.90625 328.269531 149.304688 328.558594 146.125 C 323.601562 140.945312 321.382812 152.667969 316.957031 142.484375 C 321.3125 141.105469 313.421875 134.917969 318.289062 134.234375 C 318.03125 133.214844 317.265625 130.578125 317.585938 129.039062 C 315.546875 129.984375 314.945312 122.214844 312.429688 123.902344 C 307.28125 112.304688 300.714844 100.257812 294.441406 91.777344 C 293.785156 90.886719 293.6875 89.695312 294.207031 88.71875 C 296.851562 83.726562 295.996094 78.238281 295.714844 73.992188 C 300.28125 69.046875 294.640625 65.652344 295.917969 63.921875 C 293.941406 63.472656 294.6875 62.847656 292.691406 64.574219 C 292.617188 62.773438 289.796875 63.066406 290.140625 60.878906 C 280.414062 62.332031 291.59375 55.949219 277.15625 59.632812 C 276.3125 59.847656 275.851562 60.699219 276.007812 61.550781 C 276.117188 62.160156 275.976562 62.839844 275.273438 63.371094 C 276.507812 64.535156 277.136719 65.90625 279.101562 66.589844 C 278.371094 67.050781 277.398438 68.429688 277.183594 69.820312 C 279.800781 70.160156 276.8125 72.753906 274.769531 70.453125 C 275.628906 69.902344 275.226562 68.773438 274.082031 67.773438 C 271.316406 70.78125 274.589844 74.550781 268.898438 73.578125 C 269.066406 76.140625 267.375 77.359375 267.078125 79.859375 C 266.824219 79.621094 266.492188 79.359375 265.804688 78.589844 L 264.609375 80.453125 C 264.328125 78.542969 266.011719 75.777344 262.625 74.792969 L 261.875 76.773438 L 262.589844 76.773438 L 262.589844 77.96875 L 262.003906 77.96875 L 262.003906 77.320312 C 260.636719 77.167969 261.296875 78.777344 262.542969 80.582031 C 262.152344 80.617188 260.433594 80.765625 260.785156 79.164062 C 259.785156 80.84375 254.609375 85.019531 257.4375 86.375 C 256.847656 86.664062 256.195312 88.347656 254.867188 88.242188 C 262.488281 98.671875 236.511719 93.738281 249.851562 88.277344 C 245.183594 84.738281 237.183594 82.964844 243.949219 91.433594 C 243.371094 92.125 243.351562 94.191406 243.40625 95.347656 C 249.933594 94.859375 245.128906 100.183594 248.46875 102.328125 C 247.207031 102.976562 246.105469 102.507812 244.117188 102.941406 C 244.441406 102.652344 244.429688 101.492188 245.507812 101.742188 L 244.023438 100.308594 C 243.734375 100.921875 243.074219 101.089844 242.328125 100.949219 C 241.347656 100.769531 240.355469 101.167969 239.898438 102.050781 C 232.757812 115.824219 237.4375 105.121094 241.5 116.234375 C 240.386719 115.390625 235.070312 116.871094 233.25 114.382812 C 232.042969 114.464844 230.066406 114.402344 228.707031 113.75 C 227.675781 116.929688 228.75 117.175781 231.984375 118.375 C 235.558594 116.210938 235.207031 128 226.835938 119.390625 L 226.183594 120.699219 C 225.722656 119.5625 223.191406 120.304688 223.730469 118.25 C 218.953125 112.621094 225.011719 109.375 216.058594 108.046875 L 216.71875 108.046875 L 216.71875 107.335938 L 215.414062 107.335938 L 215.414062 106.683594 C 214.105469 107.132812 211.839844 105.1875 213.589844 103.597656 C 213.25 103.546875 212.789062 103.875 212.261719 103.046875 C 213.546875 101.980469 216.207031 105.96875 216.71875 104.332031 C 218.757812 105.453125 226.085938 107.734375 226.851562 105.503906 C 230.480469 110.207031 239.714844 101.742188 237.078125 96.496094 L 236.425781 96.496094 L 236.425781 95.160156 C 235.835938 96.265625 234.914062 95.472656 235.160156 93.9375 C 232.652344 93.667969 230.835938 93 227.402344 91.296875 L 227.402344 91.902344 C 223.347656 88.089844 216.382812 88.582031 211.5 88.898438 C 211.570312 88.890625 211.148438 86.863281 210.242188 88.210938 C 205.992188 82.304688 209.160156 89.277344 205.097656 85.671875 C 205.226562 89.113281 204.699219 87.191406 202.210938 86.976562 L 202.699219 84.953125 C 202.503906 85.253906 201.394531 85.046875 200.664062 85.105469 C 201.140625 84.8125 201.816406 83.410156 200.664062 82.683594 C 200.859375 83.324219 202.90625 80.675781 201.238281 80.625 C 201.4375 79.542969 200.253906 79.902344 198.667969 80.59375 C 198.921875 78.453125 195.789062 78.054688 194.765625 81.238281 C 195.085938 73.441406 191.808594 78.261719 191.429688 81.859375 C 190.714844 81.136719 190.097656 79.65625 190.277344 78.054688 L 189.699219 78.054688 C 192.113281 76.042969 183.539062 77.660156 187.484375 79.363281 C 186.234375 80.425781 184.597656 77.882812 184.34375 81.277344 L 183.613281 81.277344 L 184.320312 81.984375 L 183.105469 83.160156 L 182.449219 81.894531 C 180.992188 82.78125 182.933594 85.152344 179.816406 83.847656 L 179.816406 84.429688 C 177.941406 82.53125 175.980469 86.582031 177.253906 88.9375 C 176.726562 88.210938 175.199219 86.667969 174.734375 88.953125 L 174.058594 87.636719 C 172.851562 88.441406 173.621094 89.894531 173.996094 91.46875 C 172.144531 87.269531 172.460938 95.21875 171.527344 90.253906 C 170.855469 90.5 170.628906 91.773438 170.773438 92.84375 C 168.605469 91.863281 168.714844 100.28125 166.351562 96.601562 C 165.015625 97.410156 166.117188 99.449219 165.09375 101.011719 L 165.09375 97.90625 C 164.523438 99.132812 163.480469 98.066406 162.300781 99.394531 C 162.710938 99.484375 163.792969 99.128906 163.683594 100.511719 L 163.085938 99.867188 C 161.023438 100.695312 159.460938 100.1875 163.03125 102.5 C 162.355469 101.828125 158.742188 104.054688 161.726562 103.910156 C 161.78125 106.265625 157.367188 105.378906 155.914062 108.296875 C 156.785156 108.835938 156.453125 109.457031 155.523438 109.605469 C 155.179688 109.660156 155.019531 110.058594 155.234375 110.332031 C 155.644531 110.859375 156.136719 111.335938 156.597656 110.425781 L 156.597656 111.507812 L 154.632812 111.507812 C 154.65625 111.832031 154.457031 112.242188 155.261719 112.828125 C 153.988281 113.785156 152.898438 113.890625 152.730469 116.613281 C 152.644531 116.5 152.472656 116.398438 152.339844 116.210938 C 152.144531 115.933594 151.71875 116 151.566406 116.300781 C 151.40625 116.617188 151.296875 116.984375 151.371094 117.394531 C 152.449219 116.992188 152.496094 119.507812 150.765625 119.246094 C 150.765625 119.824219 151.042969 121.386719 149.460938 121.164062 L 149.460938 121.882812 C 150.933594 122.007812 149.804688 123.96875 148.539062 123.066406 C 147.917969 122.617188 147.085938 122.480469 146.441406 122.890625 C 146.042969 123.140625 145.554688 123.28125 144.9375 123.121094 C 145.082031 124.203125 144.175781 126.636719 142.367188 126.292969 L 142.367188 128.144531 C 141.761719 127.382812 141.546875 127.679688 140.460938 128.878906 C 139.648438 127.632812 139.65625 128.925781 137.847656 129.515625 L 137.847656 130.75 C 137.617188 130.582031 137.429688 130.027344 136.472656 130.171875 C 137.304688 130.476562 137.558594 132.566406 135.945312 130.800781 C 135.597656 132.125 132.027344 130.207031 133.90625 133.382812 C 128.691406 132.449219 132.160156 133.304688 128.210938 135.839844 L 128.210938 134.695312 C 127.863281 134.710938 127.515625 134.542969 126.890625 135.324219 C 126.257812 133.941406 123.207031 135.515625 126.234375 136.707031 C 126.238281 138.042969 122.125 136.933594 124.28125 139.796875 L 122.976562 139.183594 C 122.066406 141.207031 127.289062 143.261719 122.976562 141.699219 C 122.941406 142.65625 122.945312 144.039062 124.253906 145.011719 L 123.632812 145.589844 C 122.988281 144.226562 121.582031 146.003906 123.417969 146.914062 C 120.972656 146.542969 123.523438 149.960938 126.027344 148.453125 C 125.140625 149.332031 124.855469 149.542969 123.554688 150.839844 L 124.855469 152.09375 C 123.011719 151.804688 119.238281 152.953125 121.074219 156.097656 C 121.367188 155.054688 124.222656 152.664062 123.578125 155.957031 C 122.589844 155.875 123.261719 156.316406 122.425781 157.761719 L 122.425781 157.148438 C 120.570312 158.796875 122.039062 162.199219 124.882812 162.429688 L 123.539062 163.683594 C 123.921875 163.644531 124.949219 165.097656 125.535156 163.8125 L 125.535156 165.027344 C 126.894531 164.933594 128.566406 165.386719 130.101562 164.445312 L 130.101562 165.0625 C 139.339844 156.007812 136.203125 163.230469 139.6875 159.570312 C 140.03125 155.144531 143.347656 151.738281 142.265625 155.171875 C 142.054688 155.851562 142.316406 156.605469 142.917969 156.980469 C 143.359375 157.261719 143.824219 157.625 144.210938 157.890625 C 144.136719 158.023438 143.777344 158.214844 143 159.238281 L 143.015625 159.238281 L 143.015625 165.027344 L 143.671875 165.027344 L 143.671875 166.421875 C 145.910156 164.15625 143.019531 170.894531 144.914062 172.0625 C 144.25 172.378906 143.46875 174.765625 145.550781 174.6875 C 147.664062 179.617188 142.699219 187.195312 152.175781 186.25 C 152.285156 181.75 151.265625 183.824219 154.804688 181.621094 L 154.164062 181.621094 C 155.765625 179.460938 157.503906 182.363281 159.914062 181.726562 C 159.625 179.089844 161.621094 177.179688 162.488281 174.582031 L 161.867188 174.582031 C 162.292969 173.832031 162.152344 173.558594 163.160156 172.71875 C 160.957031 171.050781 165.402344 168.214844 163.15625 165.652344 L 164.527344 164.964844 L 162.527344 164.335938 C 163.4375 163.527344 166.804688 165.277344 166.351562 161.804688 C 166.976562 161.886719 167.46875 161.445312 168.269531 162.496094 C 168.535156 161.804688 168.957031 161.039062 169.734375 160.460938 C 170.132812 160.164062 170.164062 159.601562 169.792969 159.273438 C 168.644531 158.25 173.246094 157.542969 171.527344 153.96875 L 170.273438 154.582031 C 170.796875 153.230469 168.558594 152.628906 168.96875 150.757812 C 166.160156 152.726562 166.785156 148.722656 165.160156 147.015625 C 166.59375 147.445312 166.414062 144.285156 166.351562 143.144531 L 167.082031 143.144531 C 165.660156 142.382812 167.933594 140.371094 167.652344 138.523438 C 161.757812 138.03125 169.421875 136.652344 171.566406 135.414062 C 169.757812 134.410156 173.285156 133.925781 171.601562 132.835938 C 172.421875 132.972656 173.03125 132.828125 173.445312 131.617188 C 173.753906 132.273438 174.4375 132.21875 175.4375 131.539062 C 175.945312 130.101562 177.367188 127.488281 179.160156 124.886719 C 179.550781 124.320312 179.621094 123.601562 179.402344 122.945312 C 178.738281 120.949219 179.699219 116.757812 181.886719 117.394531 C 181.535156 111.109375 182.3125 116.554688 184.394531 113.550781 C 188.375 115.652344 190.777344 113.121094 191.429688 120.511719 C 187.714844 119.863281 183.882812 134.605469 180.46875 132.125 C 178.433594 136.726562 179.695312 138.121094 180.46875 142.675781 C 180.953125 147.433594 177.207031 146.304688 180.519531 150.195312 C 186.730469 149.195312 186.429688 159.117188 190.816406 152.839844 L 191.46875 154.144531 C 192.914062 151.566406 197.40625 152.761719 197.949219 149.625 L 198.605469 150.933594 C 199.023438 150.0625 200.8125 149.902344 201.203125 148.355469 C 202.234375 149.507812 204.535156 149.175781 205.097656 146.996094 C 204.605469 149.574219 208.539062 146.730469 208.035156 148.078125 C 206.472656 153.269531 215.234375 149.035156 214.65625 152.65625 L 209.488281 152.65625 L 209.488281 153.3125 L 208.980469 153.3125 L 208.980469 152.589844 C 208.210938 152.445312 208.464844 155.507812 207.828125 155.109375 C 207.402344 154.84375 206.84375 154.957031 206.683594 155.433594 C 205.628906 158.613281 203.925781 156.269531 200.105469 157.105469 C 199.621094 155.332031 194.921875 157.613281 192.300781 157.136719 L 192.300781 158.441406 C 191.183594 157.3125 187.910156 161.347656 191.085938 161.105469 L 191.085938 162.179688 C 189.023438 164.164062 191.757812 167.183594 193.710938 165.09375 C 193.554688 166.722656 193.136719 175.160156 191.65625 175.015625 C 183.476562 165.351562 182.496094 169.605469 180.109375 179.582031 L 180.125 179.578125 C 179.765625 181.851562 180.890625 184.171875 180.773438 186.648438 C 182.460938 186.265625 182.164062 187.929688 184.269531 188.515625 C 182.296875 189.832031 180.402344 185.917969 179.554688 188.292969 L 180.175781 188.292969 C 179.921875 189.609375 177.117188 191.316406 177.753906 188.148438 C 176.253906 188.777344 175.828125 189.972656 174.507812 191.089844 C 177.042969 191.609375 173.726562 192.609375 174.425781 194.625 L 172.574219 194.625 L 172.574219 193.976562 C 166.195312 196.648438 172.914062 186.496094 161.511719 192.691406 L 160.859375 191.988281 C 160.785156 193.09375 157.546875 193.6875 156.941406 195.277344 C 152.042969 193.539062 152.0625 202.128906 150.652344 197.242188 L 148.695312 197.242188 L 148.695312 194.625 C 143.421875 191.394531 142.964844 195.199219 140.199219 193.890625 L 140.199219 194.625 C 139.144531 194.570312 137.773438 194.894531 136.550781 194.078125 L 137.082031 194.078125 L 137.082031 193.472656 L 137.695312 193.472656 L 137.695312 192.015625 C 137.175781 192.132812 136.390625 191.617188 135.734375 192.675781 C 135.46875 191.972656 135.132812 191.132812 133.820312 191.414062 L 133.820312 190.757812 C 133.140625 190.835938 131.539062 190.929688 133.230469 189.507812 C 133.496094 189.472656 130.40625 187.847656 132.800781 187.730469 C 132.5625 187.492188 132.1875 187.097656 131.410156 186.371094 C 131.644531 186.210938 131.851562 185.6875 132.800781 185.820312 C 132.902344 185.867188 131.285156 184.359375 132.726562 184.554688 C 133.378906 183.3125 137.011719 179.21875 137.148438 178.722656 C 137.535156 181.046875 140.074219 176.207031 136.601562 176.710938 L 136.601562 176.058594 C 135.535156 176.503906 135.808594 174.570312 137.332031 174.859375 C 137.152344 174.574219 136.410156 174.4375 136.601562 173.453125 L 135.238281 173.453125 C 135.800781 174.972656 131.335938 173.425781 133.285156 175.984375 C 133.042969 175.832031 132.757812 174.988281 132.074219 175.984375 C 132.40625 172.292969 130.039062 178.148438 128.863281 174.753906 C 126.5 174.695312 128.304688 180.480469 126.78125 181.894531 C 129.542969 183.546875 129.453125 189.636719 127.28125 191.515625 L 127.882812 191.515625 C 127.746094 192.367188 127.871094 193.03125 129.152344 193.433594 C 129 193.667969 128.1875 193.933594 129.125 194.625 L 126.628906 194.625 C 126.636719 196.300781 126.847656 196.621094 125.976562 198.300781 C 125.734375 198.011719 125.25 196.960938 125.429688 195.929688 L 124.671875 195.929688 C 124.929688 196.886719 123.667969 196.824219 124.808594 195.3125 C 124.085938 194.523438 121.382812 194.578125 120.144531 194.625 C 119.277344 195.773438 120.929688 197.4375 118.898438 197.933594 C 119.109375 194.804688 118.984375 194.65625 115.683594 196.648438 L 115.683594 195.289062 C 114.953125 196.699219 111.34375 195.558594 111.660156 198.285156 C 112.730469 203.636719 107.132812 203.484375 109.921875 200.503906 L 109.28125 200.503906 C 110.484375 199.945312 111.234375 197.554688 108.589844 197.933594 L 108.589844 197.382812 C 107.867188 197.636719 108.394531 201.445312 106.488281 201.808594 C 106.714844 202.632812 105.90625 203.378906 104.570312 203.113281 L 104.570312 204.519531 C 105.324219 204.410156 105.707031 204.78125 104.074219 205.636719 L 104.074219 204.417969 L 103.269531 204.417969 C 103.492188 206.058594 102.480469 206.863281 104.488281 207.59375 C 104.292969 207.535156 103.117188 207.84375 103.355469 208.847656 C 101.328125 209.109375 100.070312 208.441406 99.582031 206.890625 C 99.226562 206.914062 98.84375 206.722656 98.226562 207.566406 L 97.523438 206.8125 C 97.703125 207.339844 97.324219 207.894531 96.324219 208.1875 C 87.730469 206.488281 95.464844 215.214844 83.300781 215.121094 L 83.300781 215.914062 C 83.980469 215.882812 85 216.132812 85.796875 217.074219 L 85.21875 217.074219 L 85.21875 217.730469 C 84.585938 217.03125 82.601562 217.011719 81.449219 217.074219 L 81.449219 216.421875 C 80.1875 216.636719 78.984375 215.921875 77.476562 215.085938 L 77.476562 215.777344 L 76.308594 215.160156 C 77.769531 214.273438 75.464844 214.425781 77.007812 212.597656 C 69.304688 210.066406 77.988281 222.082031 71.203125 219.03125 L 71.816406 218.332031 C 70.808594 218.113281 69.527344 218.925781 68.425781 217.703125 L 68.425781 218.332031 L 67.273438 218.332031 L 67.273438 216.421875 C 66.496094 216.265625 65.304688 217.035156 66.5625 215.207031 C 65.023438 215.4375 64.695312 215.875 62.746094 216.421875 C 62.890625 215.191406 61.480469 216.320312 60.089844 215.09375 C 59.898438 215.722656 58.496094 215.957031 57.464844 215.8125 L 57.464844 216.527344 L 59.332031 216.527344 L 59.332031 217.765625 L 58.765625 217.765625 C 58.859375 218.695312 57.9375 217.949219 56.746094 219.136719 C 57.730469 218.085938 58.910156 222.195312 58.871094 220.429688 L 60.140625 221.078125 C 60.097656 219.273438 60.96875 222.09375 62.640625 222.3125 L 62.640625 222.964844 L 63.246094 222.964844 L 63.246094 224.265625 L 65.785156 224.265625 L 65.085938 224.917969 C 66.113281 224.683594 66.816406 225.523438 65.835938 226.835938 C 66.109375 226.765625 67.453125 226.941406 67.171875 228.140625 C 67.121094 228.738281 66.757812 236.03125 70.382812 234.601562 C 70.3125 235 70.722656 235.835938 69.65625 236.484375 L 70.3125 236.484375 C 69.480469 237.382812 69.761719 238.742188 69.078125 240.359375 L 69.730469 240.359375 C 69.589844 241.402344 70.757812 243.097656 70.382812 244.667969 C 69.703125 243.484375 69.140625 241.992188 68.53125 240.1875 C 66.21875 242.050781 69.035156 246.886719 65.863281 246.652344 C 63.921875 254.648438 58.289062 255.507812 52.570312 250.480469 C 46.066406 248.773438 32.582031 244.277344 33.566406 241.445312 C 32.800781 241.683594 31.882812 242.792969 30.851562 241.40625 L 30.851562 242.085938 L 28.859375 242.085938 C 29.667969 242.53125 29.441406 243.125 28.382812 243.972656 C 28.609375 242.558594 26.710938 243.203125 25.75 242.046875 L 25.097656 243.355469 C 24.667969 242.558594 22.300781 243.355469 23.753906 245.472656 L 24.410156 244.863281 C 24.46875 245.113281 24.179688 246.269531 23.101562 246 L 23.101562 246.671875 L 23.859375 246.671875 C 24.164062 245.308594 26 246.316406 23.679688 248.628906 C 26.011719 249.15625 21.894531 249.234375 22.535156 251.1875 C 20.632812 264.476562 12.199219 265.808594 11.621094 271.71875 C 19.402344 272.65625 5.207031 283.21875 12.273438 283.945312 C 13.195312 283.019531 15.332031 286.539062 16.753906 285.332031 L 16.753906 285.90625 C 18.816406 284.285156 25.078125 288.148438 23.027344 290.46875 L 24.375 290.46875 C 24.234375 290.894531 23.640625 291.417969 23.753906 292.320312 L 22.371094 292.320312 C 23.089844 294.199219 24.371094 294.796875 25.75 296.941406 C 31.429688 290.113281 43.570312 298.816406 47.582031 296.8125 C 52.417969 290.34375 49.199219 298.355469 62.632812 287.847656 C 57.976562 282.695312 65.9375 277.957031 70.347656 275.53125 L 69.75 275.53125 L 69.75 275.027344 C 76.375 271.1875 85.824219 276.289062 85.34375 265.40625 C 83.921875 261.574219 90.78125 259.804688 94.261719 261.582031 L 94.261719 262.960938 C 94.796875 262.441406 95.667969 261.8125 96.871094 261.582031 L 96.871094 262.886719 L 98.136719 262.886719 L 98.136719 264.226562 L 98.839844 263.523438 C 104.585938 270.03125 103.554688 263.160156 106.632812 264.152344 L 106.632812 263.5 L 107.832031 263.5 L 107.832031 264.226562 C 110.113281 263.050781 116.066406 256.679688 118.070312 260.175781 C 118.421875 258.96875 119.835938 260.3125 120.683594 260.851562 C 120.617188 260.082031 120.8125 259.3125 122.464844 259.5 C 122.085938 259.820312 121.339844 260.582031 122.507812 261.40625 C 122.664062 271.09375 139.351562 286.222656 140.03125 283.96875 C 143.765625 287.59375 158.644531 299.734375 150.9375 301.238281 C 148.367188 309.9375 153.429688 306.714844 156.273438 301.292969 C 161.335938 300.363281 158.445312 295.605469 156.550781 294.988281 C 155.214844 294.113281 156.136719 293.441406 157.617188 290.96875 L 156.945312 290.96875 C 158.417969 288.480469 160.308594 291.664062 163.246094 291.074219 C 163.285156 299 176 290.25 152.378906 282.578125 C 159.800781 276.316406 143.527344 285.835938 141.386719 265.871094 C 135.800781 264.375 133.417969 262.613281 136.863281 256.828125 C 136.460938 256.910156 135.363281 256.765625 135.554688 255.570312 L 134.96875 255.570312 C 135.160156 255.4375 135.3125 254.832031 136.171875 254.976562 L 136.171875 253.710938 C 138.601562 254.90625 141.097656 250.671875 142.691406 253.78125 C 142.496094 251.339844 142.992188 253.28125 144.503906 251.917969 C 144.65625 253.359375 144.648438 253.964844 142.5625 255.007812 C 143.8125 256.054688 142.804688 258.085938 144.570312 259.625 C 147.367188 252.773438 150.015625 257.222656 149.019531 262.148438 L 150.324219 262.148438 L 150.324219 262.847656 C 151.007812 262.707031 151.339844 263.109375 152.214844 264 L 150.246094 264 C 155.175781 270.167969 170.816406 276.578125 170.378906 279.503906 L 171.644531 279.503906 L 171.644531 280.160156 L 173.054688 280.160156 L 173.054688 280.109375 C 173.035156 279.816406 174.421875 282.128906 172.988281 281.925781 C 173.136719 285.121094 172.558594 287.570312 172.335938 290.382812 L 172.988281 290.382812 L 172.988281 290.96875 L 172.335938 290.96875 C 171.746094 293.414062 175.359375 291.71875 176.175781 294.796875 L 176.09375 294.796875 C 176.453125 295.566406 176.949219 297.214844 178.644531 296.816406 C 178.816406 297.613281 178.125 298.617188 179.398438 299.449219 C 179.242188 299.1875 182.554688 297.613281 181.957031 299.9375 C 178.0625 299.324219 179.128906 304.273438 183.828125 302.648438 L 183.828125 303.28125 C 185.421875 302.492188 187.542969 301.933594 189.148438 303.929688 C 189.21875 301.820312 191.367188 304.625 192.835938 305.136719 C 189.648438 308.148438 191.15625 303.238281 188.449219 305.035156 L 188.449219 304.453125 C 174.347656 305.402344 187.730469 307.699219 183.800781 311.601562 C 184.964844 313.820312 186.03125 317.792969 187.09375 312.277344 C 188.203125 314.59375 190.257812 319.765625 190.914062 313.640625 L 190.914062 314.867188 L 191.5625 314.867188 L 191.5625 316.132812 L 194.976562 316.132812 C 194.960938 314.785156 192.5 314.453125 192.972656 312.152344 C 187.015625 306.417969 196.175781 313.867188 196.234375 308.242188 C 191.820312 311.425781 193.925781 302.96875 198.191406 307.8125 C 199.46875 298.507812 187.351562 303.25 191.667969 298.015625 C 187.859375 296.714844 194.257812 294.320312 193.570312 298.121094 C 194.210938 298.34375 194.558594 297.6875 195.011719 296.714844 C 191.882812 296.371094 186.390625 286.9375 191.570312 288.144531 C 192.054688 290.703125 193.5 292.617188 196.234375 293.628906 C 196.5625 292.167969 193.75 292.714844 194.277344 290.457031 C 195.085938 291.324219 196.375 292.722656 198.191406 293.007812 L 198.191406 292.234375 C 197.117188 292.480469 197.332031 291.234375 196.300781 290.382812 L 197.394531 290.382812 C 196.96875 292.191406 198.59375 291.902344 200.144531 290.816406 C 200.417969 290.625 200.332031 290.191406 200.003906 290.113281 C 198.539062 289.769531 196.546875 288.992188 196.234375 287.160156 C 201.390625 288.308594 198.476562 284.320312 200.644531 285.886719 C 200.804688 286.710938 204.289062 286.578125 202.789062 285.25 C 206.671875 284.644531 209.507812 288.550781 212.183594 286.675781 C 212.523438 287.40625 211.753906 287.832031 211.007812 288.421875 C 210.625 288.71875 210.839844 289.355469 211.320312 289.347656 C 214.097656 289.308594 216.34375 285.164062 219.6875 283.566406 C 221.5 282.722656 224.609375 284.617188 224.625 281.921875 C 224.628906 281.601562 224.410156 281.320312 224.101562 281.246094 C 221.617188 280.644531 218.363281 279.191406 218.511719 276.042969 C 218.519531 275.828125 218.382812 275.640625 218.171875 275.617188 C 217.691406 275.5625 217.082031 275.28125 217.246094 274.359375 C 216.757812 274.476562 215.917969 274 215.328125 274.929688 C 215.441406 274.488281 214.796875 272.222656 216.59375 272.546875 C 216.582031 272.15625 216.410156 271.835938 217.265625 271.1875 C 217.3125 271.511719 215.789062 269.160156 217.246094 269.332031 L 217.246094 266.761719 C 223.398438 268.019531 217.855469 261.203125 221.40625 258.832031 C 218.148438 259.964844 222.148438 252.796875 221.925781 257.671875 C 222.3125 257.734375 223.429688 257.539062 223.289062 256.367188 C 224.816406 257.214844 225.082031 250.195312 224.050781 253.34375 C 223.601562 252.667969 221.082031 249.136719 223.625 249.058594 L 223.625 249.785156 C 226.65625 247.949219 229.953125 248.730469 224.984375 245.316406 L 225.492188 245.316406 L 225.492188 245.398438 C 231.398438 245.542969 224.136719 244.367188 233.148438 241.445312 L 233.148438 242.007812 L 233.941406 242.007812 L 233.941406 240.476562 C 233.941406 240.097656 234.453125 239.976562 234.625 240.316406 C 234.972656 241.011719 235.359375 241.828125 235.71875 242.605469 C 231.199219 244.902344 239.089844 246.621094 241.527344 243.402344 L 242.132812 245.367188 C 242.433594 243.726562 246.917969 241.261719 247.886719 243.359375 L 248.605469 243.359375 L 248.605469 242.710938 C 249.914062 242.902344 249.167969 240.355469 251.023438 240.171875 L 251.023438 241.445312 C 261.277344 234.976562 256.492188 239.453125 262.003906 233.160156 C 263.21875 234.53125 263.136719 232.621094 265.074219 231.949219 C 264.578125 235.546875 268.035156 229.519531 269.035156 232 C 269.050781 234.519531 263.933594 233.59375 267.035156 236.25 C 259.929688 236.613281 263.101562 237.746094 267.4375 240.039062 C 267.089844 240.035156 267.023438 240.0625 266.386719 240.664062 L 265.761719 239.945312 C 265.34375 240.878906 266.660156 241.667969 265.8125 242.578125 C 263.652344 240.152344 264.640625 242.234375 263.128906 243.964844 C 263.488281 244.125 264.082031 244.800781 263.855469 245.78125 C 257.34375 249.257812 267.511719 248.945312 267.078125 250.976562 C 272.011719 249.570312 275.253906 255.3125 280.511719 256.800781 C 281.734375 257.570312 285.695312 256.003906 285.605469 258.667969 C 287.78125 258 289.957031 262.265625 291.253906 264.308594 C 291.070312 263.664062 288.902344 266.957031 290.792969 266.933594 L 290.792969 266.28125 C 293.820312 267.054688 298.636719 263.625 298.339844 266.933594 C 306.609375 265.804688 298.3125 275.734375 307.277344 272.089844 C 307.378906 272.28125 308.058594 272.496094 307.910156 273.371094 C 327.238281 285.980469 324.425781 259.484375 330.316406 270.65625 L 329.488281 270.65625 C 334.300781 274.703125 323.589844 273.753906 335.585938 275.246094 L 334.835938 274.5 L 335.507812 273.960938 C 330.476562 270.707031 337.910156 271.40625 334.191406 266.28125 C 335.496094 264.773438 334.078125 262.460938 335.203125 260.894531 C 335.683594 260.230469 335.410156 259.292969 334.617188 259.097656 C 329.425781 257.792969 331.039062 255.964844 325.945312 253.492188 L 325.972656 253.429688 C 312.875 248.777344 320.128906 243.195312 311.738281 239.335938 C 310.160156 243.117188 308.652344 235.824219 311.261719 233.648438 C 309.914062 233.523438 310.832031 226.835938 312.40625 229.335938 C 313.367188 228.148438 314.828125 227.382812 315.636719 225.527344 L 316.191406 226.179688 C 319.199219 221.847656 311.011719 223.03125 313.742188 221.121094 C 314.398438 220.65625 314.4375 219.703125 313.792969 219.222656 C 312.5 218.253906 310.835938 217.28125 309.597656 216.140625 C 309.03125 215.621094 308.195312 215.5625 307.53125 215.945312 C 303.453125 218.292969 304.15625 210.945312 300.976562 213.785156 C 300.800781 212.367188 300.953125 210.097656 302.3125 208.746094 C 298.601562 209.089844 300.207031 201.695312 300.363281 199.851562 L 299.804688 199.851562 C 301.644531 196.011719 302.277344 200.035156 304.75 201.324219 C 306.941406 200.09375 305.675781 196.445312 303.566406 195.417969 C 304.109375 195.117188 304.957031 194.710938 306.058594 194.863281 C 305.867188 187.820312 306.160156 193.351562 308.523438 189.453125 C 310.9375 187.675781 310.070312 184.203125 311.449219 185.582031 C 314.015625 189.027344 314.589844 181.105469 317.261719 183.042969 C 317.652344 183.320312 318.179688 183.242188 318.449219 182.84375 C 319.382812 181.457031 323.246094 182.96875 325.863281 184.03125 C 326.597656 184.328125 327.375 183.78125 327.402344 182.980469 C 327.515625 179.988281 334.3125 186.28125 333.59375 180.816406 L 334.15625 180.816406 C 334.132812 180.527344 334.3125 180.152344 333.65625 179.558594 L 336.148438 179.558594 C 334.566406 177.367188 336.835938 177.953125 339.339844 178.242188 L 339.339844 176.9375 L 340.535156 176.9375 C 339.617188 171.535156 345.140625 177.0625 348.90625 175.117188 C 347.933594 171.4375 355.136719 172.300781 354.550781 167.992188 " fill-opacity="1" fill-rule="nonzero"/></g><path fill="#ff2e63" d="M 81.480469 286.023438 C 80.730469 285.660156 81.195312 284.949219 80.140625 284.03125 C 80.082031 284.214844 79.300781 284.492188 79.433594 285.359375 L 76.867188 285.359375 L 76.867188 286.113281 C 80.867188 285.6875 79.066406 290.359375 82.875 286.007812 C 82.648438 286.011719 82.226562 286.003906 81.480469 286.023438 " fill-opacity="1" fill-rule="nonzero"/><path fill="#ff2e63" d="M 86.648438 284.722656 C 84.605469 283.152344 85.09375 285.660156 87.980469 286.113281 L 87.980469 284.707031 C 87.746094 284.707031 87.378906 284.699219 86.648438 284.722656 " fill-opacity="1" fill-rule="nonzero"/><path fill="#ff2e63" d="M 69.777344 287.929688 L 69.777344 288.578125 L 68.472656 288.578125 L 68.472656 290.019531 C 68.839844 289.9375 69.574219 289.1875 70.488281 289.335938 C 70.449219 288.871094 70.359375 288.652344 71.265625 287.929688 L 69.777344 287.929688 " fill-opacity="1" fill-rule="nonzero"/><path fill="#ff2e63" d="M 48.433594 91.417969 C 49.097656 91.992188 49.960938 93.75 51.640625 93.390625 C 51.261719 95.199219 52.253906 98.160156 54.855469 97.917969 C 54.574219 99.757812 55.640625 99.089844 56.917969 100.546875 C 56.941406 100.152344 56.699219 99.847656 57.464844 99.246094 L 57.464844 99.824219 C 58.691406 99.589844 62.988281 98.5625 63.90625 100.511719 C 64.878906 99.730469 69.367188 98.4375 69.078125 100.550781 C 69.71875 99.503906 71.898438 99.945312 72.320312 97.949219 C 74.839844 100.277344 77.375 95.859375 76.269531 92.019531 C 74.542969 92.835938 74.726562 90.050781 76.269531 91.503906 C 74.660156 87.738281 76.738281 89.652344 76.933594 87.429688 C 75.027344 88.90625 74.894531 87.738281 75.5625 84.984375 L 75.5625 85.550781 L 74.257812 84.902344 C 74.703125 85.933594 71.664062 88.347656 71.753906 85.550781 C 70.859375 85.800781 70.054688 86.871094 68.550781 86.890625 C 68.703125 85.835938 69.800781 85.144531 68.425781 84.207031 C 66.230469 92.074219 67.796875 80.992188 65.914062 83.644531 L 65.164062 82.902344 C 62.25 89.347656 64.175781 77.785156 61.382812 84.085938 C 60.472656 84.363281 59.710938 82.632812 58.21875 85.457031 L 58.21875 84.933594 C 56.714844 85.640625 58.832031 82.292969 58.21875 81.164062 C 58.789062 81.335938 59.816406 81.089844 60.175781 79.753906 C 58.351562 80.714844 62.320312 74.765625 57.390625 75.273438 C 57.691406 75.492188 58.390625 76.308594 58.734375 77.230469 L 58.117188 77.230469 C 58.664062 79.027344 56.917969 81.179688 56.917969 77.820312 L 56.226562 78.433594 L 56.226562 75.980469 L 56.121094 75.980469 C 56.324219 76.34375 55.769531 77.066406 54.855469 75.859375 L 54.855469 77.851562 C 53.808594 77.367188 52.808594 76.621094 54.820312 78.535156 C 53.238281 79.285156 53.492188 79.46875 52.246094 77.164062 L 52.246094 78.496094 L 51.746094 78.496094 L 51.746094 77.816406 C 48.808594 79.21875 63.089844 83.734375 53.464844 82.363281 C 53.921875 82.691406 54.558594 83.449219 55.484375 84.335938 C 54.855469 86.585938 48.78125 79.714844 48.421875 83.769531 C 49.230469 84.015625 51.820312 82.957031 51.640625 85.039062 C 53.050781 84.945312 51.679688 86.597656 51.640625 88.339844 L 52.25 87.683594 C 52.414062 88.710938 48.773438 90.816406 47.753906 89.425781 C 47.484375 89.925781 46.472656 91.613281 48.433594 91.417969 " fill-opacity="1" fill-rule="nonzero"/><path fill="#ff2e63" d="M 48.460938 181.390625 C 48.941406 182.382812 49.921875 181.425781 50.914062 182.582031 C 49.671875 182.96875 49.054688 181.976562 47.40625 181.878906 Z M 43.910156 184.511719 C 40.601562 187.902344 45.546875 184.339844 43.894531 187.816406 L 45.027344 187.816406 C 43.398438 188.488281 44.121094 188.496094 45.558594 188.46875 C 44.316406 188.667969 43.53125 189.625 45.851562 188.496094 L 45.851562 189.765625 C 47.246094 187.996094 48.796875 190.90625 50.382812 189.105469 C 50.957031 189.769531 51.839844 189.964844 53.550781 188.542969 L 53.550781 189.082031 C 69.625 188.429688 60.238281 183.007812 69.605469 175.050781 L 69.605469 176.289062 L 70.316406 176.289062 C 70.335938 173.078125 68.902344 175.628906 68.582031 174.117188 C 70.601562 173.328125 69.207031 172.171875 69.007812 169.710938 L 67.101562 169.710938 C 67.246094 168.191406 67.582031 168.792969 65.164062 167.019531 L 65.164062 167.792969 C 61.039062 166.851562 60.449219 168.175781 56.765625 169.6875 C 57.175781 170.015625 58.027344 171.148438 59.269531 171.117188 C 58.335938 170.949219 56.457031 173.96875 55.964844 173.34375 C 54.710938 171.453125 49.480469 168.296875 51.023438 173.144531 C 50.746094 174.007812 46.886719 176.628906 49.726562 177.503906 L 49.726562 178.847656 C 55.085938 176.472656 49.179688 181.359375 46.328125 181.277344 L 47.027344 181.878906 L 46.417969 181.878906 C 46.167969 183.148438 39.90625 183.042969 45.773438 184.496094 C 45.308594 184.5 44.765625 184.488281 43.910156 184.511719 " fill-opacity="1" fill-rule="nonzero"/><path fill="#ff2e63" d="M 118.671875 270.894531 C 113.855469 269.210938 112.140625 276.980469 116.339844 280.066406 C 116.539062 277.472656 119.882812 274.214844 118.671875 270.894531 " fill-opacity="1" fill-rule="nonzero"/><path fill="#ff2e63" d="M 117.625 283.109375 L 117.101562 282.597656 L 117.707031 282.597656 C 117.578125 282.085938 116.109375 281.691406 116.339844 280.453125 C 116.054688 280.636719 115.917969 281.378906 114.929688 281.1875 L 114.929688 281.789062 C 113.867188 281.457031 111.015625 283.664062 109.789062 282.417969 C 109.417969 283.199219 108.300781 289.15625 111.628906 288.339844 C 110.117188 288.746094 111.148438 291.59375 109.0625 291.449219 C 110.164062 292.601562 108.476562 296.707031 112.464844 296.078125 C 112.238281 295.203125 112.753906 293.457031 114.367188 294.8125 C 117.644531 296.738281 116.003906 287.503906 118.292969 285.710938 L 117.671875 285.710938 C 117.824219 285.226562 118.671875 284.207031 117.625 283.109375 " fill-opacity="1" fill-rule="nonzero"/><path fill="#ff2e63" d="M 146.648438 304.34375 C 135.773438 307.539062 137.457031 301.902344 133.769531 304.296875 C 132.496094 300.914062 130.164062 306.972656 131.9375 307.109375 C 139.066406 309.847656 139.742188 312.707031 146.085938 314.769531 C 145.300781 313.691406 148.769531 311.863281 146.820312 311.414062 L 147.472656 310.8125 C 145.050781 310.257812 149.273438 306.035156 149.300781 303.640625 C 148.75 303.964844 147.820312 304.519531 146.648438 304.34375 " fill-opacity="1" fill-rule="nonzero"/><path fill="#ff2e63" d="M 71.035156 184.015625 L 71.035156 185.378906 C 72 185.566406 74.691406 184.414062 71.035156 184.015625 " fill-opacity="1" fill-rule="nonzero"/><path fill="#ff2e63" d="M 78.527344 206.648438 L 79.886719 206.648438 L 79.886719 205.894531 L 77.75 205.894531 L 78.527344 206.648438 " fill-opacity="1" fill-rule="nonzero"/><path fill="#ff2e63" d="M 91.191406 147.277344 C 90.894531 147.453125 90.71875 148.15625 89.664062 147.996094 L 91.191406 149.4375 L 91.191406 147.277344 " fill-opacity="1" fill-rule="nonzero"/><path fill="#ff2e63" d="M 99.441406 143.53125 C 99.386719 148.609375 102.234375 134.707031 100.09375 142.175781 L 98.789062 142.175781 C 98.808594 142.523438 98.617188 142.910156 99.441406 143.53125 " fill-opacity="1" fill-rule="nonzero"/><path fill="#ff2e63" d="M 75.5625 149.800781 C 75.359375 149.585938 74.878906 149.472656 75.011719 148.535156 C 74.242188 149.292969 73.433594 150.945312 73.554688 152.691406 C 73.699219 152.074219 75.566406 149.230469 75.5625 152.066406 C 76.359375 151.789062 75.925781 149.796875 77.582031 149.972656 C 77.292969 149.230469 78.304688 149.148438 78.1875 147.921875 C 77.929688 148.640625 76.628906 148.699219 75.5625 148.609375 L 75.5625 149.800781 " fill-opacity="1" fill-rule="nonzero"/><path fill="#ff2e63" d="M 75.011719 178.972656 C 75.691406 176.90625 71.859375 178.007812 73.59375 179.609375 C 73.667969 179.574219 74.363281 179.265625 75.011719 178.972656 " fill-opacity="1" fill-rule="nonzero"/><path fill="#ff2e63" d="M 74.207031 154.546875 L 74.207031 155.972656 L 75.453125 155.304688 C 74.363281 158.894531 76.785156 156.957031 76.933594 153.796875 C 76.71875 154.007812 76.378906 154.445312 75.617188 155.070312 L 75.617188 153.84375 L 74.207031 154.546875 " fill-opacity="1" fill-rule="nonzero"/><path fill="#ff2e63" d="M 75.386719 196.023438 L 75.0625 196.023438 L 75.0625 195.996094 L 75.386719 195.996094 Z M 77.910156 155.625 L 77.925781 156.226562 L 77.347656 156.226562 L 77.347656 156.332031 C 79.683594 156.472656 76.480469 159.160156 74.648438 161.394531 C 74.742188 161.457031 74.667969 161.410156 74.3125 160.914062 C 72.6875 160.957031 75.234375 161.023438 73.488281 162.371094 L 74.207031 162.371094 L 74.207031 162.933594 L 74.3125 162.933594 L 74.3125 162.371094 L 75.011719 162.371094 L 75.011719 161.757812 L 76.0625 162.800781 C 76.464844 161.792969 76.910156 161.15625 78.480469 160.847656 C 77.925781 161.339844 77.585938 161.785156 76.527344 162.765625 L 77.296875 162.765625 L 77.296875 163.3125 C 75.75 162.921875 74.375 164.636719 74.6875 166.660156 C 77.105469 163.550781 77.699219 165.054688 75.992188 167.246094 C 76.261719 167.25 78.390625 167.105469 78.5625 168.441406 L 77.910156 168.441406 C 77.960938 169.238281 76.777344 170.925781 75.339844 171.015625 C 75.429688 171.449219 75.238281 172.46875 74.035156 172.269531 L 74.035156 172.96875 L 73.382812 172.96875 L 73.382812 175.632812 L 74.140625 175.632812 C 73.910156 172.914062 74.890625 174.730469 76.097656 176.363281 C 75.648438 175.507812 77.035156 172.992188 77.296875 175.667969 L 78.5625 175.019531 L 78.5625 175.632812 L 79.320312 175.632812 C 79.097656 173.648438 80.8125 176.863281 81.785156 175.058594 C 81.789062 175.3125 81.492188 176.183594 80.519531 175.972656 L 80.519531 176.5 C 79.246094 174.683594 76.949219 180.460938 79.835938 180.554688 C 77.503906 182.695312 80.460938 179.734375 81.171875 182.359375 L 79.914062 182.359375 L 79.914062 183.011719 L 79.261719 183.011719 C 79.695312 185.339844 78.074219 183.394531 77.949219 185.6875 L 78.601562 185.6875 L 78.601562 186.953125 L 79.195312 186.953125 C 79.265625 186.898438 77.761719 188.238281 78.054688 186.769531 C 77.820312 187.238281 76.816406 187.847656 76.96875 186.320312 L 75.714844 186.320312 L 75.714844 185.695312 C 74.691406 186.117188 66.175781 188.066406 71.828125 188.40625 C 73.097656 186.296875 73.304688 189.753906 71.710938 190.195312 C 73.152344 191.574219 71 191.074219 69.832031 192.777344 L 69.179688 192.078125 C 67.527344 194.046875 65.976562 190.429688 64.523438 194.164062 L 66.554688 194.164062 L 66.554688 194.671875 L 65.902344 194.671875 C 65.648438 196.90625 70.160156 192.925781 69.125 196.734375 L 71.015625 196.734375 C 69.398438 199.320312 74.9375 198.261719 76.578125 197.90625 C 75.125 199.367188 70.859375 202.097656 69.007812 199.113281 L 66.917969 199.113281 C 67.914062 199.703125 67.613281 200.671875 65.683594 199.71875 C 66.207031 201.5625 60.078125 203.3125 58.648438 203.695312 L 59.863281 203.695312 L 59.863281 205 L 61.269531 205 L 61.269531 204.351562 L 61.816406 204.351562 L 61.816406 205.074219 C 64.207031 202.039062 65.785156 205.582031 68.34375 205.636719 C 68.644531 203.199219 73.027344 202.175781 74.085938 205.652344 C 75.695312 204.832031 76.5625 205.238281 78.707031 205.652344 C 78.863281 202.929688 80.007812 206.070312 81.824219 205.652344 C 82.550781 208.085938 96.484375 206.691406 91.449219 204.402344 C 90.652344 205.128906 87.722656 202.996094 88.882812 202.386719 C 89.519531 203.292969 92.0625 202.046875 90.402344 201.636719 C 90.632812 201.050781 92.019531 201.160156 92.9375 201.175781 L 92.9375 200.476562 C 97.851562 198.921875 97.941406 193.328125 89.71875 193.539062 C 91.773438 189.921875 93.175781 190.941406 89.0625 186.953125 C 89.222656 186.984375 89.464844 186.929688 89.734375 186.929688 C 90.398438 186.933594 90.910156 186.339844 90.839844 185.683594 C 90.300781 180.777344 88.335938 177.652344 87.707031 171.378906 L 87.648438 171.496094 C 87.859375 169.414062 78.765625 167.578125 83.5625 168.507812 C 84.734375 168.726562 84.859375 167.90625 86.472656 167.140625 C 83.210938 166.46875 84.820312 165.859375 88.363281 165.976562 C 87.847656 164.769531 91.914062 164.480469 89.652344 162.714844 C 89.851562 162.597656 90.066406 161.972656 90.933594 162.113281 C 94.898438 158.609375 87.167969 157.453125 83.230469 158.785156 L 83.230469 157.589844 L 83.792969 157.589844 L 83.792969 157.484375 C 82.851562 157.617188 83.230469 156.558594 85.101562 156.332031 C 84.339844 154.925781 94.15625 152.773438 88.363281 151.699219 L 88.363281 151.054688 C 87.863281 151.492188 85.515625 152.199219 85.753906 150.316406 L 85.050781 151.058594 L 84.59375 150.5 C 85.503906 150.628906 84.167969 149.625 83.128906 149.78125 C 83.253906 150.261719 82.894531 150.949219 82.402344 151.804688 L 83.054688 151.804688 C 82.878906 153.136719 80.261719 150.832031 81.71875 152.394531 C 80.816406 152.636719 80.464844 152.585938 81.132812 154.855469 C 80.726562 154.773438 81.167969 154.234375 79.96875 154.304688 C 80.242188 152.941406 77.773438 153.515625 77.910156 155.625 " fill-opacity="1" fill-rule="nonzero"/><path fill="#ff2e63" d="M 130.804688 171.875 C 125.804688 176.582031 135.421875 169.488281 137.953125 173.316406 C 139.152344 171.660156 138.539062 170.824219 139.089844 169.429688 C 139.351562 168.777344 138.675781 168.144531 138.035156 168.433594 C 135.652344 169.519531 134.113281 172.476562 130.804688 171.875 " fill-opacity="1" fill-rule="nonzero"/><path fill="#ff2e63" d="M 137.300781 186.769531 L 137.300781 184.140625 C 136.878906 184.167969 136.625 184.292969 135.941406 183.425781 L 135.328125 184.117188 L 134.625 183.375 L 134.625 184.140625 L 133.9375 184.140625 L 133.9375 186.167969 L 135.28125 186.167969 L 135.28125 186.769531 L 137.300781 186.769531 " fill-opacity="1" fill-rule="nonzero"/><path fill="#ff2e63" d="M 138.863281 182.816406 C 138.484375 183.109375 137.578125 183.941406 138.824219 184.808594 C 137.128906 185.882812 139.125 187.117188 140.804688 186.730469 L 140.804688 187.316406 C 139.476562 187.164062 141.230469 188.199219 142.292969 188.035156 C 140.035156 186.824219 145.039062 186.503906 142.847656 184.804688 C 146.371094 182.050781 143.039062 182.5 144.863281 180.882812 L 144.203125 180.882812 L 144.855469 180.230469 C 143.980469 180.40625 142.96875 179.6875 142.039062 180.988281 C 142.550781 180.925781 144.550781 182.019531 141.453125 182.148438 C 140.804688 184.929688 141.0625 181.808594 140.152344 181.496094 C 140.230469 181.914062 140.0625 182.980469 138.863281 182.816406 " fill-opacity="1" fill-rule="nonzero"/><path fill="#ff2e63" d="M 137.542969 188.585938 C 136.75 190.199219 142.65625 191.390625 138.949219 189.234375 L 138.949219 188.585938 L 137.542969 188.585938 " fill-opacity="1" fill-rule="nonzero"/><path fill="#ff2e63" d="M 140.804688 189.289062 C 140.789062 189.738281 140.722656 189.945312 141.558594 190.683594 L 141.558594 189.945312 L 142.210938 189.945312 L 142.210938 189.234375 C 141.769531 189.265625 141.535156 189.371094 140.804688 188.511719 L 140.804688 189.289062 " fill-opacity="1" fill-rule="nonzero"/><path fill="#ff2e63" d="M 200.828125 303.554688 C 200.304688 302.203125 194.394531 298.082031 192.265625 299.75 C 195.421875 300.644531 198.824219 303.050781 201.453125 305.648438 C 201.355469 305.015625 201.78125 304.375 200.828125 303.554688 " fill-opacity="1" fill-rule="nonzero"/><path fill="#ff2e63" d="M 167.546875 92.898438 L 167.546875 93.632812 C 167.632812 93.414062 168.476562 93.171875 168.308594 92.296875 C 170.644531 93.320312 169.917969 87.992188 168.863281 90.320312 C 166.933594 90.15625 168.140625 90.367188 166.878906 92.242188 L 167.546875 92.898438 " fill-opacity="1" fill-rule="nonzero"/></svg>