<svg xmlns="http://www.w3.org/2000/svg" xmlns:xlink="http://www.w3.org/1999/xlink" width="500" zoomAndPan="magnify" viewBox="0 0 375 374.999991" height="500" preserveAspectRatio="xMidYMid meet" version="1.0"><defs><clipPath id="10f3629226"><path d="M 6 46 L 370.429688 46 L 370.429688 346 L 6 346 Z M 6 46 " clip-rule="nonzero"/></clipPath></defs><g clip-path="url(#10f3629226)"><path fill="#ff2e63" d="M 308.863281 46.4375 C 308.882812 46.4375 308.882812 46.4375 308.863281 46.4375 Z M 224.792969 338.324219 C 223.847656 338.460938 223.53125 336.429688 222.785156 337.398438 C 220.617188 334.421875 216.460938 331.878906 216.046875 328.175781 C 215.671875 327.664062 215.671875 328.472656 215.632812 327.328125 C 216.558594 321.003906 220.5 313.28125 219.179688 307.6875 C 219.535156 307.960938 217.859375 307.410156 218.015625 307.46875 C 215.59375 302.070312 193.171875 309.046875 199.160156 303.332031 C 203.042969 295.746094 203.773438 287.195312 209.761719 281.128906 C 205.074219 275.140625 192.855469 280.242188 192.070312 288.140625 C 189.410156 293.914062 184.9375 292.753906 179.382812 293.71875 C 170.652344 297.285156 166.910156 284.042969 165.351562 276.871094 C 165.804688 269.859375 167.324219 262.984375 171.066406 258.925781 C 170.988281 256.519531 169.964844 251.121094 171.894531 251.734375 C 173.46875 251.339844 171.636719 249.328125 172.976562 249.328125 C 173.058594 247.476562 175.835938 248.601562 176.070312 246.355469 C 177.707031 244.089844 181.6875 246.296875 183.460938 243.082031 C 183.734375 238.550781 188.839844 244.167969 189.035156 239.378906 C 190.296875 241.289062 190.179688 240.109375 191.539062 239.695312 C 192.777344 242.808594 195.144531 241.132812 196.933594 240.859375 C 203.082031 246.730469 198.964844 240.757812 203.339844 243.871094 C 203.949219 238.613281 205.011719 246 206.984375 244.050781 C 208.460938 241.921875 202.394531 242.296875 206.414062 240.71875 C 206.570312 238.925781 202.925781 240.382812 203.261719 238.570312 C 204.007812 237.230469 204.640625 238.078125 205.507812 238.828125 C 207.910156 238.316406 209.523438 236.976562 211.988281 238.316406 C 214.214844 232.78125 212.460938 239.476562 215.496094 237.726562 C 217.976562 236.425781 222.273438 237.644531 223 241.015625 C 225.699219 241.015625 228.558594 236.9375 230.113281 241.625 C 232.96875 244.226562 231.964844 246.730469 230.132812 249.328125 C 230.132812 252.027344 232.753906 247.734375 231.375 250.667969 C 232.339844 254.925781 235.628906 268.027344 239.078125 258.53125 C 239.078125 258.53125 239.3125 257.425781 239.292969 257.484375 C 239.175781 223.203125 235.808594 237.429688 260.179688 217.394531 C 262.621094 219.046875 264.90625 215.5 262.800781 214.300781 C 262.917969 212.644531 264.117188 215.796875 264.472656 213.746094 C 265.203125 213.53125 264.671875 215.066406 265.890625 214.671875 C 270.71875 211.148438 265.066406 213.097656 264.671875 210.515625 C 265.871094 210.28125 267.546875 211.660156 268.277344 209.058594 C 268.710938 207.1875 265.953125 208.035156 265.714844 206.496094 C 268.945312 208.367188 266.503906 205.769531 266.917969 204.605469 C 269.8125 206.773438 265.792969 201.019531 265.890625 200.054688 C 266.839844 197.511719 269.242188 200.46875 269.597656 198.28125 C 269.085938 196.46875 271.644531 195.207031 272.984375 195.820312 C 272 197.179688 270.5625 198.773438 270.304688 200.449219 C 272.589844 201.199219 269.457031 204.191406 268.945312 205.75 C 270.089844 206.515625 274.621094 201.117188 274.933594 198.832031 C 273.183594 193 276.234375 201.789062 281.160156 192.589844 C 281.121094 192.648438 281.734375 191.601562 281.714844 191.742188 C 279.941406 189.023438 288.410156 190.164062 290.5 188.507812 C 277.988281 187.445312 295.976562 187.191406 299.503906 184.707031 C 298.695312 181.140625 299.011719 185.691406 297.613281 184.785156 C 295.523438 180.765625 299.503906 178.71875 301.808594 175.566406 C 301.769531 175.585938 302.5 175.722656 302.5 175.722656 C 304.882812 175.585938 306.164062 174.601562 307.601562 172.886719 C 310.554688 173.632812 312.074219 171.761719 314.398438 171.585938 C 314.871094 170.796875 317.195312 172.019531 315.796875 169.988281 C 315.816406 169.121094 319.757812 169.023438 320.074219 169.496094 C 321.019531 168.648438 326.238281 166.148438 323.835938 168.277344 C 323.660156 169.203125 324.957031 168.195312 325.253906 168.394531 C 322.949219 169.359375 314.003906 173.929688 317.375 175.625 C 317.886719 178.679688 324.070312 174.421875 324.878906 172.234375 C 327.402344 172.433594 331.261719 171.367188 333.84375 170.128906 C 335.222656 169.515625 336.859375 169.164062 338.257812 168.867188 C 339.792969 167.78125 335.835938 168.925781 337.707031 167.804688 C 339.28125 167.09375 341.46875 167.761719 342.730469 166.167969 C 344.621094 165.714844 343.695312 164.394531 342.316406 164.078125 C 341.785156 163.074219 344.34375 161.320312 342.632812 160.570312 C 336.996094 165.023438 336.464844 168.472656 328.878906 165.675781 C 329.175781 164.019531 325.667969 164.355469 326.8125 161.28125 C 327.460938 160.21875 326.082031 160.53125 325.785156 160.117188 C 326.929688 159.410156 329.410156 157.539062 329.824219 156.511719 C 328.625 157.714844 323.34375 157.695312 324.484375 155.726562 C 345.902344 152 321.136719 145.558594 305.199219 160.847656 C 315.480469 152.179688 328.191406 142.625 343.066406 146.523438 C 348.582031 147.195312 353.308594 144.710938 357.367188 141.421875 C 360.933594 140.753906 369.644531 140.417969 369.03125 135.175781 C 369.109375 134.566406 368.558594 134.882812 369.445312 134.683594 C 370.332031 133.226562 370.136719 132.242188 370.390625 131.570312 C 370.570312 130.742188 368.972656 131.175781 368.855469 130.863281 C 369.25 130.488281 368.5 129.464844 368.5 130.46875 C 367.929688 129.699219 365.761719 132.222656 365.464844 131.058594 C 368.539062 129.601562 365.996094 128.261719 364.066406 128.261719 C 363.339844 127.175781 368.007812 128.023438 367.496094 126.644531 C 366.273438 125.835938 365.625 124.851562 363.988281 125.601562 C 362.3125 124.773438 362.039062 122.882812 359.652344 123.335938 C 359.691406 123.355469 359.21875 122.292969 359.199219 122.351562 C 360.816406 121.324219 358.433594 120.992188 357.566406 120.933594 C 353.46875 115.988281 360.144531 120.144531 358 113.582031 C 354.628906 101.644531 359.199219 96.148438 346.550781 108.578125 C 345.25 107.199219 343.378906 110.863281 340.996094 110.273438 C 340.109375 111.59375 341.054688 108.480469 339.714844 109.347656 C 339.378906 107.082031 333.332031 108.441406 337.625 106.292969 C 337.824219 105.308594 335.578125 106.097656 336.9375 105.171875 C 338.375 103.59375 338.179688 100.558594 341.132812 99.929688 C 341.035156 99.652344 340.996094 97.347656 340.601562 98.867188 C 334.574219 101.191406 335.046875 92.855469 330.394531 92.738281 C 326.257812 95.988281 314.734375 87.910156 315.480469 96.621094 C 314.851562 98.628906 312.015625 99.4375 310.28125 100.066406 C 317.234375 99.140625 308.980469 107.199219 305.589844 107.457031 C 305.257812 112.972656 312.644531 113.5625 302.339844 121.5625 C 299.011719 124.773438 290.992188 123.90625 290.144531 128.023438 C 290.578125 131.589844 289.082031 136.988281 285.929688 138.960938 C 285.199219 142.050781 285.59375 139.804688 283.386719 140.082031 C 282.285156 140.496094 282.027344 142.703125 280.746094 141.460938 C 271.410156 130.703125 289.988281 124.183594 278.246094 123.492188 C 271.269531 124.8125 267.722656 117.582031 261.914062 115.886719 C 260.296875 113.425781 251.136719 118.234375 254.761719 114.566406 C 259.804688 105.269531 248.890625 110.863281 253.777344 105.132812 C 258.367188 98.886719 267.546875 94.375 272.808594 91.96875 C 270.699219 89.804688 279.960938 92.957031 279.230469 88.71875 C 271.546875 86.058594 283.289062 89.921875 284.214844 85.765625 C 287.03125 88.304688 296.726562 83.359375 296.015625 81.015625 C 297.375 79.953125 305.925781 78.492188 301.964844 76.503906 C 303.167969 75.125 305.964844 76.1875 306.675781 77.292969 C 308.703125 77.84375 307.1875 80.582031 310.121094 79.894531 C 310.4375 79.085938 308.785156 78.238281 308.308594 77.332031 C 307.621094 75.617188 311.816406 79.65625 310.144531 75.894531 C 309.886719 75.203125 310.203125 75.5 309.710938 75.144531 C 306.398438 74.789062 310.496094 73.054688 310.910156 75.066406 C 312.132812 78.828125 319.480469 74.296875 321.746094 72.601562 C 322.320312 71.007812 319.914062 70.851562 321.707031 69.195312 C 320.742188 66.890625 326.789062 70.160156 325.511719 65.984375 C 329.015625 65.351562 321.726562 64.9375 325.3125 63.578125 C 322.710938 63.421875 314.574219 60.878906 315.421875 65.628906 C 316.210938 66.769531 312.722656 66.691406 312.054688 67.402344 C 310.261719 69.667969 309.414062 70.417969 307.285156 69.097656 C 305.078125 70.199219 307.304688 72.898438 303.757812 72.820312 C 302.398438 73.84375 300.941406 70.457031 302.460938 69.804688 C 303.1875 68.644531 306.183594 69.6875 305.511719 66.792969 C 304.015625 61.570312 297.082031 71.261719 297.472656 67.757812 C 300.234375 66.75 295.957031 64.566406 298.953125 64.980469 C 303.285156 64.78125 298.714844 63.421875 297.492188 64.070312 C 293.789062 63.816406 296.273438 62.652344 297.828125 62.28125 C 296.214844 61.058594 298.339844 61.53125 299.167969 61.746094 C 301.355469 60.703125 296.980469 58.929688 299.898438 57.453125 C 298.300781 53.710938 296.546875 55.796875 301.511719 53.550781 C 304.726562 50.65625 313.078125 51.324219 317.175781 47.363281 C 313.867188 47.425781 304.785156 44.664062 304.332031 48.332031 C 301.453125 47.167969 300.921875 48.703125 299.265625 50.558594 C 298.65625 50.359375 298.105469 51.089844 297.574219 51.402344 C 299.167969 53.433594 295.1875 54.359375 295.167969 55.738281 C 293.671875 56.152344 285.851562 57.808594 288.921875 60.191406 C 284.433594 59.558594 284.472656 64.464844 289.003906 63.835938 C 291.976562 64.132812 291.191406 66.792969 289.296875 64.585938 C 288.824219 64.625 288.726562 65.371094 288.765625 65.726562 C 285.003906 66.0625 286.636719 67.796875 289.082031 66.101562 C 288.589844 69.429688 281.554688 69.292969 278.933594 71.027344 C 279.761719 71.933594 277.140625 75.695312 276.6875 73.824219 C 275.09375 74.394531 274.5625 77.566406 274.460938 73.84375 C 275.921875 72.523438 278.226562 71.324219 279.015625 69.15625 C 278.226562 69.195312 278.109375 69.570312 277.359375 69.550781 C 276.335938 66.257812 271.132812 69.253906 269.832031 71.027344 C 263.765625 71.636719 258.484375 70.75 253.734375 69.824219 C 252.277344 62.554688 238.015625 70.335938 244.257812 69.332031 C 244.140625 69.058594 244.082031 68.78125 244.0625 68.503906 C 246.425781 69.609375 248.691406 67.539062 251.117188 67.796875 C 249.085938 71.066406 242.074219 68.484375 240.4375 72.820312 C 241.402344 74.199219 240.515625 75.300781 238.800781 75.066406 C 238.980469 66.378906 227.613281 73.765625 220.734375 70.890625 C 230.171875 66.910156 226.863281 66.59375 217.703125 66.398438 C 211.515625 63.617188 206.214844 61.886719 199.988281 64.878906 C 199.242188 63.933594 202.15625 64.25 201.347656 62.929688 C 205.425781 59.558594 198.335938 62.792969 197.191406 63.914062 C 191.65625 66.949219 197.683594 59.660156 194.078125 59.621094 C 192.503906 64.050781 186 62.140625 182.179688 64.328125 C 181.035156 64.050781 179.972656 62.179688 178.730469 63.738281 C 179.421875 64.464844 181.253906 65.351562 178.75 65.3125 C 176.839844 65.117188 178.632812 63.738281 176.722656 63.777344 C 174.398438 67.027344 176.070312 64.289062 173.570312 64.386719 C 174.082031 66.398438 170.199219 67.972656 169.019531 66.988281 C 175.183594 64.347656 170.554688 64.742188 167.207031 66.378906 C 166.023438 68.820312 165.589844 65.3125 168.9375 65 C 172.484375 63.757812 167.578125 63.757812 166.691406 64.625 C 166.890625 64.878906 161.214844 65.964844 163.539062 67.265625 C 150.320312 61.804688 135.859375 61.589844 122.363281 59.894531 C 124.984375 58.082031 114.640625 58.632812 114.34375 59.066406 C 115.546875 55.460938 112.019531 57.945312 109.480469 58.496094 C 107.273438 60.074219 100.988281 57.453125 100.988281 60.605469 C 91.648438 59.796875 83.808594 65.234375 74.863281 66.730469 C 71.808594 65.90625 69.859375 67.617188 67.492188 68.5625 C 67.140625 70.316406 71.671875 70.375 69.9375 72.464844 C 70.3125 71.953125 68.953125 73.726562 69.070312 73.15625 C 69.089844 75.5 73.464844 71.992188 69.679688 74.96875 C 71.613281 75.972656 72.519531 71.992188 74.371094 74.238281 C 71.730469 74.652344 71.257812 76.878906 74.429688 75.125 C 77.089844 75.734375 74.390625 76.839844 73.285156 76.207031 C 70.234375 77.566406 66.921875 78.433594 63.023438 77.667969 C 62.195312 76.679688 66.765625 75.242188 62.09375 75.636719 C 57.644531 77.195312 51.359375 78.375 46.335938 79.261719 C 45.941406 80.484375 50.53125 80.660156 48.441406 81.46875 C 41.722656 84.917969 53.820312 84.777344 55.910156 83.851562 C 55.023438 86.21875 62.234375 82 64.007812 82.632812 C 60.382812 84.839844 57.820312 89.683594 52.066406 88.304688 C 49.367188 89.269531 46.511719 92.1875 44.953125 89.351562 C 39.714844 91.398438 36.425781 93.347656 31.164062 95.457031 C 28.917969 95.929688 28.148438 98.15625 30.90625 97.878906 C 30.160156 99.042969 30.652344 99.988281 32.304688 99.773438 C 35.753906 98 31.359375 102.039062 28.898438 99.457031 C 24.523438 101.230469 27.421875 106.117188 31.222656 103.277344 C 32.265625 103.832031 33.804688 100.855469 35.242188 101.328125 C 32.917969 104.519531 22.4375 112.539062 32.9375 107.691406 C 34.828125 106.351562 34.117188 110.175781 36.1875 107.75 C 37.015625 107.457031 35.675781 108.835938 35.636719 109.128906 C 36.484375 112.125 38.847656 106.570312 40.738281 107.003906 C 44.601562 108.144531 37.230469 107.652344 39.949219 108.972656 C 40.402344 109.191406 42.375 108.972656 42.355469 108.382812 C 43.734375 109.011719 45.425781 107.140625 46.433594 106.609375 C 39.222656 112.65625 29.015625 116.222656 19.65625 119.613281 C 19.933594 119.414062 19.027344 119.75 19.066406 119.730469 C 19.125 120.28125 18.4375 120.417969 18.003906 120.378906 C 18.0625 121.050781 18.335938 121.601562 18.890625 121.839844 C 18.59375 121.699219 19.816406 121.601562 19.558594 121.71875 C 19.617188 121.699219 20.191406 121.246094 20.070312 121.246094 C 21.667969 121.011719 23.835938 121.226562 25.175781 120.144531 C 34.078125 116.480469 45.230469 112.65625 55.632812 108.835938 C 58.53125 106.648438 52.578125 106.511719 60.261719 104.796875 C 66.074219 103.792969 75.019531 94.90625 81.070312 99.378906 C 76.617188 97.46875 68.027344 102.136719 67.140625 104.34375 C 66.746094 104.539062 67.160156 104.835938 67.257812 104.972656 C 61.976562 105.9375 65.699219 107.277344 68.792969 105.566406 C 72.320312 103.398438 74.035156 102.726562 77.996094 102.964844 C 79.628906 101.78125 82.488281 102.492188 80.535156 100.558594 C 81.699219 101.191406 82.429688 101.664062 81.148438 100.167969 C 82.761719 100.460938 83.609375 98.609375 85.441406 98.726562 C 86.644531 97.859375 87.097656 97.152344 87.667969 98.90625 C 88.535156 99.023438 92.082031 96.914062 90.464844 98.964844 C 90.527344 105.132812 92.140625 98.414062 95.550781 100.144531 C 85.933594 104.246094 101.441406 102 103.628906 102.785156 C 99.3125 103.238281 105.105469 105.664062 106.484375 103.4375 C 106.464844 103.4375 107.273438 103.082031 107.234375 103.121094 C 107.035156 101.425781 112.15625 102.511719 109.8125 103.890625 C 108.492188 103.554688 106.503906 104.738281 105.914062 105.683594 C 107.585938 107.0625 108.550781 108.421875 109.519531 110.351562 C 112.652344 110.589844 112.53125 109.210938 110.5625 107.238281 C 110.246094 105.878906 111.84375 106.882812 112.199219 107.535156 C 112.75 107.4375 113.558594 106.84375 113.457031 107.691406 C 115.785156 106.925781 113.96875 108.285156 113.558594 109.308594 C 114.582031 113.425781 119.820312 102.53125 118.382812 107.257812 C 115.824219 111.277344 117.734375 109.722656 120.453125 109.230469 C 121.261719 109.859375 119.429688 110.078125 119.015625 110.234375 C 116.867188 111.042969 119.742188 111.476562 119.347656 112.125 C 116.710938 111.316406 119.683594 113.976562 117.183594 114.292969 C 117.222656 114.273438 116.730469 114.648438 116.75 114.628906 C 115.171875 115.925781 118.226562 115.691406 116.296875 117.503906 C 118.03125 118.035156 116.175781 119.925781 118.542969 120.242188 C 116.730469 121.304688 113.929688 124.222656 117.988281 122.054688 C 112.632812 129.226562 121.8125 119.394531 121.515625 122.84375 C 119.722656 124.65625 114.976562 125.777344 115.84375 128.339844 C 113.675781 127.628906 114.484375 130.152344 113.992188 131.039062 C 114.109375 133.246094 117.042969 128.535156 118.070312 129.5625 C 116.769531 131.964844 113.457031 130.960938 118.621094 132.28125 C 116.296875 131.707031 113.558594 132.574219 113.65625 135.15625 C 119.09375 130.230469 112.808594 139.117188 119.566406 134.980469 C 120.15625 138.445312 112.316406 137.1875 112.90625 140.160156 C 115.46875 138.644531 108.257812 144.554688 116.316406 142.484375 C 116 145.972656 117.496094 143.136719 118.777344 142.800781 C 117.023438 145.066406 118.226562 144.949219 120.019531 143.882812 C 116.511719 147.570312 122.699219 143.351562 119.269531 146.089844 C 115.351562 150.1875 122.796875 145.914062 119.941406 148.632812 C 119.289062 151.707031 122.382812 147.410156 122.027344 149.261719 C 120.667969 151.488281 122.304688 154.226562 120.316406 156.847656 C 118.523438 157.066406 118.167969 157.421875 118.363281 158.800781 C 118.421875 158.601562 117.617188 159.625 117.792969 159.507812 C 112.632812 161.832031 117.144531 157.558594 118.894531 156.335938 C 119.191406 154.820312 116.414062 155.707031 115.804688 155.628906 C 113.65625 154.464844 112.984375 153.203125 111.863281 156.039062 C 110.523438 168.15625 97.144531 176.648438 92.257812 189.257812 C 90.585938 193 88.910156 198.953125 91.511719 203.070312 C 92.316406 201.964844 93.992188 200.191406 95.589844 201.613281 C 95.214844 203.1875 91.433594 201.117188 92.359375 204.371094 C 90.289062 203.996094 90.070312 206.578125 91.964844 207.421875 C 88.496094 210.28125 94.230469 214.59375 91.648438 217.550781 C 98.40625 220.050781 103.390625 223.835938 101.5 232.148438 C 101.773438 243.832031 109.085938 244.324219 105.675781 248.738281 C 109.320312 253.859375 99.6875 245.84375 103.371094 251.417969 C 103.113281 252.738281 105.734375 253.40625 106.71875 254.628906 C 107.765625 254.570312 108.886719 252.816406 108.472656 255.003906 C 114.324219 258.648438 107.707031 262.726562 110.148438 264.855469 C 112.097656 261.503906 118.148438 278.507812 119.605469 269.9375 C 118.460938 268.382812 118.5625 264.953125 115.902344 266.195312 C 117.617188 257.210938 107.585938 245.625 108.058594 235.300781 C 108.039062 232.207031 109.5 230.476562 111.902344 232.761719 C 113.042969 231.242188 112.945312 232.820312 113.558594 233.488281 C 115.605469 234.574219 114.050781 240.03125 114.996094 243.023438 C 111.488281 246.117188 116.15625 243.398438 115.84375 245.664062 C 117.121094 249.269531 120.273438 248.324219 119.703125 251.792969 C 120.847656 254.785156 125.554688 255.359375 122.027344 258.667969 C 126.1875 263.296875 130.460938 268.320312 133.574219 274.46875 C 136.449219 286.367188 126.382812 283.394531 139.03125 293.148438 C 150.378906 299.492188 162.140625 308.652344 175.636719 304.277344 C 182.453125 311.054688 188.917969 317.359375 199.003906 317.792969 C 200.167969 317.8125 202 316.808594 201.644531 318.835938 C 198.511719 317.992188 205.503906 324.964844 206.824219 326.757812 C 206.453125 328.707031 208.125 329.242188 206.984375 331.113281 C 206.84375 332.886719 209.78125 336.039062 210.589844 333.710938 C 208.679688 329.003906 211.832031 335.722656 214.097656 335.917969 C 215.949219 336.195312 215.808594 343.464844 216.894531 339.210938 C 219.789062 347.089844 216.421875 335.289062 226.3125 344.253906 C 226.683594 346.636719 229.167969 345.140625 230.054688 344.09375 C 228.085938 341.476562 228.023438 341.121094 231.117188 339.703125 Z M 254.210938 67.636719 C 253.066406 67.617188 253.796875 68.761719 254.542969 68.859375 C 255.746094 69.015625 255.054688 67.65625 254.210938 67.636719 Z M 13.964844 123.375 C 12.152344 125.855469 16.957031 121.796875 17.921875 121.820312 C 17.15625 120.675781 14.652344 120.066406 12.210938 121.640625 C 10.417969 121.226562 4.429688 125.757812 7.621094 125.167969 C 11.304688 123.179688 12.011719 122.882812 14.476562 122.765625 C 14.496094 122.726562 13.785156 123.53125 13.964844 123.375 Z M 13.964844 123.375 " fill-opacity="1" fill-rule="nonzero"/></g></svg>