<svg xmlns="http://www.w3.org/2000/svg" xmlns:xlink="http://www.w3.org/1999/xlink" width="500" zoomAndPan="magnify" viewBox="0 0 375 374.999991" height="500" preserveAspectRatio="xMidYMid meet" version="1.0"><defs><clipPath id="63b7d14158"><path d="M 347 78 L 353.484375 78 L 353.484375 84 L 347 84 Z M 347 78 " clip-rule="nonzero"/></clipPath></defs><path fill="#ff2e63" d="M 150.789062 27.003906 C 154.089844 26.558594 159.144531 26 161.804688 28.542969 C 164.261719 30.882812 162.003906 32.925781 159.449219 33.503906 C 157.9375 33.835938 153.332031 33.625 153.167969 35.960938 C 153.050781 37.351562 155.539062 39.4375 155.835938 41.140625 C 155.902344 41.519531 161.570312 38.300781 162.058594 38.15625 C 165.617188 36.976562 167.308594 40.542969 169.652344 42.496094 C 172.234375 44.628906 175.703125 44.324219 178.800781 45.152344 C 187.664062 47.53125 194.246094 50.894531 197.222656 60.011719 C 197.914062 62.148438 200.535156 66.503906 198.894531 68.730469 C 197.351562 70.792969 191.203125 69.109375 192.574219 73.28125 C 197.765625 71.929688 206.078125 72.417969 210.617188 74.804688 C 213.066406 76.085938 214.464844 78.214844 216.761719 79.6875 C 219.445312 81.382812 222.511719 80.695312 225.410156 79.992188 C 231.144531 78.582031 230.222656 72.117188 234.785156 69.332031 C 239.917969 66.183594 246.699219 72.664062 249.769531 76.390625 C 253.027344 80.3125 255.339844 87.773438 260.648438 88.214844 C 263.773438 88.472656 267.1875 87.832031 270.132812 88.519531 C 272.710938 89.117188 275.085938 91.207031 277.835938 90.882812 C 274.582031 86.652344 269.980469 86.332031 266.042969 83.613281 C 263.332031 81.761719 262.878906 79.347656 261.804688 76.488281 C 260.917969 74.160156 259.925781 72.761719 257.992188 70.894531 C 256.347656 69.277344 253.199219 66.785156 254.847656 64.003906 C 256.136719 61.847656 260.648438 62.5 257.421875 59.328125 C 255.8125 57.738281 252.121094 58.007812 250.152344 57.191406 C 247.707031 56.164062 247.101562 54.101562 245.769531 52.183594 C 240.234375 44.246094 226.128906 37.210938 216.789062 34.867188 C 213.828125 34.125 210.859375 33.046875 207.832031 32.554688 C 204.976562 32.082031 201.824219 32.851562 199.046875 31.800781 C 196.578125 30.878906 195.761719 28.589844 194.019531 26.824219 C 194.019531 26.824219 190.746094 24.34375 190.859375 24.382812 C 188.363281 23.609375 188.9375 24.4375 187.820312 25.945312 C 187.460938 26.425781 187.414062 27.546875 186.933594 28.195312 C 186.378906 28.957031 185.691406 28.304688 185.152344 28.769531 C 182.621094 31.035156 180.894531 34.148438 178.03125 36.132812 C 175.8125 37.652344 173.285156 39.164062 170.597656 38.472656 C 167.5625 37.695312 167.683594 35.730469 167.207031 32.980469 C 166.636719 29.75 166.089844 26.5 165.085938 23.359375 C 164.15625 20.425781 163.496094 16.96875 160.035156 16.328125 C 157.683594 15.890625 143.527344 15.890625 145.726562 20.226562 C 147.234375 23.199219 152.109375 22.347656 150.789062 27.003906 " fill-opacity="1" fill-rule="nonzero"/><path fill="#ff2e63" d="M 295.5 213.582031 C 295.375 210.480469 295 207.058594 293.214844 204.4375 C 291.390625 201.773438 289.125 198.992188 286.878906 196.738281 C 285.0625 194.878906 282.324219 193.597656 280.664062 191.652344 C 280.007812 190.867188 279.769531 189.976562 279.257812 189.109375 C 278.960938 188.625 278.199219 188.105469 278.050781 187.53125 C 277.902344 187.011719 278.480469 186.363281 278.277344 185.976562 C 277.519531 184.546875 275.125 184.730469 273.359375 184.09375 C 272.941406 182.484375 274.070312 182.046875 274.867188 180.960938 C 276.015625 179.375 276.09375 179.734375 274.628906 178.34375 C 272.65625 176.476562 269.777344 175.609375 267.800781 173.746094 C 266.035156 172.078125 265.929688 169.777344 264.378906 167.96875 C 262.828125 166.167969 261.238281 166.308594 259.980469 164.0625 C 258.804688 161.9375 257.71875 161.796875 255.300781 160.917969 C 253.53125 160.269531 251.167969 159.070312 249.746094 157.835938 C 248.148438 156.445312 247.878906 153.875 247.722656 151.769531 C 247.558594 149.59375 248.226562 147.683594 248 145.515625 C 247.730469 142.980469 246.558594 141.757812 245.316406 139.777344 C 244.296875 138.136719 244.257812 136.277344 243.492188 134.59375 C 242.691406 132.78125 241.710938 131.332031 241.183594 129.332031 C 240.667969 127.378906 240.390625 125.546875 239.109375 123.847656 C 237.503906 121.699219 236.054688 122.300781 233.613281 122.023438 C 227.761719 121.335938 230.132812 116.6875 228.160156 112.882812 C 226.941406 110.570312 221.058594 105.664062 218.261719 106.386719 C 218.007812 110.554688 218.140625 114.339844 217.183594 118.359375 C 216.273438 122.175781 216.386719 126.074219 216.394531 130.113281 C 216.410156 133.566406 215.832031 137.3125 213.984375 140.222656 C 212.371094 142.777344 210.308594 147.039062 207.265625 147.597656 C 205.0625 148.003906 202.6875 147.359375 201.003906 145.972656 C 199.488281 144.722656 198.921875 142.90625 197.542969 141.605469 C 195.875 140.023438 193.574219 139.832031 191.828125 138.253906 C 190.179688 136.738281 189.609375 135.554688 187.160156 135.074219 C 184.46875 134.523438 184.628906 133.292969 182.804688 131.859375 C 181.773438 131.058594 180.863281 131.625 179.851562 131.160156 C 178.882812 130.71875 178.59375 130.035156 177.957031 129.132812 C 176.992188 127.773438 175.425781 126.746094 174.574219 125.476562 C 173.609375 124.058594 173.644531 121.074219 175.054688 119.988281 C 176.570312 118.8125 178.488281 120.050781 178.464844 117.390625 C 175.183594 117.503906 175.402344 112.816406 177.109375 111.132812 C 178.941406 109.308594 182.988281 109.253906 181.074219 105.152344 C 179.15625 101.039062 176.363281 104.304688 174.039062 105.570312 C 170.117188 107.71875 171.308594 105.433594 169.714844 102.777344 C 168.378906 100.570312 165.40625 101.25 163.296875 101.535156 C 162.191406 101.671875 160.816406 101.988281 159.773438 101.449219 C 158.769531 100.933594 157.269531 100.003906 156.464844 99.203125 C 155.660156 98.441406 155.285156 98.140625 154.269531 97.875 C 153.140625 97.578125 152.429688 97.179688 151.828125 96.136719 C 151.367188 95.3125 151.113281 93.875 150.347656 93.285156 C 149.726562 94.144531 149.445312 95.570312 149.703125 96.691406 C 149.964844 97.804688 151.046875 98.214844 151.925781 98.917969 C 153.277344 100.007812 153.515625 103.097656 151.507812 103.679688 C 150.558594 103.949219 150.007812 103.632812 149.058594 104.273438 C 148.242188 104.796875 147.703125 105.335938 146.699219 105.441406 C 145.324219 105.601562 144.917969 104.3125 143.1875 105.042969 C 142.097656 105.5 141.335938 107.105469 140.824219 108.164062 C 140.480469 108.886719 140.640625 109.945312 140.15625 110.554688 C 139.710938 111.09375 138.660156 111.074219 138.472656 111.277344 C 136.949219 113.171875 137.457031 113.199219 136.917969 115.621094 C 136.632812 116.84375 135.75 117.761719 135.449219 118.855469 C 134.449219 122.351562 137.894531 122.59375 136.902344 125.785156 C 135.472656 130.4375 132.941406 126.636719 130.351562 126.097656 C 126.734375 125.335938 127.773438 130.292969 124.304688 127.054688 C 122.171875 125.089844 123.316406 121.65625 120.867188 119.914062 C 120.273438 119.484375 119.097656 119.847656 118.496094 119.453125 C 118.226562 119.265625 117.230469 117.925781 117.355469 117.964844 C 116.03125 117.367188 115 117.140625 113.101562 117.246094 C 112.382812 119.253906 111.167969 118.667969 109.898438 119.535156 C 109.078125 120.085938 108.601562 120 107.941406 120.699219 C 107.691406 120.9375 107.863281 122.367188 107.558594 122.675781 C 106.238281 124.035156 104.539062 122.542969 103.21875 123.4375 C 101.835938 124.367188 102.90625 126.0625 101.988281 127.394531 C 100.707031 129.269531 99.5 128.144531 98.925781 130.886719 C 98.59375 132.484375 99.003906 134 98.523438 135.585938 C 97.347656 139.402344 95.8125 137.769531 93.929688 135.230469 C 93.5625 137.421875 96.21875 144.558594 91.886719 145 C 87.980469 145.398438 89.5625 137.097656 85.601562 138.699219 C 82.621094 139.898438 84.726562 146.1875 84.441406 148.503906 C 84.003906 152.042969 80.53125 153.757812 77.863281 155.226562 C 76.082031 161.074219 73.617188 164.261719 67.21875 165.355469 C 61.800781 166.277344 58.125 169.609375 53.121094 172.105469 C 47.195312 175.050781 41.558594 176.425781 36.582031 180.625 C 34.523438 182.347656 32.035156 183.570312 30.507812 185.796875 C 28.796875 188.324219 27.621094 189.886719 25.316406 192.0625 C 21.230469 195.984375 21.269531 203.359375 26.585938 206.378906 C 28.980469 207.742188 31.5625 209.148438 29.550781 212.640625 C 28.285156 214.847656 24.417969 215.0625 23.4375 217.507812 C 22.433594 220.054688 25.476562 222.992188 26.085938 225.246094 C 27.085938 228.867188 27.515625 229.6875 29.925781 232.410156 C 33.765625 236.753906 32.5 243.226562 33.84375 248.445312 C 34.726562 251.867188 35.445312 252.574219 37.757812 255.109375 C 39.789062 257.351562 40.4375 259.230469 38.9375 261.976562 C 38.050781 263.574219 37.425781 262.691406 37.070312 265.191406 C 36.847656 266.703125 37.332031 268.332031 36.992188 269.804688 C 36.269531 272.84375 32.804688 273.789062 33.617188 277.257812 C 34.734375 277.777344 37.183594 278.003906 37.964844 278.777344 C 38.980469 279.785156 38.652344 281.515625 39.527344 282.722656 C 41.472656 285.417969 45.230469 285.496094 48.054688 284.796875 C 54.183594 283.253906 60.019531 278.921875 66.132812 277.023438 C 69.207031 276.085938 71.898438 275.386719 74.671875 273.335938 C 76.949219 271.648438 79.207031 269.71875 81.796875 268.417969 C 86.667969 265.988281 91.640625 263.441406 96.484375 261.179688 C 102.429688 258.425781 108.222656 259.476562 114.515625 260.972656 C 120.121094 262.320312 124.039062 258.976562 128.957031 257.042969 C 134.203125 254.980469 141.191406 254.832031 146.613281 256.277344 C 148.886719 256.890625 151.011719 258.152344 153.355469 258.613281 C 155.792969 259.105469 158.242188 259.15625 160.429688 260.402344 C 165.140625 263.046875 165.484375 266.871094 168.332031 270.578125 C 169.613281 272.242188 171.441406 273.03125 172.640625 274.90625 C 174.152344 277.242188 174.160156 279.664062 174.574219 282.367188 C 177.359375 283.007812 181.484375 278.417969 182.640625 276.15625 C 184.035156 273.402344 183.960938 268.59375 187.8125 267.628906 C 193.589844 266.128906 191.851562 272.28125 190.066406 274.894531 C 187.472656 278.660156 186.328125 281.125 186.730469 285.902344 C 189.183594 283.996094 190.628906 281.554688 192.207031 278.96875 C 194.835938 279.738281 196.402344 281.808594 196.433594 284.378906 C 196.449219 285.476562 195.289062 286.964844 195.640625 287.90625 C 196.25 289.566406 196.902344 288.453125 198.097656 289.375 C 199.863281 290.734375 201.488281 292.554688 202.800781 294.476562 C 204.5 296.964844 204.859375 297.144531 207.808594 298.371094 C 213.523438 300.769531 218.328125 303.421875 222.269531 308.253906 C 224.25 310.703125 226.558594 314.382812 229.71875 314.527344 C 232.886719 314.691406 233.667969 311.644531 236.347656 310.984375 C 238.882812 310.367188 241.890625 312.886719 243.734375 314.242188 C 246.480469 316.273438 248.878906 317.273438 252.425781 316.195312 C 254.917969 315.4375 257.429688 313.328125 259.589844 311.898438 C 262.980469 309.632812 264.304688 311 268.074219 311 C 272.378906 311.015625 272.796875 309.824219 272.3125 306.003906 C 271.886719 302.757812 271.976562 300.308594 273.65625 297.402344 C 275.296875 294.53125 275.890625 291.417969 277.375 288.605469 C 278.820312 285.871094 280.769531 283.792969 281.894531 280.878906 C 283.191406 277.582031 283.507812 274.367188 285.011719 271.058594 C 286.226562 268.414062 288.320312 266.460938 289.53125 264.019531 C 292.273438 258.511719 294.234375 254.164062 294.019531 247.882812 C 293.855469 243.03125 294.113281 238.324219 294.707031 233.472656 C 294.96875 231.265625 294.648438 228.574219 295.226562 226.433594 C 295.90625 223.890625 297.128906 222.988281 296.546875 220.175781 C 296.082031 217.839844 295.601562 216.007812 295.5 213.582031 " fill-opacity="1" fill-rule="nonzero"/><path fill="#ff2e63" d="M 258.363281 336.917969 C 257.101562 340.125 255.0625 339.796875 252.007812 340.371094 C 250.421875 340.675781 247.328125 341.835938 245.664062 340.816406 C 243.308594 341.835938 246.453125 343.984375 247.433594 344.964844 C 248.6875 346.210938 249.6875 347.785156 250.4375 349.375 C 251.257812 351.101562 252.109375 352.828125 252.8125 354.46875 C 253.777344 356.789062 253.835938 359.113281 255.933594 356.023438 C 258.226562 352.683594 259.105469 348.582031 261.042969 345.175781 C 262.285156 342.980469 263.925781 335.195312 258.363281 336.917969 " fill-opacity="1" fill-rule="nonzero"/><path fill="#ff2e63" d="M 267.308594 57.089844 L 266.707031 56.898438 C 266.863281 57.042969 266.855469 57.007812 267.054688 57.132812 C 268.167969 57.835938 269.753906 58.621094 271.019531 59.1875 C 272.460938 59.84375 273.84375 59.523438 275.316406 59.425781 C 276.898438 59.328125 278.582031 59.554688 280.0625 59.285156 C 281.492188 59.011719 282.28125 58.378906 283.507812 57.613281 C 284.6875 56.898438 286.132812 56.738281 287.019531 55.65625 C 287.863281 54.632812 287.777344 53.230469 288.59375 52.140625 C 289.523438 50.882812 290.949219 50.738281 291.1875 49.0625 C 291.417969 47.28125 290.261719 46.0625 288.445312 46.902344 C 286.335938 47.859375 285.304688 51.042969 283.21875 52.429688 C 281.929688 53.273438 280.683594 53.273438 279.4375 53.949219 C 278.175781 54.632812 277.160156 55.679688 275.769531 56.152344 C 274.332031 56.644531 273.042969 56.394531 271.605469 56.101562 C 270.097656 55.8125 269.574219 54.929688 268.332031 54.089844 C 267.59375 53.585938 265.207031 52.613281 264.5 53.695312 C 263.699219 54.910156 266.539062 56.398438 267.308594 57.089844 " fill-opacity="1" fill-rule="nonzero"/><path fill="#ff2e63" d="M 311.40625 55.691406 C 310.871094 55.398438 310.320312 55.078125 309.960938 54.558594 C 309.605469 54.039062 309.640625 53.171875 308.808594 53.164062 C 308.464844 55.773438 309.050781 58.039062 310.636719 60.15625 C 311.398438 61.191406 312.914062 61.308594 313.703125 62.296875 C 314.269531 63.011719 314.152344 65.421875 315.800781 64.539062 C 317.757812 63.492188 315.386719 58.902344 314.621094 57.734375 C 313.917969 56.667969 312.484375 56.269531 311.40625 55.691406 " fill-opacity="1" fill-rule="nonzero"/><path fill="#ff2e63" d="M 344.003906 77.851562 C 344.890625 73.117188 331.988281 74.132812 334.390625 70.074219 L 334.117188 70.597656 C 332.988281 71.316406 333.734375 74.363281 334.570312 75.355469 C 335.820312 76.796875 337.75 76.511719 339.566406 76.632812 C 339.847656 78.691406 342.542969 78.445312 344.003906 77.851562 " fill-opacity="1" fill-rule="nonzero"/><path fill="#ff2e63" d="M 138.738281 101.519531 C 140.613281 101.394531 142.445312 102.085938 144.226562 101.519531 C 146.089844 100.933594 145.886719 98.503906 144.492188 97.457031 C 142.347656 95.835938 140.921875 98.296875 139 98.878906 C 138.191406 99.132812 136.828125 99.132812 137.441406 100.34375 C 137.871094 101.234375 137.917969 101.519531 138.738281 101.519531 " fill-opacity="1" fill-rule="nonzero"/><path fill="#ff2e63" d="M 185.203125 291.792969 C 184.328125 291.890625 183.472656 291.164062 182.621094 291.457031 C 182.023438 291.65625 181.6875 292.441406 181.15625 292.875 C 181.097656 293.320312 181.296875 293.863281 181.320312 294.199219 C 181.351562 294.601562 181.234375 295.0625 181.296875 295.480469 C 181.441406 296.597656 181.839844 296.730469 182.988281 296.648438 C 183.933594 296.570312 184.53125 296.4375 185.464844 296.386719 C 186.378906 296.34375 187.199219 295.960938 187.433594 294.960938 C 187.578125 294.320312 187.398438 292.792969 187.160156 292.214844 C 186.671875 290.980469 186.210938 291.667969 185.203125 291.792969 " fill-opacity="1" fill-rule="nonzero"/><path fill="#ff2e63" d="M 346.910156 85.457031 C 345.589844 84.742188 343.738281 85.070312 342.230469 85.070312 L 342.800781 85.265625 C 341.808594 85.3125 341.65625 86.300781 342.03125 87.027344 C 342.421875 87.757812 343.058594 87.730469 343.785156 87.808594 C 344.640625 87.921875 345.316406 87.832031 346.152344 88.058594 C 346.933594 88.273438 346.839844 88.683594 347.742188 88.4375 C 349.578125 87.957031 348.171875 86.113281 346.910156 85.457031 " fill-opacity="1" fill-rule="nonzero"/><g clip-path="url(#63b7d14158)"><path fill="#ff2e63" d="M 352.207031 80.367188 C 351.234375 79.210938 349.40625 78.8125 348.003906 78.25 L 348.476562 78.648438 C 347.515625 78.308594 347.007812 79.167969 347.085938 79.988281 C 347.171875 80.816406 347.777344 81.015625 348.425781 81.375 C 349.171875 81.78125 349.847656 81.972656 350.515625 82.480469 C 351.160156 82.988281 350.914062 83.324219 351.863281 83.441406 C 353.746094 83.679688 353.105469 81.441406 352.207031 80.367188 " fill-opacity="1" fill-rule="nonzero"/></g></svg>