<svg xmlns="http://www.w3.org/2000/svg" xmlns:xlink="http://www.w3.org/1999/xlink" width="500" zoomAndPan="magnify" viewBox="0 0 375 374.999991" height="500" preserveAspectRatio="xMidYMid meet" version="1.0"><defs><clipPath id="d7e8ef9b7a"><path d="M 101.375 19 L 300 19 L 300 343.6875 L 101.375 343.6875 Z M 101.375 19 " clip-rule="nonzero"/></clipPath></defs><g clip-path="url(#d7e8ef9b7a)"><path fill="#ff2e63" d="M 144.023438 28.0625 C 143.207031 27.128906 144.488281 25.613281 145.070312 25.496094 C 145.652344 25.378906 145.769531 24.914062 146.351562 24.5625 C 146.9375 24.214844 149.617188 23.398438 149.617188 23.398438 L 151.949219 23.046875 L 156.84375 24.445312 C 156.960938 25.613281 158.472656 27.363281 158.472656 27.363281 L 166.742188 27.011719 C 167.089844 28.179688 168.472656 29.109375 170.222656 29.226562 C 171.972656 29.34375 174.273438 27.710938 174.273438 27.710938 C 174.273438 27.710938 175.257812 27.59375 176.1875 27.480469 C 177.121094 27.363281 175.21875 26.953125 174.574219 26.953125 C 173.929688 26.953125 174.574219 26.546875 174.574219 26.546875 L 183.722656 26.664062 C 183.722656 26.664062 181.566406 27.363281 180.867188 27.480469 C 180.167969 27.59375 179.933594 28.0625 179.933594 28.0625 C 179.933594 28.0625 181.101562 28.527344 181.566406 28.878906 C 182.03125 29.226562 182.148438 29.460938 182.148438 29.460938 L 182.730469 30.394531 C 182.730469 30.394531 184.363281 30.394531 184.949219 30.628906 C 185.53125 30.859375 185.765625 30.742188 187.863281 32.027344 C 189.960938 33.308594 188.910156 35.640625 188.910156 35.640625 C 188.910156 35.640625 188.910156 35.640625 188.210938 35.757812 C 187.511719 35.875 189.261719 36.457031 189.261719 36.457031 L 190.660156 36.339844 C 190.660156 36.339844 191.128906 35.640625 192.058594 35.640625 C 192.992188 35.640625 193.574219 37.039062 193.574219 37.039062 L 194.507812 36.691406 C 194.507812 36.691406 196.957031 38.90625 198.121094 40.304688 C 199.289062 41.703125 198.9375 43.101562 198.9375 43.101562 C 199.289062 43.101562 202.085938 43.6875 202.4375 44.386719 C 202.785156 45.085938 203.601562 45.550781 204.070312 46.015625 C 204.535156 46.484375 205 47.53125 205 47.53125 L 205.816406 46.949219 C 205.816406 46.949219 206.402344 47.183594 207.566406 47.300781 C 208.734375 47.417969 210.832031 47.300781 211.765625 47.300781 C 212.699219 47.300781 213.980469 46.832031 213.980469 46.832031 L 218.175781 47.765625 C 218.175781 47.765625 219.34375 48.347656 220.277344 48.699219 C 221.210938 49.046875 222.609375 49.75 222.609375 49.75 C 222.609375 49.75 224.472656 50.566406 225.40625 51.261719 C 226.339844 51.964844 226.921875 52.664062 227.503906 53.246094 C 228.089844 53.828125 228.789062 54.410156 228.789062 54.410156 L 229.488281 54.179688 L 230.769531 56.160156 L 231.585938 58.960938 L 233.21875 64.441406 C 233.21875 64.441406 233.683594 64.441406 234.386719 64.789062 C 235.085938 65.140625 235.550781 65.257812 235.550781 65.257812 C 235.203125 66.1875 234.96875 68.289062 234.96875 68.289062 L 234.035156 68.753906 L 233.570312 69.804688 C 233.570312 69.804688 232.285156 70.621094 231.121094 71.554688 C 229.953125 72.484375 229.605469 73.882812 229.605469 73.882812 L 229.488281 75.050781 C 229.957031 75.167969 229.839844 76.683594 229.839844 76.683594 L 230.65625 76.917969 L 231.121094 75.867188 L 232.289062 75.75 L 232.054688 76.214844 L 231.472656 76.566406 L 232.519531 77.617188 L 232.871094 80.0625 L 237.882812 79.945312 L 237.769531 82.28125 L 238.585938 82.164062 C 238.585938 82.164062 238.816406 81.347656 239.167969 80.882812 C 239.515625 80.414062 239.285156 79.71875 239.867188 79.136719 C 240.449219 78.554688 242.082031 78.210938 242.082031 78.210938 L 242.429688 76.589844 L 243.132812 76.265625 C 243.132812 76.265625 243.714844 74.804688 245.347656 74.6875 C 246.980469 74.570312 250.128906 76.394531 250.128906 76.394531 L 251.644531 76.394531 C 251.644531 76.394531 253.273438 77.238281 254.207031 77.585938 C 255.140625 77.9375 255.023438 79.246094 255.023438 79.246094 L 256.773438 78.316406 C 257.472656 78.316406 258.40625 79.945312 258.40625 79.945312 L 257.9375 81.464844 L 258.753906 81.347656 L 259.453125 81.933594 L 258.753906 83.6875 C 260.035156 84.269531 262.601562 81.949219 262.601562 81.949219 L 263.417969 82.789062 L 264.585938 82.714844 C 264.585938 82.714844 266.335938 83.503906 268.316406 84.089844 C 270.296875 84.671875 274.089844 84.761719 274.089844 84.761719 L 278.109375 84.761719 C 278.109375 84.761719 280.441406 85.617188 282.425781 87.019531 C 284.40625 88.417969 286.039062 90.089844 287.320312 91.253906 C 288.605469 92.421875 290.003906 93.355469 290.003906 93.355469 L 290.820312 93.238281 L 291.753906 93.472656 C 291.753906 93.472656 292.683594 93.585938 295.015625 93.820312 C 297.347656 94.054688 298.28125 96.269531 298.515625 97.785156 C 298.75 99.300781 299.679688 100.234375 299.679688 100.234375 C 299.679688 100.234375 299.097656 105.480469 297.933594 109.5625 C 296.765625 113.640625 291.871094 117.023438 290.820312 118.074219 C 289.769531 119.121094 288.253906 119.707031 287.671875 122.152344 C 287.089844 124.601562 284.289062 126.816406 284.289062 126.816406 C 284.289062 126.816406 284.289062 126.816406 283.125 127.050781 C 281.957031 127.285156 281.609375 130.082031 281.492188 132.765625 C 281.375 135.445312 282.191406 139.410156 282.191406 139.410156 L 280.441406 147.804688 L 279.394531 148.855469 L 278.460938 155.96875 L 277.0625 157.601562 L 276.476562 159.699219 L 272.980469 164.011719 C 272.628906 168.09375 271.347656 168.09375 270.066406 168.675781 C 268.78125 169.261719 268.78125 170.425781 268.316406 171.007812 C 267.851562 171.589844 264.351562 171.242188 264.351562 171.242188 L 262.136719 171.476562 L 260.503906 171.707031 C 260.503906 171.707031 258.988281 171.589844 258.289062 171.589844 C 257.589844 171.589844 257.941406 173.222656 257.941406 173.222656 C 257.941406 173.222656 256.425781 173.105469 255.839844 173.6875 C 255.257812 174.273438 253.742188 175.089844 253.742188 175.089844 C 253.742188 175.089844 252.925781 174.972656 252.226562 175.4375 C 251.527344 175.902344 249.894531 176.253906 249.894531 176.253906 C 249.894531 176.253906 246.398438 179.285156 244.648438 180.453125 C 242.898438 181.617188 240.566406 186.046875 240.566406 186.046875 L 240.917969 188.847656 L 241.265625 192.113281 L 240.449219 196.777344 C 240.449219 196.777344 239.519531 197.941406 237.652344 199.574219 C 235.785156 201.207031 233.921875 207.035156 233.222656 207.96875 C 232.519531 208.902344 229.957031 212.75 229.957031 212.75 C 229.957031 212.75 226.574219 215.3125 225.527344 216.128906 C 224.476562 216.945312 224.359375 219.046875 224.359375 219.046875 L 221.910156 222.195312 C 221.910156 222.195312 221.09375 222.542969 219.230469 225.691406 C 217.363281 228.839844 214.449219 229.773438 213.632812 229.539062 C 212.816406 229.308594 208.734375 229.074219 208.734375 229.074219 L 203.957031 227.441406 L 201.15625 226.742188 L 199.058594 224.757812 L 198.824219 226.507812 L 200.105469 228.257812 C 200.105469 228.257812 204.652344 231.40625 204.304688 232.339844 C 203.953125 233.269531 203.488281 234.667969 204.1875 235.953125 C 204.886719 237.234375 206.402344 237.234375 206.402344 237.234375 L 206.285156 240.148438 C 206.285156 240.148438 204.1875 243.296875 203.371094 244.347656 C 202.554688 245.398438 202.320312 247.261719 202.320312 247.261719 L 198.125 248.894531 L 192.527344 250.292969 C 192.527344 250.292969 187.746094 250.992188 185.53125 251.109375 C 183.316406 251.226562 182.734375 249.945312 182.734375 249.945312 L 182.964844 252.742188 C 184.132812 254.257812 183.433594 255.773438 183.433594 255.773438 L 182.851562 256.125 C 182.851562 256.125 182.148438 257.171875 182.265625 258.105469 C 182.382812 259.039062 182.617188 259.039062 182.851562 260.554688 C 183.082031 262.070312 181.683594 262.1875 180.867188 262.417969 C 180.050781 262.652344 179.46875 263.238281 178.535156 263.351562 C 177.601562 263.46875 176.085938 263.121094 175.386719 262.886719 C 174.6875 262.652344 174.105469 261.953125 173.289062 261.71875 C 172.472656 261.488281 172.007812 260.902344 171.539062 260.4375 C 171.074219 259.972656 170.722656 261.488281 170.722656 261.488281 C 170.722656 261.488281 170.492188 263.117188 170.722656 264.050781 C 170.957031 264.984375 171.074219 266.734375 171.191406 267.78125 C 171.308594 268.832031 172.125 269.066406 172.125 269.066406 L 173.171875 269.882812 C 172.707031 270.582031 173.523438 270.464844 174.457031 270.230469 C 175.386719 270 174.457031 269.066406 174.457031 269.066406 L 175.738281 268.949219 L 176.789062 268.480469 C 176.789062 268.480469 177.253906 270.230469 177.253906 271.628906 C 177.253906 273.027344 175.621094 272.914062 174.921875 272.796875 C 174.222656 272.679688 174.457031 273.035156 173.757812 272.453125 C 173.054688 271.867188 172.242188 271.164062 171.539062 271.863281 C 170.839844 272.5625 172.125 273.03125 173.289062 273.496094 C 174.457031 273.960938 173.988281 274.429688 173.171875 274.664062 C 172.355469 274.894531 171.425781 275.945312 170.609375 276.878906 C 169.792969 277.808594 170.726562 279.441406 170.726562 279.441406 C 170.726562 279.441406 170.375 282.007812 169.792969 282.707031 C 169.210938 283.40625 168.277344 283.523438 168.859375 284.105469 C 169.441406 284.6875 169.09375 285.855469 169.09375 285.855469 C 169.09375 285.855469 167.109375 285.738281 166.292969 285.738281 C 165.476562 285.738281 164.894531 286.789062 164.894531 286.789062 C 164.894531 286.789062 163.960938 287.019531 163.378906 287.253906 C 162.796875 287.488281 162.332031 288.421875 160.929688 290.984375 C 159.53125 293.550781 161.046875 294.601562 161.746094 295.300781 C 162.449219 296 163.613281 297.398438 164.894531 298.214844 C 166.179688 299.03125 166.996094 298.332031 167.695312 298.5625 C 168.394531 298.796875 168.394531 299.613281 168.628906 300.429688 C 168.859375 301.246094 167.929688 302.179688 167.929688 302.179688 L 168.042969 304.042969 L 167.460938 304.160156 L 167.347656 305.210938 C 167.347656 305.210938 166.648438 304.976562 166.066406 305.328125 C 165.480469 305.675781 162.804688 308.359375 161.523438 309.757812 C 160.238281 311.15625 159.664062 312.789062 159.664062 312.789062 L 160.265625 312.90625 C 160.265625 312.90625 159.015625 316.871094 158.082031 317.335938 C 157.148438 317.804688 155.90625 315.53125 155.90625 315.53125 L 155.90625 317.101562 L 156.550781 318.152344 C 156.550781 318.152344 156.5 318.148438 155.332031 319.082031 C 154.167969 320.015625 153.816406 320.710938 153.585938 321.761719 C 153.351562 322.8125 152.769531 323.972656 152.769531 323.972656 L 153.585938 324.078125 C 154.285156 325.707031 154.109375 327.464844 154.109375 327.464844 L 152.652344 327.464844 L 153.46875 328.171875 L 154.285156 328.414062 C 154.632812 329.230469 156.964844 332.726562 156.964844 332.726562 C 156.964844 332.726562 155.566406 332.84375 154.867188 332.609375 C 154.167969 332.378906 153.933594 332.261719 153 332.609375 C 152.070312 332.960938 152.300781 333.195312 151.484375 333.542969 C 150.667969 333.894531 149.269531 334.476562 148.335938 334.941406 C 147.40625 335.410156 146.820312 335.757812 146.820312 335.757812 C 146.820312 335.757812 146.707031 337.390625 146.472656 337.859375 C 146.238281 338.324219 146.003906 339.839844 145.890625 340.890625 C 145.773438 341.9375 145.65625 342.40625 145.074219 343.222656 C 144.488281 344.039062 141.925781 342.171875 140.757812 341.472656 C 139.59375 340.773438 140.175781 339.722656 140.175781 339.722656 L 140.992188 339.257812 L 141.109375 340.421875 C 141.109375 340.421875 141.691406 340.539062 142.15625 339.722656 C 142.625 338.90625 143.089844 338.90625 144.140625 338.558594 C 145.1875 338.207031 145.421875 336.457031 145.421875 336.457031 C 145.421875 336.457031 144.722656 336.222656 144.140625 335.292969 C 143.558594 334.359375 143.789062 334.589844 142.625 334.125 C 141.457031 333.660156 139.59375 334.824219 139.59375 334.824219 L 139.242188 334.125 L 138.308594 333.660156 C 138.308594 333.660156 138.308594 334.125 139.359375 332.84375 C 140.410156 331.558594 138.777344 330.277344 138.777344 330.277344 L 139.242188 329.925781 C 140.058594 329.109375 138.777344 328.878906 138.777344 328.878906 C 138.308594 329.808594 137.609375 328.527344 137.027344 328.410156 C 136.445312 328.292969 137.492188 328.644531 137.261719 329.695312 C 137.027344 330.742188 136.445312 329.695312 136.445312 329.695312 C 136.445312 329.695312 136.445312 329.695312 135.976562 330.742188 C 135.511719 331.792969 135.160156 330.277344 135.042969 328.527344 C 134.929688 326.777344 133.878906 325.613281 133.179688 324.914062 C 132.480469 324.214844 132.710938 323.164062 132.710938 323.164062 C 132.710938 323.164062 133.761719 322.933594 134.34375 322.699219 C 134.929688 322.464844 134.230469 321.183594 133.878906 321.648438 C 133.527344 322.117188 132.828125 321.53125 132.597656 320.949219 C 132.363281 320.367188 133.644531 320.484375 133.644531 320.484375 C 133.644531 320.484375 132.710938 319.550781 132.011719 319.433594 C 131.3125 319.316406 130.847656 318.382812 130.847656 317.800781 C 130.847656 317.21875 131.429688 317.453125 131.78125 317.101562 C 132.128906 316.75 132.011719 315.234375 132.128906 314.652344 C 132.246094 314.070312 133.179688 314.421875 133.179688 314.421875 L 134.113281 314.1875 L 133.527344 313.253906 L 133.878906 311.390625 C 133.878906 311.390625 133.179688 312.09375 132.363281 313.261719 C 131.546875 314.425781 131.898438 309.1875 131.898438 309.1875 L 132.480469 308.734375 L 132.011719 308.179688 L 132.246094 307.507812 L 133.179688 307.507812 L 134.113281 307.640625 L 133.761719 306.375 C 133.296875 306.722656 131.546875 306.839844 131.546875 306.839844 L 130.847656 303.808594 L 131.3125 303.691406 C 132.015625 303.808594 132.246094 305.324219 132.246094 305.324219 L 132.480469 304.160156 C 132.480469 304.160156 132.945312 304.042969 133.644531 304.390625 C 134.34375 304.742188 135.511719 305.207031 135.511719 305.207031 C 135.511719 305.207031 134.695312 304.277344 134.34375 303.34375 C 133.996094 302.410156 134.113281 302.058594 134.113281 302.058594 C 134.113281 302.058594 133.414062 302.761719 132.710938 302.410156 C 132.011719 302.058594 133.0625 301.476562 133.0625 301.476562 C 133.0625 301.476562 133.0625 301.476562 132.011719 300.894531 C 130.964844 300.3125 130.847656 300.078125 131.429688 299.613281 C 132.011719 299.144531 132.828125 298.796875 132.828125 298.796875 C 132.128906 298.445312 132.363281 298.5625 132.945312 297.980469 C 133.527344 297.398438 132.710938 296.929688 132.011719 296.347656 C 131.3125 295.765625 131.195312 296.117188 130.496094 296.699219 C 129.796875 297.28125 128.746094 295.765625 128.28125 295.417969 C 127.816406 295.066406 127.117188 296.121094 127.117188 296.121094 C 127.699219 296.351562 127.230469 297.523438 127.230469 297.523438 C 126.414062 297.523438 126.300781 296.71875 126.300781 296.71875 L 126.765625 295.226562 C 128.046875 294.175781 128.75 293.402344 128.75 293.402344 C 128.75 293.402344 128.75 293.488281 129.332031 293.257812 C 129.914062 293.023438 129.796875 292.699219 129.796875 292.699219 L 129.214844 292.699219 C 128.28125 292.699219 128.515625 291.203125 128.515625 291.203125 L 129.796875 290.632812 C 129.796875 290.632812 130.265625 291.101562 130.613281 291.101562 C 130.964844 291.101562 131.546875 290.75 131.546875 290.75 L 132.246094 291.21875 C 131.664062 292.035156 132.710938 292.265625 132.710938 292.265625 L 132.59375 292.734375 C 131.664062 293.550781 133.0625 294.367188 133.0625 294.367188 L 133.878906 293.667969 C 133.878906 293.667969 134.113281 295.066406 134.34375 294.601562 C 134.578125 294.132812 135.511719 293.085938 135.511719 293.085938 C 135.511719 293.085938 136.09375 291.21875 136.210938 290.867188 C 136.328125 290.519531 134.925781 292.851562 134.925781 292.851562 L 135.160156 290.402344 L 135.859375 290.285156 L 135.742188 289.820312 L 136.4375 289.351562 L 136.546875 288.769531 L 135.367188 289.238281 C 135.367188 289.238281 134.871094 288.769531 135.453125 288.070312 C 136.035156 287.371094 136.328125 287.835938 137.261719 288.304688 C 138.195312 288.769531 137.878906 288.59375 137.878906 288.59375 L 137.878906 288.070312 C 137.878906 288.070312 137.511719 287.71875 136.925781 287.488281 C 136.34375 287.253906 135.742188 287.136719 135.742188 287.136719 L 136.210938 285.855469 C 136.210938 285.855469 136.210938 285.855469 137.140625 285.738281 C 138.074219 285.621094 137.375 286.320312 138.425781 284.570312 C 139.472656 282.824219 137.84375 281.890625 137.027344 281.191406 C 136.210938 280.492188 136.210938 280.257812 136.210938 280.257812 L 136.792969 280.023438 L 137.140625 278.976562 L 137.605469 278.160156 C 137.605469 278.160156 138.421875 278.042969 137.488281 277.109375 C 136.558594 276.175781 137.484375 275.59375 137.953125 274.777344 C 138.417969 273.960938 138.296875 271.863281 138.296875 271.863281 L 138.984375 271.28125 C 138.984375 271.28125 138.257812 270.464844 138.605469 269.765625 C 138.957031 269.066406 139.488281 270.230469 139.488281 270.230469 L 139.273438 268.25 L 137.875 267.957031 L 137.875 267.199219 L 139.957031 266.148438 C 139.023438 266.734375 139.007812 265.800781 138.191406 265.332031 C 137.375 264.867188 137.257812 265.683594 136.792969 266.382812 C 136.324219 267.082031 134.578125 266.382812 134.578125 266.382812 C 134.578125 265.449219 133.644531 265.21875 133.644531 265.21875 C 132.945312 263.816406 134.226562 259.851562 134.226562 259.851562 L 134.460938 256.238281 C 137.023438 252.390625 134.574219 249.125 134.574219 249.125 C 135.507812 247.609375 134.460938 245.046875 134.460938 245.046875 L 134.691406 242.132812 C 134.691406 242.132812 135.042969 241.429688 135.507812 241.546875 C 135.976562 241.664062 136.324219 241.664062 136.324219 241.664062 C 136.324219 241.664062 136.324219 240.5 136.558594 239.101562 C 136.792969 237.703125 137.257812 238.867188 137.257812 238.867188 L 138.542969 235.253906 C 138.542969 235.253906 139.476562 232.6875 140.523438 230.589844 C 141.574219 228.488281 142.15625 224.410156 142.15625 224.410156 L 142.859375 223.710938 L 142.984375 220.796875 C 144.5 218.464844 143.027344 215.488281 143.027344 215.488281 L 143.027344 213.566406 L 142.707031 211.46875 L 142.503906 206.453125 C 143.902344 205.753906 143.785156 205.753906 143.902344 203.890625 C 144.019531 202.023438 143.4375 202.488281 143.085938 201.558594 C 142.738281 200.625 143.667969 199.34375 144.371094 198.292969 C 145.070312 197.242188 145.070312 194.445312 145.070312 194.445312 L 145.652344 193.394531 L 145.417969 191.644531 C 145.417969 191.644531 145.886719 192.347656 146.585938 190.015625 C 147.285156 187.683594 146.585938 186.050781 146.46875 185.464844 C 146.351562 184.882812 147.632812 182.785156 147.632812 182.785156 C 147.632812 182.785156 147.515625 177.304688 147.632812 175.90625 C 147.746094 174.507812 147.511719 174.507812 147.160156 173.921875 C 146.8125 173.339844 147.617188 172.523438 148.085938 171.941406 C 148.550781 171.359375 148.652344 170.191406 148.652344 169.144531 C 148.652344 168.09375 149.203125 166.460938 149.320312 165.179688 C 149.4375 163.894531 148.820312 162.847656 148.820312 162.847656 L 148.820312 157.714844 C 148.820312 157.015625 148.402344 155.382812 148.285156 153.984375 C 148.167969 152.585938 147.519531 150.136719 147.519531 150.136719 C 147.519531 150.136719 145.535156 149.085938 145.070312 148.621094 C 144.601562 148.15625 143.554688 146.640625 142.96875 146.054688 C 142.386719 145.472656 139.9375 144.191406 139.9375 144.191406 C 139.9375 144.191406 138.421875 143.609375 137.140625 142.910156 C 135.859375 142.210938 133.527344 141.507812 132.941406 140.925781 C 132.359375 140.34375 131.195312 139.761719 128.976562 138.59375 C 126.761719 137.429688 124.082031 133.929688 123.5 133.230469 C 122.914062 132.53125 121.984375 132.179688 122.796875 131.132812 C 123.613281 130.082031 122.914062 129.5 122.683594 128.683594 C 122.449219 127.867188 121.398438 127.050781 121.050781 125.886719 C 120.699219 124.71875 119.183594 123.554688 119.066406 122.503906 C 118.949219 121.453125 117.902344 121.222656 117.320312 120.753906 C 116.734375 120.289062 116.734375 118.074219 116.386719 117.023438 C 116.035156 115.976562 114.171875 112.242188 113.820312 111.425781 C 113.472656 110.613281 112.773438 109.679688 112.421875 108.046875 C 112.074219 106.414062 111.488281 106.878906 110.789062 106.296875 C 110.089844 105.714844 109.273438 104.082031 109.039062 103.265625 C 108.808594 102.449219 107.875 101.167969 106.824219 100.117188 C 105.777344 99.066406 102.976562 97.550781 102.976562 97.550781 L 102.746094 96.851562 C 104.492188 95.804688 103.210938 95.21875 102.859375 94.871094 C 102.511719 94.519531 102.511719 94.054688 102.511719 93.472656 C 102.511719 92.886719 101.929688 92.070312 101.8125 91.023438 C 101.695312 89.972656 103.910156 88.574219 104.84375 87.640625 C 105.777344 86.707031 107.292969 86.125 107.875 85.191406 C 108.457031 84.257812 108.222656 82.628906 108.222656 82.628906 C 108.222656 82.628906 107.992188 82.160156 107.640625 81.578125 C 107.292969 80.996094 106.125 83.445312 106.125 83.445312 L 105.542969 83.210938 L 103.910156 82.042969 C 103.910156 82.042969 103.910156 78.78125 103.792969 77.382812 C 103.675781 75.980469 104.84375 75.980469 105.425781 75.398438 C 106.007812 74.816406 105.191406 74.933594 106.125 73.300781 C 107.058594 71.667969 107.058594 70.96875 106.941406 69.453125 C 106.824219 67.9375 108.109375 69.21875 109.15625 68.519531 C 110.207031 67.820312 110.671875 67.46875 111.371094 67.234375 C 112.070312 67.003906 112.304688 66.652344 112.304688 66.652344 C 111.371094 65.605469 112.1875 64.554688 112.886719 64.554688 C 113.585938 64.554688 113.46875 63.503906 113.703125 61.871094 C 113.9375 60.242188 115.917969 61.40625 116.851562 60.941406 C 117.785156 60.472656 117.785156 59.074219 118.484375 58.023438 C 119.183594 56.976562 120.230469 55.808594 120.230469 55.808594 C 119.179688 55.808594 118.011719 56.507812 118.246094 54.527344 C 118.476562 52.546875 118.46875 52.078125 118.355469 50.914062 C 118.238281 49.746094 118.222656 48.582031 118.570312 48.347656 C 118.921875 48.113281 118.542969 46.484375 118.542969 45.199219 C 118.542969 43.917969 117.78125 44.035156 117.199219 43.335938 C 116.617188 42.636719 116.261719 40.886719 116.261719 40.886719 L 116.632812 40.417969 L 116.632812 39.71875 L 117.792969 39.953125 L 119.300781 38.089844 L 118.136719 36.574219 L 118.484375 35.40625 C 118.484375 35.40625 120.582031 37.621094 121.050781 38.320312 C 121.515625 39.019531 120.816406 35.523438 120.816406 35.523438 C 120.816406 35.523438 121.285156 35.40625 122.101562 34.824219 C 122.917969 34.238281 124.199219 32.257812 124.199219 32.257812 L 125.480469 31.910156 C 125.480469 31.910156 125.949219 27.476562 126.179688 27.128906 C 126.414062 26.777344 128.746094 25.613281 128.746094 25.613281 C 128.746094 25.613281 130.027344 24.679688 130.378906 25.496094 C 130.726562 26.3125 131.195312 25.84375 131.542969 25.03125 C 131.894531 24.214844 132.242188 24.097656 132.941406 24.214844 C 133.644531 24.328125 135.976562 24.097656 137.023438 23.511719 C 138.074219 22.929688 139.472656 22.230469 140.523438 21.648438 C 141.570312 21.066406 141.222656 20.25 141.222656 20.25 C 142.269531 20.832031 141.921875 19.433594 141.921875 19.433594 C 141.921875 19.433594 142.503906 19.550781 142.96875 19.550781 C 143.433594 19.550781 143.902344 18.96875 144.949219 20.019531 C 146 21.066406 143.785156 22.003906 143.085938 22.46875 C 142.386719 22.933594 142.035156 22.824219 142.734375 24.804688 C 143.433594 26.789062 142.730469 27.726562 142.144531 28.3125 C 141.5625 28.894531 141.320312 30.425781 141.671875 31.242188 C 142.019531 32.058594 142.351562 31.859375 142.933594 33.023438 C 143.519531 34.191406 144.671875 34.265625 145.230469 33.441406 C 146.5625 31.472656 144.839844 28.992188 144.023438 28.0625 Z M 144.023438 28.0625 " fill-opacity="1" fill-rule="nonzero"/></g></svg>