<svg xmlns="http://www.w3.org/2000/svg" xmlns:xlink="http://www.w3.org/1999/xlink" width="500" zoomAndPan="magnify" viewBox="0 0 375 374.999991" height="500" preserveAspectRatio="xMidYMid meet" version="1.0"><defs><clipPath id="201a5cf332"><path d="M 33 55 L 315 55 L 315 274 L 33 274 Z M 33 55 " clip-rule="nonzero"/></clipPath><clipPath id="1f65bbdd14"><path d="M 33.300781 66.949219 L 187.867188 -20.828125 L 333.046875 234.828125 L 178.480469 322.601562 Z M 33.300781 66.949219 " clip-rule="nonzero"/></clipPath><clipPath id="c63741c594"><path d="M 33.300781 66.949219 L 187.867188 -20.828125 L 333.046875 234.828125 L 178.480469 322.601562 Z M 33.300781 66.949219 " clip-rule="nonzero"/></clipPath><clipPath id="5ded9ef0e9"><path d="M 267 200 L 301 200 L 301 213 L 267 213 Z M 267 200 " clip-rule="nonzero"/></clipPath><clipPath id="7d35425ed8"><path d="M 33.300781 66.949219 L 187.867188 -20.828125 L 333.046875 234.828125 L 178.480469 322.601562 Z M 33.300781 66.949219 " clip-rule="nonzero"/></clipPath><clipPath id="ab2a8e5a7f"><path d="M 33.300781 66.949219 L 187.867188 -20.828125 L 333.046875 234.828125 L 178.480469 322.601562 Z M 33.300781 66.949219 " clip-rule="nonzero"/></clipPath><clipPath id="13ca4c2fea"><path d="M 228 108 L 262 108 L 262 121 L 228 121 Z M 228 108 " clip-rule="nonzero"/></clipPath><clipPath id="99f7c8ccbc"><path d="M 33.300781 66.949219 L 187.867188 -20.828125 L 333.046875 234.828125 L 178.480469 322.601562 Z M 33.300781 66.949219 " clip-rule="nonzero"/></clipPath><clipPath id="5eb8b6bd46"><path d="M 33.300781 66.949219 L 187.867188 -20.828125 L 333.046875 234.828125 L 178.480469 322.601562 Z M 33.300781 66.949219 " clip-rule="nonzero"/></clipPath><clipPath id="c15002a426"><path d="M 242 183 L 276 183 L 276 196 L 242 196 Z M 242 183 " clip-rule="nonzero"/></clipPath><clipPath id="c286dfbb3e"><path d="M 33.300781 66.949219 L 187.867188 -20.828125 L 333.046875 234.828125 L 178.480469 322.601562 Z M 33.300781 66.949219 " clip-rule="nonzero"/></clipPath><clipPath id="4e211ad246"><path d="M 33.300781 66.949219 L 187.867188 -20.828125 L 333.046875 234.828125 L 178.480469 322.601562 Z M 33.300781 66.949219 " clip-rule="nonzero"/></clipPath><clipPath id="5604b53716"><path d="M 210 103 L 244 103 L 244 116 L 210 116 Z M 210 103 " clip-rule="nonzero"/></clipPath><clipPath id="f634a7b625"><path d="M 33.300781 66.949219 L 187.867188 -20.828125 L 333.046875 234.828125 L 178.480469 322.601562 Z M 33.300781 66.949219 " clip-rule="nonzero"/></clipPath><clipPath id="d7a6493702"><path d="M 33.300781 66.949219 L 187.867188 -20.828125 L 333.046875 234.828125 L 178.480469 322.601562 Z M 33.300781 66.949219 " clip-rule="nonzero"/></clipPath><clipPath id="7f0a146e6b"><path d="M 217 166 L 251 166 L 251 179 L 217 179 Z M 217 166 " clip-rule="nonzero"/></clipPath><clipPath id="d2cef08a71"><path d="M 33.300781 66.949219 L 187.867188 -20.828125 L 333.046875 234.828125 L 178.480469 322.601562 Z M 33.300781 66.949219 " clip-rule="nonzero"/></clipPath><clipPath id="4f93545dcb"><path d="M 33.300781 66.949219 L 187.867188 -20.828125 L 333.046875 234.828125 L 178.480469 322.601562 Z M 33.300781 66.949219 " clip-rule="nonzero"/></clipPath><clipPath id="0ab1724bc1"><path d="M 193 99 L 227 99 L 227 112 L 193 112 Z M 193 99 " clip-rule="nonzero"/></clipPath><clipPath id="66eda603c3"><path d="M 33.300781 66.949219 L 187.867188 -20.828125 L 333.046875 234.828125 L 178.480469 322.601562 Z M 33.300781 66.949219 " clip-rule="nonzero"/></clipPath><clipPath id="ea0b0707b7"><path d="M 33.300781 66.949219 L 187.867188 -20.828125 L 333.046875 234.828125 L 178.480469 322.601562 Z M 33.300781 66.949219 " clip-rule="nonzero"/></clipPath><clipPath id="25a4f57aa6"><path d="M 175 94 L 209 94 L 209 107 L 175 107 Z M 175 94 " clip-rule="nonzero"/></clipPath><clipPath id="c94658451c"><path d="M 33.300781 66.949219 L 187.867188 -20.828125 L 333.046875 234.828125 L 178.480469 322.601562 Z M 33.300781 66.949219 " clip-rule="nonzero"/></clipPath><clipPath id="b4f590c295"><path d="M 33.300781 66.949219 L 187.867188 -20.828125 L 333.046875 234.828125 L 178.480469 322.601562 Z M 33.300781 66.949219 " clip-rule="nonzero"/></clipPath><clipPath id="b7dd91ce6a"><path d="M 157 89 L 191 89 L 191 102 L 157 102 Z M 157 89 " clip-rule="nonzero"/></clipPath><clipPath id="f42235269b"><path d="M 33.300781 66.949219 L 187.867188 -20.828125 L 333.046875 234.828125 L 178.480469 322.601562 Z M 33.300781 66.949219 " clip-rule="nonzero"/></clipPath><clipPath id="799b86932e"><path d="M 33.300781 66.949219 L 187.867188 -20.828125 L 333.046875 234.828125 L 178.480469 322.601562 Z M 33.300781 66.949219 " clip-rule="nonzero"/></clipPath><clipPath id="1b33533a78"><path d="M 140 84 L 173 84 L 173 97 L 140 97 Z M 140 84 " clip-rule="nonzero"/></clipPath><clipPath id="467e34d9bf"><path d="M 33.300781 66.949219 L 187.867188 -20.828125 L 333.046875 234.828125 L 178.480469 322.601562 Z M 33.300781 66.949219 " clip-rule="nonzero"/></clipPath><clipPath id="6d37d92f74"><path d="M 33.300781 66.949219 L 187.867188 -20.828125 L 333.046875 234.828125 L 178.480469 322.601562 Z M 33.300781 66.949219 " clip-rule="nonzero"/></clipPath><clipPath id="1936699bd8"><path d="M 122 79 L 156 79 L 156 92 L 122 92 Z M 122 79 " clip-rule="nonzero"/></clipPath><clipPath id="45e02dc8ad"><path d="M 33.300781 66.949219 L 187.867188 -20.828125 L 333.046875 234.828125 L 178.480469 322.601562 Z M 33.300781 66.949219 " clip-rule="nonzero"/></clipPath><clipPath id="675b5d3845"><path d="M 33.300781 66.949219 L 187.867188 -20.828125 L 333.046875 234.828125 L 178.480469 322.601562 Z M 33.300781 66.949219 " clip-rule="nonzero"/></clipPath><clipPath id="3e74dc8c2c"><path d="M 104 75 L 138 75 L 138 88 L 104 88 Z M 104 75 " clip-rule="nonzero"/></clipPath><clipPath id="16ee2d5234"><path d="M 33.300781 66.949219 L 187.867188 -20.828125 L 333.046875 234.828125 L 178.480469 322.601562 Z M 33.300781 66.949219 " clip-rule="nonzero"/></clipPath><clipPath id="d4021360eb"><path d="M 33.300781 66.949219 L 187.867188 -20.828125 L 333.046875 234.828125 L 178.480469 322.601562 Z M 33.300781 66.949219 " clip-rule="nonzero"/></clipPath><clipPath id="372b13ad55"><path d="M 86 70 L 120 70 L 120 83 L 86 83 Z M 86 70 " clip-rule="nonzero"/></clipPath><clipPath id="690bceaa68"><path d="M 33.300781 66.949219 L 187.867188 -20.828125 L 333.046875 234.828125 L 178.480469 322.601562 Z M 33.300781 66.949219 " clip-rule="nonzero"/></clipPath><clipPath id="2619729bf7"><path d="M 33.300781 66.949219 L 187.867188 -20.828125 L 333.046875 234.828125 L 178.480469 322.601562 Z M 33.300781 66.949219 " clip-rule="nonzero"/></clipPath><clipPath id="c5615aad0f"><path d="M 69 65 L 103 65 L 103 78 L 69 78 Z M 69 65 " clip-rule="nonzero"/></clipPath><clipPath id="07033fb1b6"><path d="M 33.300781 66.949219 L 187.867188 -20.828125 L 333.046875 234.828125 L 178.480469 322.601562 Z M 33.300781 66.949219 " clip-rule="nonzero"/></clipPath><clipPath id="dd03cccd52"><path d="M 33.300781 66.949219 L 187.867188 -20.828125 L 333.046875 234.828125 L 178.480469 322.601562 Z M 33.300781 66.949219 " clip-rule="nonzero"/></clipPath><clipPath id="38a5eb262a"><path d="M 51 60 L 85 60 L 85 73 L 51 73 Z M 51 60 " clip-rule="nonzero"/></clipPath><clipPath id="e812ce2b96"><path d="M 33.300781 66.949219 L 187.867188 -20.828125 L 333.046875 234.828125 L 178.480469 322.601562 Z M 33.300781 66.949219 " clip-rule="nonzero"/></clipPath><clipPath id="28405e9fda"><path d="M 33.300781 66.949219 L 187.867188 -20.828125 L 333.046875 234.828125 L 178.480469 322.601562 Z M 33.300781 66.949219 " clip-rule="nonzero"/></clipPath><clipPath id="0a844dd42c"><path d="M 267 208 L 304 208 L 304 237 L 267 237 Z M 267 208 " clip-rule="nonzero"/></clipPath><clipPath id="81c07f65e9"><path d="M 33.300781 66.949219 L 187.867188 -20.828125 L 333.046875 234.828125 L 178.480469 322.601562 Z M 33.300781 66.949219 " clip-rule="nonzero"/></clipPath><clipPath id="4ca4904c7f"><path d="M 33.300781 66.949219 L 187.867188 -20.828125 L 333.046875 234.828125 L 178.480469 322.601562 Z M 33.300781 66.949219 " clip-rule="nonzero"/></clipPath><clipPath id="6c3f2568a6"><path d="M 186 196 L 290 196 L 290 264 L 186 264 Z M 186 196 " clip-rule="nonzero"/></clipPath><clipPath id="3bf8436f84"><path d="M 33.300781 66.949219 L 187.867188 -20.828125 L 333.046875 234.828125 L 178.480469 322.601562 Z M 33.300781 66.949219 " clip-rule="nonzero"/></clipPath><clipPath id="210f50b089"><path d="M 33.300781 66.949219 L 187.867188 -20.828125 L 333.046875 234.828125 L 178.480469 322.601562 Z M 33.300781 66.949219 " clip-rule="nonzero"/></clipPath><clipPath id="2d21e23c2a"><path d="M 33 63 L 177 63 L 177 274 L 33 274 Z M 33 63 " clip-rule="nonzero"/></clipPath><clipPath id="21da4be1ff"><path d="M 33.300781 66.949219 L 187.867188 -20.828125 L 333.046875 234.828125 L 178.480469 322.601562 Z M 33.300781 66.949219 " clip-rule="nonzero"/></clipPath><clipPath id="2cec97fdce"><path d="M 33.300781 66.949219 L 187.867188 -20.828125 L 333.046875 234.828125 L 178.480469 322.601562 Z M 33.300781 66.949219 " clip-rule="nonzero"/></clipPath><clipPath id="38373c7585"><path d="M 33 55 L 315 55 L 315 270 L 33 270 Z M 33 55 " clip-rule="nonzero"/></clipPath><clipPath id="946345d167"><path d="M 33.300781 66.949219 L 187.867188 -20.828125 L 333.046875 234.828125 L 178.480469 322.601562 Z M 33.300781 66.949219 " clip-rule="nonzero"/></clipPath><clipPath id="bd6952181d"><path d="M 33.300781 66.949219 L 187.867188 -20.828125 L 333.046875 234.828125 L 178.480469 322.601562 Z M 33.300781 66.949219 " clip-rule="nonzero"/></clipPath><clipPath id="7f441aa473"><path d="M 81 72 L 304 72 L 304 247 L 81 247 Z M 81 72 " clip-rule="nonzero"/></clipPath><clipPath id="99f4aa3709"><path d="M 33.300781 66.949219 L 187.867188 -20.828125 L 333.046875 234.828125 L 178.480469 322.601562 Z M 33.300781 66.949219 " clip-rule="nonzero"/></clipPath><clipPath id="ed195c1a71"><path d="M 33.300781 66.949219 L 187.867188 -20.828125 L 333.046875 234.828125 L 178.480469 322.601562 Z M 33.300781 66.949219 " clip-rule="nonzero"/></clipPath></defs><g clip-path="url(#201a5cf332)"><g clip-path="url(#1f65bbdd14)"><g clip-path="url(#c63741c594)"><path fill="#fee7f4" d="M 300.390625 200.726562 L 300.394531 200.71875 L 287.167969 203.519531 L 275.628906 183.808594 L 275.628906 183.804688 L 275.625 183.808594 L 262.382812 186.609375 L 250.859375 166.90625 L 250.855469 166.902344 L 237.628906 169.699219 L 226.101562 149.984375 L 268.488281 120.746094 L 261.398438 108.636719 L 261.402344 108.632812 L 261.398438 108.636719 L 261.394531 108.632812 L 261.386719 108.636719 L 248.164062 111.433594 L 243.722656 103.847656 L 243.71875 103.84375 L 230.488281 106.644531 L 226.03125 99.035156 L 226.035156 99.035156 L 226.027344 99.035156 L 212.789062 101.835938 L 208.355469 94.25 L 208.351562 94.246094 L 195.121094 97.042969 L 190.675781 89.449219 L 177.429688 92.25 L 172.984375 84.636719 L 172.964844 84.648438 L 159.753906 87.445312 L 155.308594 79.851562 L 155.308594 79.847656 L 142.0625 82.648438 L 137.617188 75.039062 L 137.601562 75.050781 L 124.390625 77.84375 L 119.945312 70.253906 L 119.941406 70.25 L 106.691406 73.050781 L 102.242188 65.449219 L 102.246094 65.445312 L 102.238281 65.449219 L 102.238281 65.445312 L 102.234375 65.449219 L 89.023438 68.242188 L 84.578125 60.65625 L 84.570312 60.648438 L 71.324219 63.453125 L 66.875 55.851562 L 66.878906 55.847656 L 44.519531 60.578125 L 33.925781 67.882812 L 154.359375 273.734375 L 176.710938 269.007812 L 176.714844 269.015625 L 187.304688 261.699219 L 180.234375 249.59375 L 190.832031 242.292969 L 183.753906 230.167969 L 194.34375 222.855469 L 187.261719 210.753906 L 190.554688 208.484375 L 193.183594 212.972656 L 200.269531 225.089844 L 213.515625 222.285156 L 217.957031 229.878906 L 225.042969 241.992188 L 238.273438 239.195312 L 242.71875 246.792969 L 249.804688 258.90625 L 263.050781 256.105469 L 267.492188 263.695312 L 289.851562 258.96875 L 289.851562 258.964844 L 311.054688 244.34375 L 303.96875 232.242188 L 314.566406 224.941406 Z M 300.390625 200.726562 " fill-opacity="1" fill-rule="nonzero"/></g></g></g><g clip-path="url(#5ded9ef0e9)"><g clip-path="url(#7d35425ed8)"><g clip-path="url(#ab2a8e5a7f)"><path fill="#16131e" d="M 267.441406 212.753906 L 289.800781 208.027344 L 300.394531 200.71875 L 278.035156 205.449219 Z M 267.441406 212.753906 " fill-opacity="1" fill-rule="nonzero"/></g></g></g><g clip-path="url(#13ca4c2fea)"><g clip-path="url(#99f7c8ccbc)"><g clip-path="url(#5eb8b6bd46)"><path fill="#16131e" d="M 228.441406 120.675781 L 250.796875 115.949219 L 261.402344 108.632812 L 239.046875 113.363281 Z M 228.441406 120.675781 " fill-opacity="1" fill-rule="nonzero"/></g></g></g><g clip-path="url(#c15002a426)"><g clip-path="url(#c286dfbb3e)"><g clip-path="url(#4e211ad246)"><path fill="#16131e" d="M 275.628906 183.808594 L 253.273438 188.535156 L 242.667969 195.851562 L 265.027344 191.121094 Z M 275.628906 183.808594 " fill-opacity="1" fill-rule="nonzero"/></g></g></g><g clip-path="url(#5604b53716)"><g clip-path="url(#f634a7b625)"><g clip-path="url(#d7a6493702)"><path fill="#16131e" d="M 210.765625 115.878906 L 233.125 111.152344 L 243.71875 103.84375 L 221.359375 108.574219 Z M 210.765625 115.878906 " fill-opacity="1" fill-rule="nonzero"/></g></g></g><g clip-path="url(#7f0a146e6b)"><g clip-path="url(#d2cef08a71)"><g clip-path="url(#4f93545dcb)"><path fill="#16131e" d="M 250.855469 166.902344 L 228.5 171.632812 L 217.90625 178.9375 L 240.261719 174.207031 Z M 250.855469 166.902344 " fill-opacity="1" fill-rule="nonzero"/></g></g></g><g clip-path="url(#0ab1724bc1)"><g clip-path="url(#66eda603c3)"><g clip-path="url(#ea0b0707b7)"><path fill="#16131e" d="M 193.074219 111.078125 L 215.429688 106.347656 L 226.035156 99.035156 L 203.679688 103.765625 Z M 193.074219 111.078125 " fill-opacity="1" fill-rule="nonzero"/></g></g></g><g clip-path="url(#25a4f57aa6)"><g clip-path="url(#c94658451c)"><g clip-path="url(#b4f590c295)"><path fill="#16131e" d="M 208.351562 94.246094 L 185.992188 98.976562 L 175.398438 106.28125 L 197.757812 101.550781 Z M 208.351562 94.246094 " fill-opacity="1" fill-rule="nonzero"/></g></g></g><g clip-path="url(#b7dd91ce6a)"><g clip-path="url(#f42235269b)"><g clip-path="url(#799b86932e)"><path fill="#16131e" d="M 190.675781 89.449219 L 168.316406 94.175781 L 157.710938 101.492188 L 180.070312 96.761719 Z M 190.675781 89.449219 " fill-opacity="1" fill-rule="nonzero"/></g></g></g><g clip-path="url(#1b33533a78)"><g clip-path="url(#467e34d9bf)"><g clip-path="url(#6d37d92f74)"><path fill="#16131e" d="M 172.980469 84.644531 L 150.625 89.375 L 140.03125 96.679688 L 162.386719 91.953125 Z M 172.980469 84.644531 " fill-opacity="1" fill-rule="nonzero"/></g></g></g><g clip-path="url(#1936699bd8)"><g clip-path="url(#45e02dc8ad)"><g clip-path="url(#675b5d3845)"><path fill="#16131e" d="M 155.308594 79.847656 L 132.949219 84.578125 L 122.34375 91.890625 L 144.703125 87.164062 Z M 155.308594 79.847656 " fill-opacity="1" fill-rule="nonzero"/></g></g></g><g clip-path="url(#3e74dc8c2c)"><g clip-path="url(#16ee2d5234)"><g clip-path="url(#d4021360eb)"><path fill="#16131e" d="M 137.613281 75.046875 L 115.257812 79.777344 L 104.664062 87.082031 L 127.019531 82.351562 Z M 137.613281 75.046875 " fill-opacity="1" fill-rule="nonzero"/></g></g></g><g clip-path="url(#372b13ad55)"><g clip-path="url(#690bceaa68)"><g clip-path="url(#2619729bf7)"><path fill="#16131e" d="M 119.941406 70.25 L 97.582031 74.976562 L 86.976562 82.292969 L 109.335938 77.5625 Z M 119.941406 70.25 " fill-opacity="1" fill-rule="nonzero"/></g></g></g><g clip-path="url(#c5615aad0f)"><g clip-path="url(#07033fb1b6)"><g clip-path="url(#dd03cccd52)"><path fill="#16131e" d="M 102.246094 65.445312 L 79.886719 70.175781 L 69.292969 77.480469 L 91.652344 72.753906 Z M 102.246094 65.445312 " fill-opacity="1" fill-rule="nonzero"/></g></g></g><g clip-path="url(#38a5eb262a)"><g clip-path="url(#e812ce2b96)"><g clip-path="url(#28405e9fda)"><path fill="#16131e" d="M 84.570312 60.648438 L 62.214844 65.378906 L 51.609375 72.691406 L 73.96875 67.960938 Z M 84.570312 60.648438 " fill-opacity="1" fill-rule="nonzero"/></g></g></g><g clip-path="url(#0a844dd42c)"><g clip-path="url(#81c07f65e9)"><g clip-path="url(#4ca4904c7f)"><path fill="#fee7f4" d="M 296.878906 220.128906 L 289.800781 208.027344 L 267.441406 212.753906 L 274.523438 224.859375 L 281.609375 236.972656 L 303.96875 232.246094 Z M 296.878906 220.128906 " fill-opacity="1" fill-rule="nonzero"/></g></g></g><g clip-path="url(#6c3f2568a6)"><g clip-path="url(#3bf8436f84)"><g clip-path="url(#210f50b089)"><path fill="#fee7f4" d="M 269.523438 249.664062 L 265.078125 242.0625 L 257.996094 229.957031 L 244.765625 232.757812 L 240.3125 225.148438 L 233.234375 213.046875 L 219.988281 215.847656 L 215.539062 208.242188 L 208.457031 196.140625 L 186.101562 200.871094 L 193.183594 212.972656 L 200.269531 225.089844 L 213.515625 222.285156 L 217.957031 229.878906 L 225.042969 241.992188 L 238.273438 239.195312 L 242.71875 246.792969 L 249.804688 258.90625 L 263.050781 256.105469 L 267.492188 263.695312 L 289.851562 258.96875 L 282.769531 246.863281 Z M 269.523438 249.664062 " fill-opacity="1" fill-rule="nonzero"/></g></g></g><g clip-path="url(#2d21e23c2a)"><g clip-path="url(#21da4be1ff)"><g clip-path="url(#2cec97fdce)"><path fill="#fee7f4" d="M 33.925781 67.882812 L 154.359375 273.734375 L 176.714844 269.007812 L 56.285156 63.152344 Z M 33.925781 67.882812 " fill-opacity="1" fill-rule="nonzero"/></g></g></g><g clip-path="url(#38373c7585)"><g clip-path="url(#946345d167)"><g clip-path="url(#bd6952181d)"><path fill="#ff2e63" d="M 300.390625 200.726562 L 289.804688 208.019531 L 275.628906 183.804688 L 265.023438 191.128906 L 250.859375 166.90625 L 240.261719 174.207031 L 226.101562 149.984375 L 268.488281 120.746094 L 261.394531 108.632812 L 250.808594 115.949219 L 243.722656 103.847656 L 233.125 111.148438 L 226.03125 99.035156 L 215.425781 106.355469 L 208.355469 94.25 L 197.757812 101.550781 L 190.675781 89.449219 L 180.0625 96.757812 L 172.984375 84.636719 L 162.394531 91.949219 L 155.308594 79.851562 L 144.695312 87.160156 L 137.617188 75.039062 L 127.027344 82.351562 L 119.945312 70.253906 L 109.332031 77.5625 L 102.238281 65.445312 L 91.664062 72.753906 L 84.578125 60.652344 L 73.964844 67.964844 L 66.875 55.851562 L 66.878906 55.847656 L 44.519531 60.578125 L 33.925781 67.882812 L 56.277344 63.152344 L 176.714844 269.015625 L 187.304688 261.699219 L 180.234375 249.59375 L 190.832031 242.292969 L 183.753906 230.171875 L 194.34375 222.855469 L 187.261719 210.753906 L 208.460938 196.132812 L 222.625 220.355469 L 233.238281 213.046875 L 247.402344 237.265625 L 257.992188 229.953125 L 272.152344 254.175781 L 282.765625 246.867188 L 289.851562 258.964844 L 311.054688 244.34375 L 303.96875 232.242188 L 314.566406 224.941406 Z M 300.390625 200.726562 " fill-opacity="1" fill-rule="nonzero"/></g></g></g><g clip-path="url(#7f441aa473)"><g clip-path="url(#99f4aa3709)"><g clip-path="url(#ed195c1a71)"><path fill="#ffffff" d="M 91.652344 72.753906 L 98.742188 84.867188 L 109.335938 77.5625 L 116.414062 89.664062 L 127.019531 82.351562 L 134.109375 94.46875 L 144.703125 87.160156 L 151.785156 99.265625 L 162.386719 91.953125 L 169.476562 104.066406 L 180.070312 96.761719 L 187.152344 108.863281 L 197.757812 101.550781 L 204.835938 113.652344 L 215.429688 106.347656 L 222.519531 118.464844 L 233.125 111.152344 L 240.203125 123.253906 L 229.597656 130.566406 L 219.003906 137.871094 L 208.402344 145.1875 L 215.488281 157.300781 L 222.570312 169.40625 L 229.65625 181.519531 L 240.261719 174.207031 L 254.433594 198.425781 L 265.027344 191.121094 L 279.195312 215.339844 L 289.800781 208.027344 L 303.96875 232.246094 L 282.769531 246.863281 L 268.601562 222.644531 L 257.996094 229.957031 L 243.828125 205.738281 L 233.234375 213.046875 L 219.0625 188.828125 L 208.457031 196.140625 L 201.371094 184.023438 L 194.289062 171.921875 L 183.695312 179.226562 L 190.777344 191.332031 L 180.171875 198.644531 L 187.261719 210.757812 L 176.667969 218.066406 L 183.746094 230.167969 L 173.140625 237.480469 L 81.046875 80.066406 Z M 91.652344 72.753906 " fill-opacity="1" fill-rule="nonzero"/></g></g></g></svg>