<svg xmlns="http://www.w3.org/2000/svg" viewBox="0 0 1200 600">
  <defs>
    <linearGradient id="mapGradient" x1="0%" x2="100%" y1="0%" y2="0%">
      <stop offset="0%" stop-color="#fbcfe8" />
      <stop offset="100%" stop-color="#fef3c7" />
    </linearGradient>
  </defs>
  <rect width="1200" height="600" fill="none" />
  <path d="M163 222 C116 200 98 248 127 280 C171 331 236 349 297 330 C344 315 370 274 341 245 C318 223 282 219 250 212 C221 206 184 206 163 222 Z" fill="#ffdce9" opacity="0.85" />
  <path d="M425 208 C392 187 353 212 345 246 C334 294 379 331 421 355 C463 377 517 372 551 343 C572 326 579 296 562 273 C538 240 491 232 457 222 Z" fill="#ffd3e5" opacity="0.8" />
  <path d="M655 222 C608 219 585 266 605 305 C627 348 678 371 723 364 C778 355 823 314 822 268 C821 234 792 205 758 201 C723 197 689 219 655 222 Z" fill="#ffe1ef" opacity="0.85" />
  <path d="M868 250 C834 256 809 292 819 324 C830 360 871 383 909 384 C957 384 1004 361 1024 319 C1041 284 1036 240 1006 216 C979 196 941 207 910 214 C894 218 880 240 868 250 Z" fill="#ffd6e7" opacity="0.85" />
  <path d="M930 392 C890 384 864 430 878 464 C894 503 945 526 990 518 C1036 510 1074 470 1072 426 C1070 398 1046 372 1019 368 C990 364 958 398 930 392 Z" fill="#ffe8f2" opacity="0.85" />
  <path d="M574 394 C532 382 486 393 462 425 C437 459 445 506 480 529 C517 553 579 552 614 522 C639 500 643 459 624 430 C610 409 594 399 574 394 Z" fill="#ffeef6" opacity="0.8" />
</svg>
